<?xml version="1.0" ?>
<svg xmlns="http://www.w3.org/2000/svg" width="24.0" height="24.0" viewBox="0 0 24.0 24.0">
  <path d="M20.531,4.5L3.47,4.5A1.969,1.969 0,0 0,1.5 6.469L1.5,18.28c0,1.088 0.881,1.969 1.969,1.969L20.53,20.249a1.969,1.969 0,0 0,1.969 -1.969L22.499,6.47A1.969,1.969 0,0 0,20.531 4.5zM21.188,18.281a0.657,0.657 0,0 1,-0.657 0.657L3.47,18.938a0.657,0.657 0,0 1,-0.656 -0.657L2.814,6.47c0,-0.362 0.294,-0.657 0.656,-0.657L20.53,5.813c0.362,0 0.657,0.295 0.657,0.657L21.187,18.28zM6.094,11.391a2.297,2.297 0,1 0,0 -4.594,2.297 2.297,0 0,0 0,4.594zM6.094,8.109a0.985,0.985 0,0 1,0 1.97,0.985 0.985,0 0,1 0,-1.97zM14.585,9.054l-3.898,3.898 -1.272,-1.273a0.984,0.984 0,0 0,-1.392 0l-3.61,3.61a0.984,0.984 0,0 0,-0.288 0.695v1.149c0,0.272 0.22,0.492 0.492,0.492h14.766c0.272,0 0.492,-0.22 0.492,-0.492v-3.774a0.985,0.985 0,0 0,-0.288 -0.696l-3.61,-3.61a0.984,0.984 0,0 0,-1.392 0zM18.562,16.312L5.438,16.312v-0.192l3.282,-3.28 1.969,1.968 4.593,-4.594 3.281,3.281v2.818z" fill="#2196F3"/>
</svg>
