<svg xmlns="http://www.w3.org/2000/svg" id="prefix__Icons_Basic_Default_Camera" width="16" height="16" data-name="Icons / Basic / Default / Camera" viewBox="0 0 16 16">
    <path id="prefix__icon_basic_emoticon_background" fill="none" d="M0 0H16V16H0z" data-name="icon/basic/emoticon background"/>
    <path id="prefix__Shape" fill="#1684fc" d="M7.5 15A7.5 7.5 0 0 1 2.2 2.2a7.5 7.5 0 0 1 10.6 10.6A7.451 7.451 0 0 1 7.5 15zM7.5.968A6.532 6.532 0 1 0 14.032 7.5 6.54 6.54 0 0 0 7.5.968zm0 10.887a4.5 4.5 0 0 1-3.469-1.624.484.484 0 0 1 .369-.794.484.484 0 0 1 .372.174 3.553 3.553 0 0 0 5.455 0 .488.488 0 0 1 .684-.064.481.481 0 0 1 .061.68A4.508 4.508 0 0 1 7.5 11.855zm2.419-4.839a.968.968 0 1 1 .968-.968.969.969 0 0 1-.968.968zm-4.839 0a.968.968 0 1 1 .968-.968.969.969 0 0 1-.967.968z" transform="translate(.5 .5)"/>
</svg>
