<svg xmlns="http://www.w3.org/2000/svg" id="prefix__Icons_Basic_Default_Camera" width="24" height="24" data-name="Icons / Basic / Default / Camera" viewBox="0 0 24 24">
    <path id="prefix__icon_basic_camera_background" fill="none" d="M0 0H24V24H0z" data-name="icon / basic / camera background"/>
    <path id="prefix__Shape" fill="#1684fc" d="M10.9 22.5H3.164a.352.352 0 0 1-.351-.352v-.7a.352.352 0 0 1 .351-.352h3.164v-2.869a6.9 6.9 0 0 1-4.521-2.376A7.4 7.4 0 0 1 0 11V8.789a.352.352 0 0 1 .352-.352h.7a.352.352 0 0 1 .352.352v2.263A5.941 5.941 0 0 0 2.907 15a5.48 5.48 0 0 0 3.741 1.857c.128.009.257.013.384.013a5.631 5.631 0 0 0 5.625-5.625V8.789a.352.352 0 0 1 .352-.352h.7a.352.352 0 0 1 .352.352v2.461a7.035 7.035 0 0 1-6.328 6.987v2.857H10.9a.352.352 0 0 1 .352.352v.7a.352.352 0 0 1-.352.354zm-3.869-7.031a4.224 4.224 0 0 1-4.218-4.219V4.219a4.219 4.219 0 1 1 8.438 0v7.031a4.224 4.224 0 0 1-4.22 4.219zm0-14.063a2.816 2.816 0 0 0-2.812 2.813v7.031a2.812 2.812 0 0 0 5.625 0V4.219a2.816 2.816 0 0 0-2.813-2.813z" transform="translate(5.25 .75)"/>
</svg>
