<svg xmlns="http://www.w3.org/2000/svg" width="24" height="24" viewBox="0 0 24 24">
    <path fill="#1684fc" d="M18.442 20.08l-.037-.022-.037-.032-8.391-8.392-8.391 8.391-.037.032-.036.022a.262.262 0 0 1-.293-.054L.077 18.884l-.032-.037-.022-.037a.262.262 0 0 1 .054-.293L8.5 10.055v-.007L.077 1.585l-.032-.037-.022-.036a.262.262 0 0 1 .054-.292L1.21.086l.046-.041.037-.022a.261.261 0 0 1 .293.054l8.391 8.392L18.368.077a.261.261 0 0 1 .292-.054l.04.022.047.041 1.132 1.133a.261.261 0 0 1 .054.292l-.022.036-.032.037-8.423 8.463v.006l8.423 8.463a.263.263 0 0 1 .054.293l-.022.036-.032.037-1.142 1.142a.266.266 0 0 1-.188.078.243.243 0 0 1-.107-.022z" transform="translate(2 2)"/>
</svg>
