<?xml version="1.0" ?>
<svg xmlns="http://www.w3.org/2000/svg" width="16.0" height="16.0" viewBox="0 0 16.0 16.0">
  <path d="M5.39,1.385a0.174,0.174 0,0 0,-0.194 -0.036l-0.025,0.015 -0.031,0.027 -0.755,0.755a0.174,0.174 0,0 0,-0.036 0.195l0.014,0.024 0.022,0.025 5.617,5.644 -5.617,5.644a0.174,0.174 0,0 0,-0.036 0.195l0.015,0.025 0.02,0.024 0.762,0.762a0.174,0.174 0,0 0,0.195 0.036l0.025,-0.015 0.025,-0.021 6.527,-6.528a0.174,0.174 0,0 0,0.036 -0.195l-0.015,-0.024 -0.021,-0.025L5.39,1.385z" fill="#ff25272a"/>
</svg>
