<?xml version="1.0" standalone="no"?>
<!DOCTYPE svg PUBLIC "-//W3C//DTD SVG 1.1//EN" "http://www.w3.org/Graphics/SVG/1.1/DTD/svg11.dtd" >
<svg xmlns="http://www.w3.org/2000/svg">
<metadata>Generated by IcoMoon</metadata>
<defs>
<font id="icomoon" horiz-adv-x="1024">
<font-face units-per-em="1024" ascent="960" descent="-64" />
<missing-glyph horiz-adv-x="1024" />
<glyph unicode="&#x20;" horiz-adv-x="512" d="" />
<glyph unicode="&#xe900;" horiz-adv-x="1707" d="M21.333 832h1664v-85.333h-1664v85.333z" />
<glyph unicode="&#xe901;" horiz-adv-x="1707" d="M190.259 398.473c0-5.325-1.946-9.779-5.837-13.363s-8.397-5.376-13.517-5.376c-5.53 0-10.086 1.792-13.67 5.376s-5.376 8.038-5.376 13.363v177.562c0 5.325 1.843 9.779 5.53 13.363s8.397 5.376 14.131 5.376c5.12 0 9.523-1.792 13.21-5.376s5.53-8.038 5.53-13.363v-177.562zM399.462 594.773c4.915 0 8.909-1.638 11.981-4.915s4.608-7.373 4.608-12.288v-179.098c0-5.325-1.792-9.779-5.376-13.363s-8.038-5.376-13.363-5.376c-2.867 0-5.683 0.461-8.448 1.382s-4.762 2.202-5.99 3.84l-112.742 143.155v-131.174c0-4.915-1.587-9.011-4.762-12.288s-7.322-4.915-12.442-4.915c-4.915 0-8.909 1.638-11.981 4.915s-4.608 7.373-4.608 12.288v179.098c0 5.325 1.792 9.779 5.376 13.363s8.038 5.376 13.363 5.376c3.072 0 6.093-0.614 9.062-1.843s5.171-2.867 6.605-4.915l111.821-142.541v132.096c0 4.915 1.587 9.011 4.762 12.288s7.219 4.915 12.134 4.915zM603.443 594.773c5.53 0 10.035-1.638 13.517-4.915s5.222-7.578 5.222-12.902c0-5.325-1.741-9.574-5.222-12.749s-7.987-4.762-13.517-4.762h-48.23v-160.973c0-5.325-1.946-9.779-5.837-13.363s-8.704-5.376-14.438-5.376c-5.734 0-10.445 1.792-14.131 5.376s-5.53 8.038-5.53 13.363v160.973h-48.23c-5.53 0-10.035 1.638-13.517 4.915s-5.222 7.578-5.222 12.902c0 5.12 1.792 9.318 5.376 12.595s8.038 4.915 13.363 4.915h136.397zM776.090 415.061c5.325 0 9.779-1.792 13.363-5.376s5.376-7.731 5.376-12.442c0-5.12-1.792-9.318-5.376-12.595s-8.038-4.915-13.363-4.915h-102.912c-5.325 0-9.779 1.792-13.363 5.376s-5.376 8.038-5.376 13.363v177.562c0 5.325 1.792 9.779 5.376 13.363s8.038 5.376 13.363 5.376h102.912c5.325 0 9.779-1.69 13.363-5.069s5.376-7.731 5.376-13.056c0-5.12-1.741-9.267-5.222-12.442s-7.987-4.762-13.517-4.762h-83.251v-52.224h69.427c5.325 0 9.779-1.69 13.363-5.069s5.376-7.731 5.376-13.056c0-5.12-1.741-9.267-5.222-12.442s-7.987-4.762-13.517-4.762h-69.427v-56.832h83.251zM998.81 409.839c2.662-1.638 4.762-3.789 6.298-6.451s2.304-5.427 2.304-8.294c0-3.686-1.229-7.066-3.686-10.138-3.072-3.686-7.782-5.53-14.131-5.53-4.915 0-9.421 1.126-13.517 3.379-14.746 8.397-22.118 25.497-22.118 51.302 0 7.373-2.406 13.21-7.219 17.51s-11.725 6.451-20.736 6.451h-57.446v-59.597c0-5.53-1.485-10.035-4.454-13.517s-6.912-5.222-11.827-5.222c-5.939 0-11.11 1.792-15.514 5.376s-6.605 8.038-6.605 13.363v177.562c0 5.325 1.792 9.779 5.376 13.363s8.038 5.376 13.363 5.376h88.474c10.65 0 20.685-2.867 30.106-8.602s16.947-13.619 22.579-23.654c5.632-10.035 8.448-21.299 8.448-33.792 0-10.24-2.765-20.224-8.294-29.952s-12.698-17.459-21.504-23.194c12.902-9.011 19.968-21.094 21.197-36.25 0.614-3.277 0.922-6.451 0.922-9.523 0.819-6.349 1.638-10.906 2.458-13.67s2.662-4.864 5.53-6.298zM935.834 489.711c3.686 0 7.27 1.741 10.752 5.222s6.349 8.141 8.602 13.978c2.253 5.837 3.379 12.134 3.379 18.893 0 5.734-1.126 11.008-3.379 15.821s-5.12 8.653-8.602 11.52c-3.482 2.867-7.066 4.301-10.752 4.301h-67.277v-69.734h67.277zM1204.326 594.773c4.915 0 8.909-1.638 11.981-4.915s4.608-7.373 4.608-12.288v-179.098c0-5.325-1.792-9.779-5.376-13.363s-8.038-5.376-13.363-5.376c-2.867 0-5.683 0.461-8.448 1.382s-4.762 2.202-5.99 3.84l-112.742 143.155v-131.174c0-4.915-1.587-9.011-4.762-12.288s-7.322-4.915-12.442-4.915c-4.915 0-8.909 1.638-11.981 4.915s-4.608 7.373-4.608 12.288v179.098c0 5.325 1.792 9.779 5.376 13.363s8.038 5.376 13.363 5.376c3.072 0 6.093-0.614 9.062-1.843s5.171-2.867 6.605-4.915l111.821-142.541v132.096c0 4.915 1.587 9.011 4.762 12.288s7.219 4.915 12.134 4.915zM1388.646 415.061c5.325 0 9.779-1.792 13.363-5.376s5.376-7.731 5.376-12.442c0-5.12-1.792-9.318-5.376-12.595s-8.038-4.915-13.363-4.915h-102.912c-5.325 0-9.779 1.792-13.363 5.376s-5.376 8.038-5.376 13.363v177.562c0 5.325 1.792 9.779 5.376 13.363s8.038 5.376 13.363 5.376h102.912c5.325 0 9.779-1.69 13.363-5.069s5.376-7.731 5.376-13.056c0-5.12-1.741-9.267-5.222-12.442s-7.987-4.762-13.517-4.762h-83.251v-52.224h69.427c5.325 0 9.779-1.69 13.363-5.069s5.376-7.731 5.376-13.056c0-5.12-1.741-9.267-5.222-12.442s-7.987-4.762-13.517-4.762h-69.427v-56.832h83.251zM1584.026 594.773c5.53 0 10.035-1.638 13.517-4.915s5.222-7.578 5.222-12.902c0-5.325-1.741-9.574-5.222-12.749s-7.987-4.762-13.517-4.762h-48.23v-160.973c0-5.325-1.946-9.779-5.837-13.363s-8.704-5.376-14.438-5.376c-5.734 0-10.445 1.792-14.131 5.376s-5.53 8.038-5.53 13.363v160.973h-48.23c-5.53 0-10.035 1.638-13.517 4.915s-5.222 7.578-5.222 12.902c0 5.12 1.792 9.318 5.376 12.595s8.038 4.915 13.363 4.915h136.397zM348.16 191.727c10.854-4.301 19.712-10.854 26.573-19.661s10.291-20.173 10.291-34.099c0-24.371-6.963-41.37-20.89-50.995s-30.515-14.438-49.766-14.438h-76.493c-5.325 0-9.779 1.792-13.363 5.376s-5.376 8.038-5.376 13.363v177.562c0 5.325 1.792 9.779 5.376 13.363s8.038 5.376 13.363 5.376h77.414c38.912 0 58.368-18.227 58.368-54.682 0-9.216-2.202-17.357-6.605-24.422s-10.701-12.646-18.893-16.742zM333.722 226.133c0 8.397-2.099 14.694-6.298 18.893s-10.086 6.298-17.664 6.298h-50.688v-47.923h51.61c6.144 0 11.52 2.048 16.128 6.144s6.912 9.626 6.912 16.589zM314.368 107.861c9.626 0 17.152 2.56 22.579 7.68s8.141 12.595 8.141 22.426c0 12.083-3.174 19.968-9.523 23.654s-14.131 5.53-23.347 5.53h-53.146v-59.29h55.296zM589.005 96.495c1.024-2.662 1.536-5.12 1.536-7.373 0-5.325-1.741-9.677-5.222-13.056s-7.475-5.069-11.981-5.069c-3.686 0-7.014 1.126-9.984 3.379s-5.274 5.325-6.912 9.216l-15.974 37.171h-91.546l-15.974-37.478c-1.434-3.891-3.635-6.912-6.605-9.062s-6.195-3.226-9.677-3.226c-5.325 0-9.37 1.434-12.134 4.301s-4.147 6.758-4.147 11.674c0 1.843 0.307 3.789 0.922 5.837l76.493 183.706c1.638 4.096 4.096 7.27 7.373 9.523s6.963 3.174 11.059 2.765c3.686 0 7.117-1.075 10.291-3.226s5.478-5.171 6.912-9.062l75.571-180.019zM463.974 156.092h61.44l-31.027 71.885-30.413-71.885zM779.776 287.573c4.915 0 8.909-1.638 11.981-4.915s4.608-7.373 4.608-12.288v-179.098c0-5.325-1.792-9.779-5.376-13.363s-8.038-5.376-13.363-5.376c-2.867 0-5.683 0.461-8.448 1.382s-4.762 2.202-5.99 3.84l-112.742 143.155v-131.174c0-4.915-1.587-9.011-4.762-12.288s-7.322-4.915-12.442-4.915c-4.915 0-8.909 1.638-11.981 4.915s-4.608 7.373-4.608 12.288v179.098c0 5.325 1.792 9.779 5.376 13.363s8.038 5.376 13.363 5.376c3.072 0 6.093-0.614 9.062-1.843s5.171-2.867 6.605-4.915l111.821-142.541v132.096c0 4.915 1.587 9.011 4.762 12.288s7.219 4.915 12.134 4.915zM1007.104 104.482c1.229-1.638 2.253-3.635 3.072-5.99s1.229-4.557 1.229-6.605c0-5.53-2.099-10.138-6.298-13.824s-9.062-5.53-14.592-5.53c-2.662 0-5.222 0.614-7.68 1.843s-4.506 2.97-6.144 5.222l-66.662 87.859-29.184-27.955v-48.23c0-5.53-1.792-10.035-5.376-13.517s-8.243-5.222-13.978-5.222c-5.53 0-10.086 1.792-13.67 5.376s-5.376 8.038-5.376 13.363v177.562c0 5.325 1.843 9.779 5.53 13.363s8.397 5.376 14.131 5.376c5.53 0 10.035-1.741 13.517-5.222s5.222-7.987 5.222-13.517v-83.558l98.304 96.768c4.71 4.71 9.728 7.066 15.053 7.066 4.71 0 8.704-1.946 11.981-5.837s4.915-7.987 4.915-12.288c0-4.301-1.843-8.294-5.53-11.981l-66.97-63.898 68.506-90.624zM1082.061 91.273c0-5.325-1.946-9.779-5.837-13.363s-8.397-5.376-13.517-5.376c-5.53 0-10.086 1.792-13.67 5.376s-5.376 8.038-5.376 13.363v177.562c0 5.325 1.843 9.779 5.53 13.363s8.397 5.376 14.131 5.376c5.12 0 9.523-1.792 13.21-5.376s5.53-8.038 5.53-13.363v-177.562zM1291.264 287.573c4.915 0 8.909-1.638 11.981-4.915s4.608-7.373 4.608-12.288v-179.098c0-5.325-1.792-9.779-5.376-13.363s-8.038-5.376-13.363-5.376c-2.867 0-5.683 0.461-8.448 1.382s-4.762 2.202-5.99 3.84l-112.742 143.155v-131.174c0-4.915-1.587-9.011-4.762-12.288s-7.322-4.915-12.442-4.915c-4.915 0-8.909 1.638-11.981 4.915s-4.608 7.373-4.608 12.288v179.098c0 5.325 1.792 9.779 5.376 13.363s8.038 5.376 13.363 5.376c3.072 0 6.093-0.614 9.062-1.843s5.171-2.867 6.605-4.915l111.821-142.541v132.096c0 4.915 1.587 9.011 4.762 12.288s7.219 4.915 12.134 4.915zM1512.448 188.655c5.325 0 9.728-1.792 13.21-5.376s5.222-8.038 5.222-13.363v-65.126c0-7.168-3.174-12.698-9.523-16.589-20.070-12.493-42.086-18.739-66.048-18.739-20.275 0-39.014 4.966-56.218 14.899s-30.822 23.347-40.858 40.243c-10.035 16.896-15.053 35.379-15.053 55.45s5.018 38.554 15.053 55.45c10.035 16.896 23.654 30.31 40.858 40.243s35.942 14.899 56.218 14.899c20.275 0 37.888-4.096 52.838-12.288 3.072-1.638 5.376-3.789 6.912-6.451s2.304-5.53 2.304-8.602c0-5.12-1.69-9.574-5.069-13.363s-7.526-5.683-12.442-5.683c-3.072 0-6.451 0.819-10.138 2.458-11.059 4.71-22.528 7.066-34.406 7.066-13.107 0-25.19-3.328-36.25-9.984s-19.814-15.616-26.266-26.88c-6.451-11.264-9.677-23.552-9.677-36.864s3.226-25.6 9.677-36.864c6.451-11.264 15.206-20.224 26.266-26.88s23.142-9.984 36.25-9.984c5.734 0 11.878 0.512 18.432 1.536s12.288 2.355 17.203 3.994v39.936h-28.877c-5.325 0-9.779 1.741-13.363 5.222s-5.376 7.885-5.376 13.21c0 5.325 1.792 9.728 5.376 13.21s8.038 5.222 13.363 5.222h50.381z" />
<glyph unicode="&#xe902;" horiz-adv-x="1707" d="M1214.745 823.467h-223.36c-7.762 0-14.055-6.418-14.055-14.33s6.294-14.33 14.055-14.33h92.63c6.544-62.501 55.38-112.294 116.676-118.966v-114.348c-61.298-6.672-110.131-56.467-116.676-118.966h-427.23c-6.542 62.499-55.377 112.292-116.676 118.966v114.348c61.298 6.672 110.132 56.467 116.676 118.966h243.355c7.762 0 14.055 6.418 14.055 14.33s-6.294 14.33-14.055 14.33h-374.086c-7.76 0-14.055-6.417-14.055-14.33v-380.939c0-7.914 6.294-14.33 14.055-14.33h688.691c7.762 0 14.055 6.418 14.055 14.33v380.939c0 7.915-6.294 14.33-14.055 14.33zM540.109 794.806h88.339c-6.252-46.671-42.566-83.696-88.339-90.071v90.071zM540.109 442.528v90.071c45.773-6.375 82.085-43.401 88.339-90.071h-88.339zM1200.691 442.528h-88.337c6.252 46.671 42.566 83.696 88.337 90.071v-90.071zM1200.691 704.735c-45.773 6.375-82.085 43.401-88.337 90.071h88.337v-90.071zM871.145 752.731c72.5 0 131.484-60.141 131.484-134.064s-58.983-134.064-131.484-134.064c-72.5 0-131.484 60.141-131.484 134.064s58.983 134.064 131.484 134.064zM871.145 513.265c57.001 0 103.375 47.282 103.373 105.402 0 58.12-46.372 105.402-103.373 105.402s-103.373-47.282-103.373-105.402c0-58.12 46.372-105.402 103.373-105.402zM875.53 632.999c21.321 0 38.665-17.685 38.665-39.424 0-18.336-12.338-33.786-28.995-38.175v-8.989c0-7.912-6.294-14.33-14.055-14.33s-14.055 6.417-14.055 14.33v7.738h-2.178c-7.76 0-14.055 6.417-14.055 14.33s6.293 14.33 14.055 14.33h20.619c5.82 0 10.555 4.828 10.555 10.762s-4.735 10.762-10.555 10.762h-8.784c-21.322 0-38.667 17.685-38.667 39.424 0 18.339 12.348 33.794 29.011 38.178v8.985c0 7.913 6.294 14.332 14.055 14.332s14.055-6.417 14.055-14.33v-7.738h2.178c7.76 0 14.055-6.417 14.055-14.33s-6.293-14.33-14.055-14.33h-20.633c-5.821 0-10.556-4.828-10.556-10.762s4.735-10.762 10.556-10.762h8.784zM945.359 821.207c-18.087 0-18.117-28.661 0-28.661 18.088 0 18.119 28.661 0 28.661z" />
<glyph unicode="&#xe903;" horiz-adv-x="1707" d="M647.373 277.129c6.349-3.277 9.523-8.499 9.523-15.667 0-4.301-1.536-8.499-4.608-12.595-3.277-4.301-7.475-6.451-12.595-6.451-3.482 0-6.963 0.922-10.445 2.765-10.035 4.71-20.89 7.066-32.563 7.066-14.336 0-26.829-3.021-37.478-9.062s-18.842-14.541-24.576-25.498c-5.734-10.957-8.602-23.501-8.602-37.632 0-24.167 6.502-42.496 19.507-54.989s30.054-18.739 51.149-18.739c12.493 0 23.347 2.355 32.563 7.066 3.686 1.638 6.963 2.458 9.83 2.458 5.325 0 9.83-2.253 13.517-6.758 3.072-3.891 4.608-8.090 4.608-12.595 0-3.277-0.819-6.246-2.458-8.909s-3.994-4.71-7.066-6.144c-15.974-7.987-32.973-11.981-50.995-11.981-20.070 0-38.502 4.25-55.296 12.749s-30.208 21.043-40.243 37.632c-10.035 16.589-15.053 36.659-15.053 60.211 0 20.89 4.762 39.629 14.285 56.218s22.682 29.542 39.475 38.861c16.794 9.318 35.737 13.978 56.832 13.978 18.227 0 35.123-3.994 50.688-11.981zM858.112 96.495c1.024-2.662 1.536-5.12 1.536-7.373 0-5.325-1.741-9.677-5.222-13.056s-7.475-5.069-11.981-5.069c-3.686 0-7.014 1.126-9.984 3.379s-5.274 5.325-6.912 9.216l-15.974 37.171h-91.546l-15.974-37.478c-1.434-3.891-3.635-6.912-6.605-9.062s-6.195-3.226-9.677-3.226c-5.325 0-9.37 1.434-12.134 4.301s-4.147 6.758-4.147 11.674c0 1.843 0.307 3.789 0.922 5.837l76.493 183.706c1.638 4.096 4.096 7.27 7.373 9.523s6.963 3.174 11.059 2.765c3.686 0 7.117-1.075 10.291-3.226s5.478-5.171 6.912-9.062l75.571-180.019zM733.082 156.092h61.44l-31.027 71.885-30.413-71.885zM954.88 69.461c-14.746 0-27.853 1.843-39.322 5.53s-22.221 9.933-32.256 18.739c-5.53 4.915-8.294 10.342-8.294 16.282 0 4.71 1.741 8.858 5.222 12.442s7.68 5.376 12.595 5.376c3.891 0 7.373-1.229 10.445-3.686 8.192-6.758 16.179-11.674 23.962-14.746s16.998-4.608 27.648-4.608c11.469 0 21.35 2.56 29.645 7.68s12.442 11.469 12.442 19.046c0 9.216-4.096 16.435-12.288 21.658s-21.197 9.165-39.014 11.827c-44.851 6.554-67.277 27.443-67.277 62.669 0 12.902 3.379 24.115 10.138 33.638s15.974 16.794 27.648 21.811c11.674 5.018 24.678 7.526 39.014 7.526 12.902 0 25.037-1.946 36.403-5.837s20.838-9.011 28.416-15.36c5.939-4.71 8.909-10.138 8.909-16.282 0-4.71-1.741-8.858-5.222-12.442s-7.578-5.376-12.288-5.376c-3.072 0-5.837 0.922-8.294 2.765-5.325 4.301-12.749 8.243-22.272 11.827s-18.074 5.376-25.651 5.376c-12.902 0-22.886-2.406-29.952-7.219s-10.598-11.11-10.598-18.893c0-8.806 3.635-15.462 10.906-19.968s18.688-8.192 34.253-11.059c17.613-3.072 31.693-7.014 42.24-11.827s18.483-11.366 23.808-19.661c5.325-8.294 7.987-19.302 7.987-33.024 0-12.902-3.635-24.218-10.906-33.946s-16.947-17.203-29.030-22.426c-12.083-5.222-25.088-7.834-39.014-7.834zM1224.909 287.573c5.734 0 10.342-1.741 13.824-5.222s5.222-7.987 5.222-13.517v-177.562c0-5.325-1.843-9.779-5.53-13.363s-8.397-5.376-14.131-5.376c-5.12 0-9.523 1.792-13.21 5.376s-5.53 8.038-5.53 13.363v71.578h-97.997v-71.578c0-5.325-1.946-9.779-5.837-13.363s-8.397-5.376-13.517-5.376c-5.53 0-10.086 1.792-13.67 5.376s-5.376 8.038-5.376 13.363v177.562c0 5.325 1.843 9.779 5.53 13.363s8.397 5.376 14.131 5.376c5.12 0 9.523-1.792 13.21-5.376s5.53-8.038 5.53-13.363v-70.656h97.997v70.656c0 5.325 1.946 9.779 5.837 13.363s8.397 5.376 13.517 5.376z" />
<glyph unicode="&#xe904;" horiz-adv-x="1707" d="M512.688 788.952c-72.671 0-128.688-47.291-128.688-129.669v-234.929c6.056-28.985 36.335-50.342 69.643-50.342 37.849 0 65.101 27.459 65.101 61.020v118.99h102.951v-117.464c0-65.597-83.269-99.158-143.828-99.158-34.822 0-68.129 10.679-92.353 28.985v-259.337h163.51c57.531 0 124.146 54.918 124.146 125.092v556.812h-160.482z" />
<glyph unicode="&#xe905;" horiz-adv-x="1707" d="M384 659.283v-234.929c6.056-28.985 36.335-50.342 69.643-50.342 37.849 0 65.101 27.459 65.101 61.020v118.99h102.951v-117.464c0-65.597-83.269-99.158-143.828-99.158-34.822 0-68.129 10.679-92.353 28.985v-259.337h163.51c57.531 0 124.146 54.918 124.146 125.092v556.812z" />
<glyph unicode="&#xe906;" horiz-adv-x="1707" d="M620.181 554.023v-117.464c0-65.597-83.269-99.158-143.828-99.158-34.822 0-68.129 10.679-92.353 28.985v-259.337h163.51c57.531 0 124.146 54.918 124.146 125.092z" />
<glyph unicode="&#xe907;" horiz-adv-x="1707" d="M1084.972 377.064h71.157c18.168 0 34.822 16.781 34.822 35.087s-16.654 35.087-34.822 35.087h-71.157v-70.174z" />
<glyph unicode="&#xe908;" horiz-adv-x="1707" d="M1165.213 788.952c-74.185 0-128.688-47.291-128.688-128.143v-106.786h190.761c27.252 0 49.961-22.883 49.961-50.342s-22.71-50.342-49.961-50.342c30.28 0 54.503-21.357 54.503-48.816s-22.71-48.816-54.503-48.816h-192.275v-248.658h163.51c57.531 0 124.146 54.918 124.146 125.092v556.812h-157.454z" />
<glyph unicode="&#xe909;" horiz-adv-x="1707" d="M1035.011 659.283v-105.26h190.761c27.252 0 49.961-22.883 49.961-50.342s-22.71-50.342-49.961-50.342c30.28 0 54.503-21.357 54.503-48.816s-22.71-48.816-54.503-48.816h-190.761v-248.658h163.51c57.531 0 124.146 54.918 124.146 125.092v556.812z" />
<glyph unicode="&#xe90a;" horiz-adv-x="1707" d="M1275.733 503.681c0-27.459-22.71-50.342-49.961-50.342 30.28 0 54.503-21.357 54.503-48.816s-22.71-48.816-54.503-48.816h-190.761v-248.658h163.51c57.531 0 124.146 54.918 124.146 125.092z" />
<glyph unicode="&#xe90b;" horiz-adv-x="1707" d="M1189.437 497.579c0 18.306-16.654 35.087-34.822 35.087h-69.643v-68.648h71.157c18.168 0 33.308 15.255 33.308 33.561z" />
<glyph unicode="&#xe90c;" horiz-adv-x="1707" d="M836.68 788.952c-74.185 0-128.688-47.291-128.688-128.143v-131.194c18.168 15.255 40.877 25.934 65.101 25.934h172.594v-36.612c-40.877 9.153-80.241 13.73-99.923 13.73-42.391 0-77.213-35.087-77.213-77.801s34.822-77.801 77.213-77.801c19.682 0 59.045 3.051 99.923 12.204v-33.561h-172.594c-24.224 0-48.447 9.153-65.101 25.934v-274.592h163.51c57.531 0 124.146 54.918 124.146 125.092v556.812h-158.968z" />
<glyph unicode="&#xe90d;" horiz-adv-x="1707" d="M707.991 659.283v-131.194c18.168 15.255 40.877 25.934 65.101 25.934h172.594v-36.612c-40.877 9.153-80.241 13.73-99.923 13.73-42.391 0-77.213-35.087-77.213-77.801s34.822-77.801 77.213-77.801c19.682 0 59.045 3.051 99.923 12.204v-32.036h-172.594c-24.224 0-48.447 9.153-65.101 25.934v-274.592h163.51c57.531 0 124.146 54.918 124.146 125.092v556.812z" />
<glyph unicode="&#xe90e;" horiz-adv-x="1707" d="M945.686 554.023v-36.612c-40.877 9.153-80.241 13.73-99.923 13.73-42.391 0-77.213-35.087-77.213-77.801s34.822-77.801 77.213-77.801c19.682 0 59.045 3.051 99.923 12.204v-32.036h-172.594c-24.224 0-48.447 9.153-65.101 25.934v-274.592h163.51c57.531 0 124.146 54.918 124.146 125.092z" />
<glyph unicode="&#xe90f;" horiz-adv-x="1707" d="M1408 448c0-186.835-147.911-339.537-332.8-339.537-183.128 0-332.8 152.702-332.8 339.537s147.911 339.537 331.039 339.537c186.65 0 334.561-152.702 334.561-339.537z" />
<glyph unicode="&#xe910;" horiz-adv-x="1707" d="M1075.2 787.537c183.128 0 332.8-152.702 332.8-339.537s-147.911-339.537-332.8-339.537c-183.128 0-332.8 152.702-332.8 339.537z" />
<glyph unicode="&#xe911;" horiz-adv-x="1707" d="M1075.2 787.537c183.128 0 332.8-152.702 332.8-339.537s-147.911-339.537-332.8-339.537z" />
<glyph unicode="&#xe912;" horiz-adv-x="1707" d="M627.945 787.537c-181.367-1.796-329.278-152.702-329.278-339.537s147.911-339.537 332.8-339.537c86.281 0 163.759 34.133 223.628 88.028 12.326 10.779 22.891 23.354 33.456 35.93h-68.673c-8.804 10.779-17.608 23.354-24.652 34.133h117.977c7.043 10.779 14.087 23.354 19.369 35.93h-156.715c-5.283 10.779-10.565 23.354-14.087 35.93h183.128c10.565 34.133 17.608 70.063 17.608 107.789 0 25.151-3.522 48.505-7.043 71.86h-204.258c1.761 12.575 5.283 23.354 8.804 35.93h183.128c-3.522 12.575-8.804 25.151-14.087 35.93h-154.954c5.283 12.575 12.326 23.354 19.369 35.93h117.977c-7.043 12.575-15.848 25.151-26.413 35.93h-65.151c10.565 12.575 21.13 23.354 33.456 34.133-58.108 55.691-137.346 88.028-223.628 88.028 0 3.593 0 3.593-1.761 3.593z" />
<glyph unicode="&#xe913;" horiz-adv-x="1707" d="M298.667 448c0-186.835 147.911-339.537 332.8-339.537 86.281 0 163.759 34.133 223.628 88.028 12.326 10.779 22.891 23.354 33.456 35.93h-68.673c-8.804 10.779-17.608 23.354-24.652 34.133h117.977c7.043 10.779 14.087 23.354 19.369 35.93h-156.715c-5.283 10.779-10.565 23.354-14.087 35.93h183.128c10.565 34.133 17.608 70.063 17.608 107.789 0 25.151-3.522 48.505-7.043 71.86h-204.258c1.761 12.575 5.283 23.354 8.804 35.93h183.128c-3.522 12.575-8.804 25.151-14.087 35.93h-154.954c5.283 12.575 12.326 23.354 19.369 35.93h117.977c-7.043 12.575-15.848 25.151-26.413 35.93h-65.151c10.565 12.575 21.13 23.354 33.456 34.133-58.108 55.691-137.346 88.028-223.628 88.028h-1.761z" />
<glyph unicode="&#xe914;" horiz-adv-x="1707" d="M631.467 108.463c86.281 0 163.759 34.133 223.628 88.028 12.326 10.779 22.891 23.354 33.456 35.93h-68.673c-8.804 10.779-17.608 23.354-24.652 34.133h117.977c7.043 10.779 14.087 23.354 19.369 35.93h-156.715c-5.283 10.779-10.565 23.354-14.087 35.93h183.128c10.565 34.133 17.608 70.063 17.608 107.789 0 25.151-3.522 48.505-7.043 71.86h-204.258c1.761 12.575 5.283 23.354 8.804 35.93h183.128c-3.522 12.575-8.804 25.151-14.087 35.93h-154.954c5.283 12.575 12.326 23.354 19.369 35.93h117.977c-7.043 12.575-15.848 25.151-26.413 35.93h-65.151c10.565 12.575 21.13 23.354 33.456 34.133-58.108 55.691-137.346 88.028-223.628 88.028h-1.761z" />
<glyph unicode="&#xe915;" horiz-adv-x="1707" d="M749.443 361.768l5.283 30.54c-1.761 0-5.283-1.796-8.804-1.796-12.326 0-14.087 7.186-12.326 10.779l10.565 62.877h19.369l5.283 34.133h-17.608l3.522 21.558h-35.217c0 0-21.13-118.568-21.13-132.94 0-21.558 12.326-30.54 28.174-30.54 10.565 0 19.369 3.593 22.891 5.389z" />
<glyph unicode="&#xe916;" horiz-adv-x="1707" d="M761.769 419.256c0-50.302 33.456-62.877 61.63-62.877 26.413 0 36.978 5.389 36.978 5.389l7.043 34.133c0 0-19.369-8.982-36.978-8.982-38.739 0-31.695 28.744-31.695 28.744h72.195c0 0 5.283 23.354 5.283 32.337 0 23.354-12.326 52.098-51.065 52.098-36.978 3.593-63.39-35.93-63.39-80.842zM823.399 471.354c19.369 0 15.848-23.354 15.848-25.151h-38.739c0 1.796 3.522 25.151 22.891 25.151z" />
<glyph unicode="&#xe917;" horiz-adv-x="1707" d="M1047.026 361.768l7.043 39.523c0 0-17.608-8.982-29.934-8.982-24.652 0-35.217 19.761-35.217 41.319 0 43.116 21.13 66.47 45.782 66.47 17.608 0 31.695-10.779 31.695-10.779l5.283 37.726c0 0-21.13 8.982-40.499 8.982-40.499 0-80.999-35.93-80.999-104.196 0-44.912 21.13-75.453 63.39-75.453 14.087 0 33.456 5.389 33.456 5.389z" />
<glyph unicode="&#xe918;" horiz-adv-x="1707" d="M555.75 503.691c-24.652 0-42.26-7.186-42.26-7.186l-5.283-30.54c0 0 15.848 7.186 38.739 7.186 12.326 0 22.891-1.796 22.891-12.575 0-7.186-1.761-8.982-1.761-8.982s-10.565 0-15.848 0c-29.934 0-63.39-12.575-63.39-53.895 0-32.337 21.13-39.523 33.456-39.523 24.652 0 35.217 16.168 36.978 16.168l-1.761-14.372h31.695l14.087 98.807c0 43.116-35.217 44.912-47.543 44.912zM562.794 422.849c0-5.389-3.522-34.133-24.652-34.133-10.565 0-14.087 8.982-14.087 14.372 0 8.982 5.283 21.558 31.695 21.558 5.283-1.796 7.043-1.796 7.043-1.796z" />
<glyph unicode="&#xe919;" horiz-adv-x="1707" d="M636.749 358.175c8.804 0 52.825-1.796 52.825 46.709 0 44.912-42.26 35.93-42.26 53.895 0 8.982 7.043 12.575 19.369 12.575 5.283 0 24.652-1.796 24.652-1.796l5.283 32.337c0 0-12.326 3.593-33.456 3.593-26.413 0-52.825-10.779-52.825-46.709 0-41.319 44.021-37.726 44.021-53.895 0-10.779-12.326-12.575-21.13-12.575-15.848 0-31.695 5.389-31.695 5.389l-5.283-32.337c1.761-3.593 10.565-7.186 40.499-7.186z" />
<glyph unicode="&#xe91a;" horiz-adv-x="1707" d="M1339.327 532.435l-7.043-48.505c0 0-14.087 17.965-33.456 17.965-31.695 0-59.869-39.523-59.869-86.232 0-28.744 14.087-59.284 44.021-59.284 21.13 0 33.456 14.372 33.456 14.372l-1.761-12.575h35.217l26.413 172.463-36.978 1.796zM1323.479 437.221c0-19.761-8.804-44.912-28.174-44.912-12.326 0-19.369 10.779-19.369 28.744 0 28.744 12.326 46.709 28.174 46.709 12.326 0 19.369-8.982 19.369-30.54z" />
<glyph unicode="&#xe91b;" horiz-adv-x="1707" d="M363.818 359.972l21.13 129.347 3.522-129.347h24.652l45.782 129.347-19.369-129.347h36.978l28.174 172.463h-58.108l-35.217-105.993-1.761 105.993h-51.065l-28.174-172.463z" />
<glyph unicode="&#xe91c;" horiz-adv-x="1707" d="M909.68 359.972c10.565 59.284 12.326 107.789 36.978 98.807 3.522 23.354 8.804 32.337 12.326 41.319 0 0-1.761 0-7.043 0-15.848 0-28.174-21.558-28.174-21.558l3.522 19.761h-33.456l-22.891-140.126h38.739v1.796z" />
<glyph unicode="&#xe91d;" horiz-adv-x="1707" d="M1128.025 503.691c-24.652 0-42.26-7.186-42.26-7.186l-5.283-30.54c0 0 15.848 7.186 38.739 7.186 12.326 0 22.891-1.796 22.891-12.575 0-7.186-1.761-8.982-1.761-8.982s-10.565 0-15.848 0c-29.934 0-63.39-12.575-63.39-53.895 0-32.337 21.13-39.523 33.456-39.523 24.652 0 35.217 16.168 36.978 16.168l-1.761-14.372h31.695l14.087 98.807c1.761 43.116-35.217 44.912-47.543 44.912zM1136.83 422.849c0-5.389-3.522-34.133-24.652-34.133-10.565 0-14.087 8.982-14.087 14.372 0 8.982 5.283 21.558 31.695 21.558 5.283-1.796 5.283-1.796 7.043-1.796z" />
<glyph unicode="&#xe91e;" horiz-adv-x="1707" d="M1205.503 359.972c10.565 59.284 12.326 107.789 36.978 98.807 3.522 23.354 8.804 32.337 12.326 41.319 0 0-1.761 0-7.043 0-15.848 0-28.174-21.558-28.174-21.558l3.522 19.761h-33.456l-22.891-140.126h38.739v1.796z" />
<glyph unicode="&#xe91f;" horiz-adv-x="1707" d="M694.857 386.919c0-21.558 12.326-30.54 28.174-30.54 12.326 0 22.891 3.593 26.413 5.389l5.283 30.54c-1.761 0-5.283-1.796-8.804-1.796-12.326 0-14.087 7.186-12.326 10.779l10.565 62.877h19.369l5.283 34.133h-17.608l3.522 21.558z" />
<glyph unicode="&#xe920;" horiz-adv-x="1707" d="M779.378 419.256c0-50.302 15.848-62.877 44.021-62.877 26.413 0 36.978 5.389 36.978 5.389l7.043 34.133c0 0-19.369-8.982-36.978-8.982-38.739 0-31.695 28.744-31.695 28.744h72.195c0 0 5.283 23.354 5.283 32.337 0 23.354-12.326 52.098-51.065 52.098-36.978 3.593-45.782-35.93-45.782-80.842zM823.399 471.354c19.369 0 22.891-23.354 22.891-25.151h-45.782c0 1.796 3.522 25.151 22.891 25.151z" />
<glyph unicode="&#xe921;" horiz-adv-x="1707" d="M1047.026 361.768l7.043 39.523c0 0-17.608-8.982-29.934-8.982-24.652 0-35.217 19.761-35.217 41.319 0 43.116 21.13 66.47 45.782 66.47 17.608 0 31.695-10.779 31.695-10.779l5.283 37.726c0 0-21.13 8.982-40.499 8.982-40.499 0-63.39-35.93-63.39-104.196 0-44.912 3.522-75.453 45.782-75.453 14.087 0 33.456 5.389 33.456 5.389z" />
<glyph unicode="&#xe922;" horiz-adv-x="1707" d="M508.207 464.168c0 0 15.848 7.186 38.739 7.186 12.326 0 22.891-1.796 22.891-12.575 0-7.186-1.761-8.982-1.761-8.982s-10.565 0-15.848 0c-29.934 0-63.39-12.575-63.39-53.895 0-32.337 21.13-39.523 33.456-39.523 24.652 0 35.217 16.168 36.978 16.168l-1.761-14.372h31.695l14.087 98.807c0 41.319-35.217 43.116-49.304 43.116l-45.782-35.93zM580.402 422.849c0-5.389-21.13-34.133-42.26-34.133-10.565 0-14.087 8.982-14.087 14.372 0 8.982 5.283 21.558 31.695 21.558 5.283-1.796 24.652-1.796 24.652-1.796z" />
<glyph unicode="&#xe923;" horiz-adv-x="1707" d="M598.011 361.768c0 0 10.565-3.593 40.499-3.593 8.804 0 52.825-1.796 52.825 46.709 0 44.912-42.26 35.93-42.26 53.895 0 8.982 7.043 12.575 19.369 12.575 5.283 0 24.652-1.796 24.652-1.796l5.283 32.337c0 0-12.326 3.593-33.456 3.593-26.413 0-35.217-10.779-35.217-46.709 0-41.319 26.413-37.726 26.413-53.895 0-10.779-12.326-12.575-21.13-12.575z" />
<glyph unicode="&#xe924;" horiz-adv-x="1707" d="M1332.284 483.93c0 0-14.087 17.965-33.456 17.965-31.695 0-42.26-39.523-42.26-86.232 0-28.744-3.522-59.284 26.413-59.284 21.13 0 33.456 14.372 33.456 14.372l-1.761-12.575h35.217l26.413 172.463-44.021-46.709zM1330.523 437.221c0-19.761-15.848-44.912-35.217-44.912-12.326 0-19.369 10.779-19.369 28.744 0 28.744 12.326 46.709 28.174 46.709 12.326 0 26.413-8.982 26.413-30.54z" />
<glyph unicode="&#xe925;" horiz-adv-x="1707" d="M363.818 359.972l21.13 129.347 3.522-129.347h24.652l45.782 129.347-19.369-129.347h36.978l28.174 172.463h-44.021l-49.304-105.993-1.761 105.993h-19.369l-59.869-172.463z" />
<glyph unicode="&#xe926;" horiz-adv-x="1707" d="M872.703 359.972h36.978c10.565 59.284 12.326 107.789 36.978 98.807 3.522 23.354 8.804 32.337 12.326 41.319 0 0-1.761 0-7.043 0-15.848 0-28.174-21.558-28.174-21.558l3.522 19.761z" />
<glyph unicode="&#xe927;" horiz-adv-x="1707" d="M1080.483 464.168c0 0 15.848 7.186 38.739 7.186 12.326 0 22.891-1.796 22.891-12.575 0-7.186-1.761-8.982-1.761-8.982s-10.565 0-15.848 0c-29.934 0-63.39-12.575-63.39-53.895 0-32.337 21.13-39.523 33.456-39.523 24.652 0 35.217 16.168 36.978 16.168l-1.761-14.372h31.695l14.087 98.807c0 41.319-35.217 43.116-49.304 43.116l-45.782-35.93zM1152.677 422.849c0-5.389-21.13-34.133-42.26-34.133-10.565 0-14.087 8.982-14.087 14.372 0 8.982 5.283 21.558 31.695 21.558 7.043-1.796 24.652-1.796 24.652-1.796z" />
<glyph unicode="&#xe928;" horiz-adv-x="1707" d="M1168.525 359.972h36.978c10.565 59.284 12.326 107.789 36.978 98.807 3.522 23.354 8.804 32.337 12.326 41.319 0 0-1.761 0-7.043 0-15.848 0-28.174-21.558-28.174-21.558l3.522 19.761z" />
<glyph unicode="&#xe929;" horiz-adv-x="1707" d="M399.466 557.152c-15.904 3.938-36.111 3.376-45.278 2.626-17.588-1.5-25.259-3.001-36.298-5.251-11.226-2.063-29.188-6.752-46.775-12.003-22.826-129.219-32.181-183.232-32.181-183.232s38.543 0 57.627 0c8.232 47.637 16.652 96.774 24.884 144.223 14.033 4.689 52.763 14.066 61.743-8.815 3.742-9.752-0.936-28.132-3.181-39.010-11.413-67.141-16.652-96.399-16.652-96.399s38.543 0 57.627 0c5.239 30.382 10.478 60.765 15.529 91.147 7.858 40.885 10.103 70.142-3.555 87.959-5.613 7.689-18.523 15.004-33.491 18.755z" />
<glyph unicode="&#xe92a;" horiz-adv-x="1707" d="M628.665 519.080c-3.742 16.879-14.407 27.007-31.62 33.383-14.594 5.439-36.485 8.815-58.75 7.877-19.833-2.063-41.536-6.377-59.685-12.566-2.245-15.004-4.49-29.82-6.736-44.823 12.349 3.001 39.104 10.127 64.363 9.377s42.846-4.314 35.362-31.695c-18.336 0-43.407-0.375-50.892-1.5-36.111-6.001-59.685-19.317-66.982-47.449-8.045-30.758 5.426-51.2 23.949-62.453 15.529-9.565 36.485-14.253 58.188-14.629 25.259-0.375 51.64 4.689 72.221 9.377 5.426 31.508 10.665 62.828 16.091 94.336 4.865 25.131 7.858 45.574 4.49 60.765zM556.444 396.8c-12.349-3.751-28.252-3.751-37.42 2.626-9.729 6.752-12.349 17.629-9.916 28.695 1.871 8.064 12.723 18.004 28.626 19.317 8.981 0.75 23.949 0.375 28.065 0-3.368-17.067-6.174-33.946-9.355-50.637z" />
<glyph unicode="&#xe92b;" horiz-adv-x="1707" d="M813.334 538.21c-18.149 16.316-41.349 22.881-78.208 22.13-23.949-3.001-40.601-5.251-69.602-17.254-15.342-88.147-30.872-176.856-46.214-265.19 19.271-0.188 38.543 0.188 57.627 0 7.671 40.697 11.787 66.579 15.529 84.396 26.568-7.314 52.575-7.689 74.279-1.5 28.065 7.877 49.395 26.069 60.247 51.012 7.297 17.067 7.671 25.506 10.478 48.387 3.929 32.258-6.361 61.89-24.136 78.019zM779.843 454.001c-2.245-13.691-9.355-31.695-20.768-41.073-15.529-12.941-42.472-11.815-59.311-3.563 5.426 30.945 11.226 62.828 16.652 93.773 4.678 1.5 10.291 4.689 22.265 6.189 14.781 1.875 28.252-3.001 35.362-12.003 8.607-10.878 8.42-27.382 5.8-43.323z" />
<glyph unicode="&#xe92c;" horiz-adv-x="1707" d="M1127.477 515.516c10.103 0.188 22.639-2.251 32.743-6.752 11.226-4.876 16.278-9.002 23.949-15.191 1.497 8.064 3.181 15.941 4.678 24.006s3.368 16.879 4.678 24.006c-19.833 14.816-52.575 20.818-73.344 18.755-20.581-2.063-30.31-6.377-42.659-12.941-17.026-9.377-26.381-23.631-29.001-41.448-2.432-16.879-0.187-36.947 13.471-50.262 7.484-7.314 23.013-15.191 40.040-19.317 15.904-3.938 25.633-8.815 26.943-14.629 1.871-7.314-0.748-13.128-3.555-16.129-6.174-6.189-23.388-7.502-36.298-4.126-30.872 7.877-37.046 17.817-48.833 24.568-1.123-6.189-5.8-31.883-8.232-48.387 12.349-9.752 25.259-14.629 42.659-19.317 20.581-5.439 51.453-5.064 74.84 4.689 19.646 8.252 32.556 22.881 36.859 45.761 4.116 21.755-2.058 38.447-10.852 48.387-11.413 12.941-28.252 18.004-43.22 22.881-13.471 4.314-24.884 7.127-26.568 16.129-2.619 13.128 9.916 19.13 21.704 19.317z" />
<glyph unicode="&#xe92d;" horiz-adv-x="1707" d="M1229.26 557.152h99.164l86.815-102.588h-99.164z" />
<glyph unicode="&#xe92e;" horiz-adv-x="1707" d="M1415.239 454.564h-99.164l-101.783-95.273h99.164z" />
<glyph unicode="&#xe92f;" horiz-adv-x="1707" d="M1315.514 454.564h99.725l-49.956-131.282h-99.725z" />
<glyph unicode="&#xe930;" horiz-adv-x="1707" d="M1500.557 535.209h-99.164l-86.254-80.645h99.164z" />
<glyph unicode="&#xe931;" horiz-adv-x="1707" d="M1315.514 617.541h99.725v-162.977h-99.725z" />
<glyph unicode="&#xe932;" horiz-adv-x="1707" d="M1314.953 454.564h99.164l81.015-95.273h-99.164z" />
<glyph unicode="&#xe933;" horiz-adv-x="1707" d="M1025.133 519.080c-3.742 16.879-14.407 27.007-31.62 33.383-14.594 5.439-36.485 8.815-58.75 7.877-19.833-2.063-41.536-6.377-59.685-12.566-2.245-15.004-4.49-29.82-6.736-44.823 12.349 3.001 39.104 10.127 64.363 9.377s42.846-4.314 35.362-31.695c-18.336 0-43.407-0.375-50.892-1.5-36.111-6.001-59.685-19.317-66.982-47.449-8.045-30.758 5.426-51.2 23.949-62.453 15.529-9.565 36.485-14.253 58.188-14.629 25.259-0.375 51.64 4.689 72.221 9.377 5.426 31.508 10.665 62.828 16.091 94.336 4.865 25.131 7.858 45.574 4.49 60.765zM952.912 396.8c-12.349-3.751-28.252-3.751-37.42 2.626-9.729 6.752-12.349 17.629-9.916 28.695 1.871 8.064 12.723 18.004 28.626 19.317 8.981 0.75 23.949 0.375 28.065 0-3.368-17.067-6.174-33.946-9.355-50.637z" />
<glyph unicode="&#xe934;" horiz-adv-x="1707" d="M640 246.137l65.016 359.065h101.587l-62.984-359.065z" />
<glyph unicode="&#xe935;" horiz-adv-x="1707" d="M640 246.137l83.302 359.065h83.302l-62.984-359.065z" />
<glyph unicode="&#xe936;" horiz-adv-x="1707" d="M1111.365 601.212c-20.317 7.979-52.825 15.958-93.46 15.958-101.587 0-174.73-49.87-174.73-121.683 0-53.86 50.794-81.787 91.429-99.74s52.825-29.922 52.825-45.881c0-23.938-32.508-35.906-60.952-35.906-40.635 0-62.984 5.984-97.524 19.948l-14.222 5.984-14.222-81.787c24.381-9.974 69.079-19.948 115.81-19.948 107.683 0 178.794 49.87 178.794 125.673 0 41.891-26.413 73.808-87.365 99.74-36.571 17.953-58.921 27.927-58.921 45.881 0 15.958 18.286 31.917 58.921 31.917 34.54 0 58.921-5.984 77.206-13.964l10.159-3.99 16.254 77.797z" />
<glyph unicode="&#xe937;" horiz-adv-x="1707" d="M1111.365 601.212c-20.317 7.979-52.825 15.958-93.46 15.958-101.587 0-156.444-49.87-156.444-121.683 0-53.86 32.508-81.787 73.143-99.74s52.825-29.922 52.825-45.881c0-23.938-32.508-35.906-60.952-35.906-40.635 0-62.984 5.984-97.524 19.948l-14.222 5.984-14.222-81.787c24.381-9.974 69.079-19.948 115.81-19.948 107.683 0 178.794 49.87 178.794 125.673 0 41.891-26.413 73.808-87.365 99.74-36.571 17.953-58.921 27.927-58.921 45.881 0 15.958 18.286 31.917 58.921 31.917 34.54 0 58.921-5.984 77.206-13.964l10.159-3.99 16.254 77.797z" />
<glyph unicode="&#xe938;" horiz-adv-x="1707" d="M1286.095 605.202c-24.381 0-42.667-1.995-52.825-25.932l-152.381-333.132h109.714l20.317 59.844h130.032l12.19-59.844h97.524l-85.333 359.065h-79.238zM1239.365 365.825c6.095 17.953 40.635 105.725 40.635 105.725s8.127 21.943 14.222 35.906l6.095-33.912c0 0 20.317-89.766 24.381-109.714h-85.333v1.995z" />
<glyph unicode="&#xe939;" horiz-adv-x="1707" d="M1310.476 605.202c-24.381 0-42.667-1.995-52.825-25.932l-176.762-333.132h109.714l20.317 59.844h130.032l12.19-59.844h97.524l-85.333 359.065h-54.857zM1239.365 365.825c8.127 19.948 40.635 105.725 40.635 105.725s8.127 21.943 14.222 35.906l6.095-33.912c0 0 20.317-89.766 24.381-109.714h-85.333v1.995z" />
<glyph unicode="&#xe93a;" horiz-adv-x="1707" d="M453.079 353.856l-10.159 51.865c-18.286 59.844-77.206 125.673-142.222 157.59l91.429-319.169h109.714l164.571 359.065h-109.714l-103.619-249.351z" />
<glyph unicode="&#xe93b;" horiz-adv-x="1707" d="M453.079 353.856l-10.159 51.865c-18.286 59.844-77.206 125.673-142.222 157.59l91.429-319.169h109.714l164.571 359.065h-89.397l-123.937-249.351z" />
<glyph unicode="&#xe93c;" horiz-adv-x="1707" d="M170.667 605.202l18.286-3.99c130.032-29.922 219.429-105.725 253.968-195.491l-36.571 169.558c-6.095 23.938-24.381 29.922-46.73 29.922h-188.952z" />
<glyph unicode="&#xe93d;" horiz-adv-x="1707" d="M170.667 605.202c130.032-29.922 237.714-107.719 272.254-197.486l-34.54 141.631c-6.095 23.938-26.413 37.901-48.762 37.901l-188.952 17.953z" />
<glyph unicode="&#xe93e;" horiz-adv-x="1707" d="M170.667 605.202c130.032-29.922 237.714-107.719 272.254-197.486l-24.381 77.797c-6.095 23.938-14.222 47.875-42.667 57.849l-205.206 61.839z" />
<glyph unicode="&#xe93f;" horiz-adv-x="1707" d="M554.667 365.825l-69.079 67.823-32.508-75.803-8.127 49.87c-18.286 59.844-77.206 125.673-142.222 157.59l91.429-319.169h109.714l50.794 119.688z" />
<glyph unicode="&#xe940;" horiz-adv-x="1707" d="M743.619 246.137l-87.365 87.771-16.254-87.771z" />
<glyph unicode="&#xe941;" horiz-adv-x="1707" d="M977.27 369.815c8.127-7.979 12.19-13.964 10.159-21.943 0-23.938-32.508-35.906-60.952-35.906-40.635 0-62.984 5.984-97.524 19.948l-14.222 5.984-14.222-81.787c24.381-9.974 69.079-19.948 115.81-19.948 65.016 0 117.841 17.953 148.317 49.87l-87.365 83.782z" />
<glyph unicode="&#xe942;" horiz-adv-x="1707" d="M1095.111 246.137h95.492l20.317 59.844h130.032l12.19-59.844h97.524l-34.54 145.621-121.905 115.699 6.095-31.917c0 0 20.317-89.766 24.381-109.714h-85.333c8.127 19.948 40.635 105.725 40.635 105.725s8.127 21.943 14.222 35.906z" />
<glyph unicode="&#xe943;" glyph-name="ArrowBack" d="M525.714 72.571l12 13.714c3.429 3.429 5.143 8 5.143 13.714s-1.714 10.857-5.143 15.429l-306.857 305.143h644.571c5.714 0 10.571 2 14.571 6s6 8.857 6 14.571v17.143c0 5.714-2 10.571-6 14.571s-8.857 6-14.571 6h-644.571l306.857 305.143c3.429 4.571 5.143 9.714 5.143 15.429s-1.714 10.286-5.143 13.714l-12 13.714c-4.571 3.429-9.714 5.143-15.429 5.143s-10.286-1.714-13.714-5.143l-361.714-363.429c-4.571-3.429-6.857-8-6.857-13.714s2.286-10.286 6.857-13.714l361.714-363.429c3.429-3.429 8-5.143 13.714-5.143s10.857 1.714 15.429 5.143z" />
<glyph unicode="&#xe944;" glyph-name="ArrowNext" d="M498.286 72.571l-12 13.714c-3.429 3.429-5.143 8-5.143 13.714s1.714 10.857 5.143 15.429l306.857 305.143h-644.571c-5.714 0-10.571 2-14.571 6s-6 8.857-6 14.571v17.143c0 5.714 2 10.571 6 14.571s8.857 6 14.571 6h644.571l-306.857 305.143c-3.429 4.571-5.143 9.714-5.143 15.429s1.714 10.286 5.143 13.714l12 13.714c4.571 3.429 9.714 5.143 15.429 5.143s10.286-1.714 13.714-5.143l361.714-363.429c4.571-3.429 6.857-8 6.857-13.714s-2.286-10.286-6.857-13.714l-361.714-363.429c-3.429-3.429-8-5.143-13.714-5.143s-10.857 1.714-15.429 5.143z" />
<glyph unicode="&#xe945;" glyph-name="Bar" d="M927.238 720.762h-830.476c-2.54 0-5.079 1.27-7.619 3.81s-3.81 5.079-3.81 7.619v45.714c0 2.54 1.27 5.079 3.81 7.619s5.079 3.81 7.619 3.81h830.476c2.54 0 5.079-1.27 7.619-3.81s3.81-5.079 3.81-7.619v-45.714c0-2.54-1.27-5.079-3.81-7.619s-5.079-3.81-7.619-3.81zM927.238 416h-830.476c-2.54 0-5.079 1.27-7.619 3.81s-3.81 5.079-3.81 7.619v45.714c0 2.54 1.27 5.079 3.81 7.619s5.079 3.81 7.619 3.81h830.476c2.54 0 5.079-1.27 7.619-3.81s3.81-5.079 3.81-7.619v-45.714c0-2.54-1.27-5.079-3.81-7.619s-5.079-3.81-7.619-3.81zM927.238 111.238h-830.476c-2.54 0-5.079 1.27-7.619 3.81s-3.81 5.079-3.81 7.619v45.714c0 2.54 1.27 5.079 3.81 7.619s5.079 3.81 7.619 3.81h830.476c2.54 0 5.079-1.27 7.619-3.81s3.81-5.079 3.81-7.619v-45.714c0-2.54-1.27-5.079-3.81-7.619s-5.079-3.81-7.619-3.81z" />
<glyph unicode="&#xe946;" glyph-name="Cart" d="M942.445 768h-689.504l-13.040 73.333c-2.173 10-6.792 18.056-13.855 24.167s-15.485 9.167-25.266 9.167h-138.553c-5.433 0-10.052-1.944-13.855-5.833s-5.705-8.611-5.705-14.167v-13.333c0-5.556 1.902-10.278 5.705-14.167s8.422-5.833 13.855-5.833h128.773l114.102-621.667c-18.474-20-27.711-44.444-27.711-73.333s10.052-53.611 30.156-74.167c20.104-20.556 44.826-30.833 74.167-30.833s54.063 10.278 74.167 30.833c20.104 20.556 30.156 45.833 30.156 75.833 0 18.889-4.89 36.667-14.67 53.333h237.985c-9.78-16.667-14.67-34.444-14.67-53.333 0-30 10.052-55.278 30.156-75.833s44.826-30.833 74.167-30.833c29.341 0 54.063 10.278 74.167 30.833s30.156 45.833 30.156 75.833c0 30-10.324 55.556-30.971 76.667-2.173 8.889-6.792 16.111-13.855 21.667s-15.485 8.333-25.266 8.333h-482.49l-19.56 106.667h541.171c8.694 0 16.572 3.056 23.635 9.167s11.682 13.611 13.855 22.5l70.091 346.667c3.26 12.222 0.815 23.333-7.335 33.333s-18.202 15-30.156 15zM799.002 181.333c14.127 0 26.352-5.278 36.676-15.833s15.485-23.056 15.485-37.5c0-14.444-5.162-26.944-15.485-37.5s-22.549-15.833-36.676-15.833c-14.127 0-26.352 5.278-36.676 15.833s-15.485 23.056-15.485 37.5c0 14.444 5.162 26.944 15.485 37.5s22.549 15.833 36.676 15.833zM381.714 181.333c14.127 0 26.352-5.278 36.676-15.833s15.485-23.056 15.485-37.5c0-14.444-5.162-26.944-15.485-37.5s-22.549-15.833-36.676-15.833c-14.127 0-26.352 5.278-36.676 15.833s-15.485 23.056-15.485 37.5c0 14.444 5.162 26.944 15.485 37.5s22.549 15.833 36.676 15.833zM860.944 394.667h-539.541l-58.681 320h663.424l-65.201-320z" />
<glyph unicode="&#xe947;" glyph-name="Check" d="M780.297 699.528l-392.012-393.502-144.582 144.582c-2.981 3.975-6.956 5.962-11.924 5.962s-9.44-1.987-13.415-5.962l-41.735-41.735c-3.975-3.975-5.962-8.446-5.962-13.415s1.987-8.943 5.962-11.924l198.242-199.732c3.975-2.981 8.446-4.472 13.415-4.472s8.943 1.491 11.924 4.472l447.162 447.162c3.975 3.975 5.962 8.446 5.962 13.415s-1.987 8.943-5.962 11.924l-41.735 43.226c-3.975 2.981-8.446 4.472-13.415 4.472s-8.943-1.491-11.924-4.472z" />
<glyph unicode="&#xe948;" glyph-name="Close" d="M552.096 448l211.277 211.277c3.084 4.112 4.627 8.739 4.627 13.879s-1.542 9.253-4.627 12.337l-13.879 13.88c-3.084 3.084-7.197 4.627-12.337 4.627s-9.767-1.542-13.88-4.627l-211.277-211.277-211.277 211.277c-4.112 3.084-8.739 4.627-13.88 4.627s-9.253-1.542-12.337-4.627l-13.879-13.88c-3.084-3.084-4.626-7.197-4.626-12.337s1.542-9.767 4.626-13.879l212.819-211.277-212.819-211.277c-3.084-4.112-4.626-8.739-4.626-13.88s1.542-9.253 4.626-12.337l13.879-13.88c3.084-3.084 7.197-4.627 12.337-4.627s9.767 1.542 13.88 4.627l211.277 212.819 211.277-212.819c4.112-3.084 8.739-4.627 13.88-4.627s9.253 1.542 12.337 4.627l13.879 13.88c3.084 3.084 4.627 7.197 4.627 12.337s-1.542 9.767-4.627 13.88l-211.277 211.277z" />
<glyph unicode="&#xe949;" glyph-name="Icon1" d="M960 481.115c0-22.685-10.076-43.029-25.939-56.686 15.862-13.658 25.939-34.001 25.939-56.684v-0.386c0-22.681-10.078-43.026-25.939-56.684 15.862-13.658 25.939-34.001 25.939-56.684v-2.222c0-22.685-10.076-43.028-25.939-56.686 15.862-13.658 25.939-34.001 25.939-56.684 0-41.024-32.968-74.401-73.491-74.401h-364.201c-44.721 0-87.246 16.080-120.855 45.474-2.163-25.438-23.292-45.474-48.972-45.474h-270.98c-9.665 0-17.5 7.934-17.5 17.717v457.919c0 9.783 7.835 17.717 17.5 17.717h270.98c22.565 0 41.613-15.472 47.374-36.485 15.353 9.551 30.056 20.065 43.899 31.465 52.001 42.831 92.932 98.085 121.653 164.226 7.836 18.047 14.077 38.418 19.079 62.277 2.585 12.336 8.405 23.569 16.831 32.479 18.512 19.574 42.039 20.752 49.1 20.681 37.863-0.096 68.637-31.336 68.637-69.724 0-7.427 0.052-14.301 0.101-20.802 0.077-10.061 0.149-19.565 0.004-28.771-0.861-54.889-15.425-107.983-42.397-155.35h209.75c40.523 0 73.489-33.377 73.489-74.401v-1.835zM366.648 491.648v15.926c0 7.909-6.356 14.344-14.168 14.344h-253.48v-422.485h154.712v154.363c0 9.783 7.835 17.717 17.5 17.717s17.5-7.934 17.5-17.717v-154.363h63.768c7.814 0 14.168 6.435 14.168 14.342v377.784c0 0.030 0 0.060 0 0.090zM838.039 406.713c-9.665 0-17.5 7.934-17.5 17.717s7.835 17.717 17.5 17.717h48.47c21.224 0 38.491 17.481 38.491 38.969h-0.002v1.835c0 21.487-17.267 38.967-38.489 38.967h-241.876c-6.568 0-12.584 3.722-15.577 9.643-2.994 5.919-2.461 13.036 1.381 18.433 34.225 48.072 52.803 104.53 53.725 163.269 0.138 8.786 0.067 18.087-0.007 27.934-0.051 6.585-0.103 13.55-0.103 21.076-0.002 18.908-15.169 34.29-33.812 34.29-0.226 0-0.429 0.007-0.739 0.007-3.029 0-14.291-0.65-22.904-9.759-3.974-4.202-6.624-9.362-7.875-15.329-5.506-26.26-12.464-48.89-21.277-69.183-30.977-71.336-75.255-131.040-131.605-177.452-19.943-16.427-41.498-31.191-64.192-43.991v-322.762l16.506-16.11c28.116-27.44 65.105-42.551 104.155-42.551h364.196c21.224 0 38.491 17.48 38.491 38.967s-17.267 38.967-38.489 38.967h-48.47c-9.665 0-17.5 7.934-17.5 17.717s7.835 17.717 17.5 17.717h48.47c21.224 0 38.491 17.481 38.491 38.969v2.222c0 21.487-17.267 38.967-38.489 38.967h-48.47c-9.665 0-17.5 7.934-17.5 17.717s7.835 17.717 17.5 17.717h48.47c21.224 0 38.491 17.48 38.491 38.967v0.386c0 21.487-17.267 38.967-38.491 38.967h-48.47zM271.217 315.404c-9.665 0-17.5 7.932-17.5 17.717s7.835 17.717 17.5 17.717c9.665 0 17.5-7.932 17.5-17.717s-7.835-17.717-17.5-17.717z" />
<glyph unicode="&#xe94a;" glyph-name="Icon2" d="M1018.944 355.371l-151.468 178.3c-3.872 4.558-9.464 7.175-15.344 7.175h-131.738v126.168c0 11.617-9.132 21.033-20.398 21.033h-293.071c-20.856 94.522-103.012 165.287-200.902 165.287-113.6 0-206.024-95.3-206.024-212.439 0-45.844 14.158-88.346 38.202-123.095v-312.818h-17.804c-11.266 0-20.398-9.416-20.398-21.033s9.132-21.033 20.398-21.033h17.804v-24.578c0-11.617 9.132-21.033 20.398-21.033h40.198c9.322-42.662 46.344-74.636 90.494-74.636s81.172 31.973 90.496 74.636l478.501-0.002c9.322-42.662 46.344-74.636 90.494-74.636s81.172 31.973 90.496 74.636h64.324c11.266 0 20.398 9.416 20.398 21.033v203.177c-0.002 5.098-1.798 10.025-5.056 13.858zM411.983 645.98h267.609v-351.848h-600.595v179.62c35.022-28.362 79.142-45.294 127.026-45.294 113.6 0 206.024 95.302 206.024 212.439 0 1.697-0.024 3.394-0.064 5.083zM40.796 640.893c0 93.945 74.12 170.373 165.228 170.373s165.228-76.428 165.228-170.373c0-93.945-74.12-170.373-165.228-170.373s-165.228 76.43-165.228 170.373zM189.292 84.733c-28.664 0-51.984 24.046-51.984 53.603s23.32 53.605 51.984 53.605c28.664 0 51.986-24.048 51.986-53.605-0.002-29.556-23.32-53.603-51.986-53.603zM679.597 159.369h-399.811c-9.322 42.664-46.344 74.638-90.496 74.638-44.15 0-81.172-31.973-90.494-74.638h-19.798v92.695h600.599v-92.695zM871.19 465.457l88.598-104.293h-88.598v104.293zM848.78 84.733c-28.664 0-51.984 24.046-51.984 53.603s23.32 53.605 51.984 53.605c28.664 0 51.986-24.048 51.986-53.605s-23.322-53.603-51.986-53.603zM983.202 159.369h-43.926c-9.322 42.664-46.344 74.638-90.496 74.638-44.15 0-81.172-31.973-90.494-74.638h-37.894v339.409h110v-158.649c0-11.617 9.132-21.033 20.398-21.033h132.41l0.002-159.727zM630.309 359.044c11.266 0 20.4-9.416 20.398-21.033 0-11.617-9.132-21.033-20.398-21.033h-171.346c-11.266 0-20.398 9.416-20.398 21.033s9.132 21.033 20.398 21.033h171.346zM395.729 359.044c11.266 0 20.398-9.416 20.398-21.033s-9.132-21.033-20.398-21.033h-12.24c-11.266 0-20.398 9.416-20.398 21.033s9.132 21.033 20.398 21.033h12.24zM265.323 609.494c7.966-8.216 7.966-21.534 0-29.746-3.982-4.108-9.204-6.16-14.424-6.16s-10.44 2.052-14.424 6.16l-44.876 46.273c-3.824 3.945-5.974 9.295-5.974 14.873v126.201c0 11.617 9.132 21.033 20.398 21.033s20.398-9.416 20.398-21.033v-117.488l38.902-40.113z" />
<glyph unicode="&#xe94b;" glyph-name="Icon3" d="M949.776 555.273h-567.622v74.454c0 11.199-9.132 20.28-20.398 20.28h-30.084v84.881c0 77.075-63.070 139.779-140.594 139.779s-140.594-62.704-140.594-139.779v-84.881h-30.086c-11.266 0.002-20.398-9.079-20.398-20.278v-279.63c0-11.199 9.132-20.28 20.398-20.28h97.486v-256.025c0-40.689 33.296-73.794 74.224-73.794h757.668c40.928 0 74.224 33.103 74.224 73.794v407.683c0 40.691-33.296 73.796-74.224 73.796zM91.278 734.888c0 54.709 44.768 99.22 99.798 99.22s99.798-44.509 99.798-99.22v-84.881h-199.596v84.881zM40.796 370.377v239.070h300.56v-239.070h-300.56zM983.204 73.792c0-18.325-14.994-33.232-33.426-33.232h-757.67c-18.432 0-33.426 14.907-33.426 33.232v41.405h824.522v-41.405zM983.204 155.756h-824.522v77.089h824.522v-77.089zM983.204 273.404h-824.522v56.411l203.074 0.002c11.266 0 20.398 9.081 20.398 20.28v164.614h567.622c18.432 0 33.426-14.909 33.426-33.234l0.002-208.073zM191.076 542.457c11.266 0 20.398-9.083 20.398-20.28v-52.579c0-11.199-9.132-20.28-20.398-20.28s-20.398 9.081-20.398 20.28v52.579c0 11.199 9.132 20.28 20.398 20.28zM928.128 342.016h-316.176c-11.266 0-20.398-9.081-20.398-20.28s9.132-20.28 20.398-20.28h316.176c11.266 0 20.398 9.081 20.398 20.28 0 11.197-9.132 20.28-20.398 20.28zM544.638 342.016h-6.12c-11.266 0-20.398-9.081-20.398-20.28s9.132-20.28 20.398-20.28h6.12c11.266 0 20.398 9.081 20.398 20.28 0 11.197-9.132 20.28-20.398 20.28z" />
<glyph unicode="&#xe94c;" glyph-name="Icon4" d="M942.663 816.143c-1.043 11.050-10.013 19.692-21.126 20.356-129.159 7.734-256.026 47.196-387.853 120.642-6.847 3.812-15.19 3.812-22.037 0-131.825-73.446-258.692-112.908-387.851-120.64-11.115-0.664-20.082-9.306-21.126-20.356-13.818-146.286-19.418-294.948-16.651-442.008 3.207-124.348 79.382-237.068 226.524-335.1 54.642-35.93 106.508-61.6 140.4-76.808 19.504-8.75 35.21-15.024 44.95-18.748 19.163-7.324 20.698-7.37 24.059-7.476 0.235-0.006 1.184-0.006 1.423 0 3.359 0.106 4.894 0.152 24.059 7.476 9.738 3.722 25.446 9.994 44.948 18.748 33.89 15.208 85.757 40.876 140.512 76.884 147.030 97.954 223.205 210.674 226.416 335.178 2.769 146.908-2.833 295.568-16.649 441.852zM914.167 375.293c-2.809-108.884-72.241-209.402-206.249-298.684-84.9-55.828-162.914-86.166-185.25-94.28-22.334 8.114-100.339 38.444-185.135 94.204-134.121 89.358-203.554 189.876-206.361 298.602-2.615 138.878 2.338 279.342 14.721 417.82 125.755 10.468 249.347 49.456 376.778 118.828 127.433-69.372 251.025-108.358 376.778-118.826 12.379-138.478 17.329-278.938 14.719-417.664zM522.666 779.957c183.648 0 333.058-148.916 333.058-331.958s-149.411-331.958-333.058-331.958c-183.646 0-333.058 148.916-333.058 331.958s149.409 331.958 333.058 331.958zM522.666 161.051c158.748 0 287.897 128.722 287.897 286.946s-129.151 286.948-287.897 286.948c-158.746 0-287.899-128.726-287.899-286.948s129.151-286.946 287.899-286.946zM732.664 378.297c11.364-5.128 16.4-18.464 11.257-29.786-39.308-86.534-126.157-142.448-221.255-142.448-12.471 0-22.581 10.076-22.581 22.506s10.109 22.506 22.581 22.506c77.406 0 148.105 45.534 180.115 116.004 5.141 11.322 18.521 16.342 29.883 11.218zM720.237 446.219l0.010 1.782c0 12.43 10.109 22.506 22.581 22.506s22.581-10.076 22.581-22.506l-0.010-2.158c-0.104-12.364-10.196-22.316-22.577-22.316-0.066 0-0.128 0-0.195 0-12.471 0.1-22.494 10.262-22.39 22.692zM523.674 351.815c-4.409-4.394-10.194-6.592-15.971-6.592-5.779 0-11.556 2.196-15.967 6.592l-54.38 54.2c-8.817 8.788-8.817 23.040 0 31.828s23.116 8.788 31.933 0l38.415-38.286 122.527 122.12c8.817 8.788 23.116 8.788 31.933 0 8.819-8.788 8.817-23.040 0-31.828l-138.491-138.034z" />
<glyph unicode="&#xe94d;" glyph-name="Facebook" d="M606.080-21.333v432.667h140.8l21.12 166.222h-161.92v105.111c0 26.074 4.693 45.63 14.080 58.667 12.516 14.667 33.636 22 63.36 22h84.48v146.667c-32.853 4.889-73.529 7.333-122.027 7.333-62.578 0-112.249-19.148-149.013-57.444s-55.147-91.667-55.147-160.111v-122.222h-143.147v-166.222h143.147v-432.667h164.267z" />
<glyph unicode="&#xe94e;" glyph-name="Google" d="M320 106.667c-87.467 0-162.667 31.467-225.6 94.4s-94.4 138.133-94.4 225.6c0 87.467 31.467 162.667 94.4 225.6s138.133 94.4 225.6 94.4c83.2 0 154.667-27.733 214.4-83.2l-86.4-83.2c-34.133 32-77.867 48-131.2 48s-99.2-19.733-137.6-59.2c-38.4-39.467-57.6-86.933-57.6-142.4s19.733-102.933 59.2-142.4c39.467-39.467 86.4-59.2 140.8-59.2s98.667 17.067 132.8 51.2c25.6 25.6 41.6 54.4 48 86.4h-182.4v108.8h300.8c4.267-17.067 6.4-34.133 6.4-51.2 0-93.867-28.267-169.6-84.8-227.2s-130.667-86.4-222.4-86.4zM1024 369.067h-92.8v-92.8h-92.8v92.8h-92.8v92.8h92.8v92.8h92.8v-92.8h92.8v-92.8z" />
<glyph unicode="&#xe94f;" glyph-name="Shopee" d="M165.665 636.522h174.727c5.337 58.447 21.812 110.936 45.48 151.505 31.326 53.634 75.878 86.64 126.231 86.64s94.673-33.235 126.231-86.64c23.668-40.34 40.143-93.058 45.48-151.505h174.495c20.652 0 39.215-16.732 37.591-37.131l-35.038-482.937c-4.409-60.51-42.928-95.12-98.85-95.12h-499.818c-62.187 0-95.137 42.861-98.85 95.12l-35.27 482.707c-1.392 20.399 16.939 37.361 37.591 37.361zM384.017 636.522h255.71c-5.105 50.654-19.259 95.579-39.447 129.96-23.204 40.111-54.762 65.094-88.176 65.094-33.646 0-64.972-24.983-88.64-65.324-20.188-34.152-34.11-79.305-39.447-129.731zM385.177 190.716c6.265-4.355 12.298-8.022 18.099-11.231 46.408-27.963 90.496-41.715 128.319-41.715 40.375 0.229 73.557 15.815 95.137 47.216 0.696 1.146 1.624 2.75 3.017 4.813 6.033 9.627 10.442 19.482 13.226 29.338 6.265 22.004 5.105 44.466-4.177 65.782-9.050 20.629-25.989 39.653-51.281 54.78-15.315 9.168-33.878 16.961-55.69 23.15-40.375 11.231-69.38 25.671-83.303 44.237-12.066 16.044-12.298 37.131 2.552 63.948 8.818 16.044 28.773 26.129 54.994 28.192 27.381 2.063 60.331-4.584 94.905-22.004 8.818-4.584 19.259-1.146 23.9 7.564s1.16 19.253-7.657 23.608c-40.607 20.399-80.518 28.192-113.7 25.671-38.519-2.98-68.916-19.712-83.767-46.529-22.276-40.569-20.652-74.033 0.232-101.767 19.027-25.213 54.298-44.008 102.098-57.301 18.795-5.043 34.342-11.689 46.872-19.253 18.795-11.231 30.862-24.754 37.127-38.736 5.801-13.294 6.497-27.963 2.32-42.174-2.088-6.876-5.105-13.982-9.282-20.629-0.232-0.688-1.16-1.604-2.088-3.209-14.619-21.316-37.591-31.86-65.9-31.86-31.326 0-68.916 12.148-109.756 36.673-5.801 3.438-11.138 6.876-16.243 10.314-8.121 5.501-19.027 3.438-24.596-4.584s-3.481-18.795 4.641-24.296z" />
<glyph unicode="&#xe950;" glyph-name="Youtube" d="M962.422 682.667c-5.731 21.333-16.046 39.704-30.945 55.111s-32.664 26.074-53.294 32c-29.799 8.296-99.712 14.222-209.739 17.778l-156.444 1.778-156.444-1.778c-110.027-3.556-179.94-9.481-209.739-17.778-20.63-5.926-38.395-16.593-53.294-32s-25.214-33.778-30.945-55.111c-8.023-32-13.753-80.593-17.192-145.778-1.146-33.185-1.719-62.815-1.719-88.889l1.719-88.889c3.438-66.37 9.169-115.556 17.192-147.556 5.731-20.148 16.046-37.926 30.945-53.333s32.664-26.074 53.294-32c29.799-8.296 99.712-14.222 209.739-17.778l156.444-1.778 156.444 1.778c110.027 3.556 179.94 9.481 209.739 17.778 20.63 5.926 38.395 16.593 53.294 32s25.214 33.185 30.945 53.333c8.023 32 13.753 81.185 17.192 147.556l1.719 88.889-1.719 88.889c-3.438 65.185-9.169 113.778-17.192 145.778zM415.726 302.222v289.778l245.841-144-245.841-145.778z" />
<glyph unicode="&#xe951;" glyph-name="Zalo" d="M147.495 317.019c46.685 0 90.253 0.275 133.822-0.108 24.475-0.215 37.704-10.904 39.956-30.69 2.851-25.044-11.387-41.657-37.824-41.964-49.862-0.579-99.734-0.225-149.603-0.225-14.395 0-28.825-0.516-43.174 0.336-17.897 1.057-35.396 4.689-43.954 23.638-8.574 18.984-2.616 36.018 9.228 51.475 47.653 62.196 95.369 124.344 143.050 186.518 2.832 3.695 5.569 7.463 8.321 11.158-2.912 5.401-7.534 2.983-11.131 3.005-33.415 0.215-66.837-0.032-100.252 0.244-7.636 0.063-15.5 0.693-22.849 2.669-15.503 4.17-24.913 16.91-25.036 32.098-0.123 15.217 9.006 28.106 24.468 32.58 7.306 2.115 15.204 2.85 22.836 2.881 55.008 0.228 110.020 0.215 165.032 0.028 9.718-0.035 19.511-0.288 28.945-3.632 20.859-7.393 30.040-27.121 21.559-48.012-7.383-18.193-19.153-33.656-30.901-49.003-40.329-52.672-80.813-105.224-121.222-157.836-3.138-4.084-6.155-8.27-11.27-15.163zM505.375 483.672c7.512 9.707 14.969 18.848 27.671 21.505 24.24 5.069 47.222-11.094 47.545-36.382 0.808-63.282 0.512-126.586 0.142-189.874-0.099-17.287-10.474-30.538-25.653-35.835-15.907-5.55-32.484-1.507-43.109 12.259-5.198 6.738-7.426 7.89-14.679 1.855-28.097-23.373-59.781-27.466-94.033-16.062-54.953 18.294-77.573 62.234-83.537 116.049-6.408 57.814 12.344 107.421 62.765 137.838 41.856 25.25 84.379 23.132 122.888-11.354zM396.318 367.917c0.296-10.888 3.795-25.532 12.976-38.241 19.97-27.644 60.944-27.558 80.896 0.057 17.292 23.936 17.209 63.652-0.102 87.563-9.154 12.636-21.368 19.253-36.615 20.172-33.82 2.042-57.501-24.807-57.156-69.551zM719.189 366.159c-2.357 81.304 49.619 142.046 123.536 144.377 78.551 2.476 136.176-51.725 138.524-130.746 2.376-80.015-45.454-136.778-119.217-144.364-80.131-8.245-143.997 51.675-142.843 130.734zM796.768 373.809c-0.080-16.204 3.637-31.313 13.152-44.443 19.501-26.915 60.056-27.131 79.961-0.589 17.94 23.93 18.011 64.596 0.299 88.782-9.234 12.611-21.5 19.111-36.707 19.94-33.32 1.814-56.563-24.332-56.705-63.69zM692.162 429.113c0-49.050 0.241-98.1-0.093-147.15-0.194-28.055-24.314-47.024-50.251-40.305-15.58 4.037-27.227 20.998-27.251 40.758-0.117 83.862-0.052 167.721-0.052 251.579 0 14.77-0.197 29.54 0.052 44.304 0.41 24.335 15.509 40.134 38.2 40.365 23.438 0.237 39.16-15.619 39.311-40.821 0.296-49.576 0.086-99.154 0.083-148.73z" />
<glyph unicode="&#xe952;" glyph-name="Star" d="M923.466 514.235l-169.052-164.267 39.871-231.25c2.126-13.822-0.266-26.315-7.177-37.478s-16.746-18.341-29.504-21.53c-12.759-3.19-24.986-1.595-36.681 4.784l-208.923 108.448-208.923-108.448c-11.695-6.379-23.922-7.974-36.681-4.784s-22.593 10.366-29.504 21.53c-6.911 11.164-9.303 23.125-7.177 35.884l39.871 232.845-169.052 164.267c-9.569 9.569-14.619 20.733-15.151 33.491s3.19 24.454 11.164 35.086c7.974 10.632 18.872 17.012 32.694 19.138l232.845 33.491 103.664 210.517c6.379 12.759 15.682 21.264 27.91 25.517s24.454 4.253 36.681 0c12.227-4.253 21.53-12.759 27.91-25.517l103.664-210.517 232.845-33.491c13.822-2.126 24.72-8.506 32.694-19.138s11.695-22.328 11.164-35.086c-0.532-12.759-5.582-23.922-15.151-33.491zM888.38 550.916l-259.957 38.276-116.423 234.44-116.423-234.44-258.362-38.276 186.595-183.405-44.655-258.362 232.845 122.802 232.845-122.802-44.655 258.362 188.19 183.405z" />
<glyph unicode="&#xe953;" glyph-name="StarFull" d="M923.466 514.235l-169.052-164.267 39.871-231.25c2.126-13.822-0.266-26.315-7.177-37.478s-16.746-18.341-29.504-21.53c-12.759-3.19-24.986-1.595-36.681 4.784l-208.923 108.448-208.923-108.448c-11.695-6.379-23.922-7.974-36.681-4.784s-22.593 10.366-29.504 21.53c-6.911 11.164-9.303 23.125-7.177 35.884l39.871 232.845-169.052 164.267c-9.569 9.569-14.619 20.733-15.151 33.491s3.19 24.454 11.164 35.086c7.974 10.632 18.872 17.012 32.694 19.138l232.845 33.491 103.664 210.517c6.379 12.759 15.682 21.264 27.91 25.517s24.454 4.253 36.681 0c12.227-4.253 21.53-12.759 27.91-25.517l103.664-210.517 232.845-33.491c13.822-2.126 24.72-8.506 32.694-19.138s11.695-22.328 11.164-35.086c-0.532-12.759-5.582-23.922-15.151-33.491z" />
<glyph unicode="&#xe954;" glyph-name="StarHalf" d="M923.466 514.235l-169.052-164.267 39.871-231.25c2.126-13.822-0.266-26.315-7.177-37.478s-16.746-18.341-29.504-21.53c-12.759-3.19-24.986-1.595-36.681 4.784l-208.923 108.448-208.923-108.448c-11.695-6.379-23.922-7.974-36.681-4.784s-22.593 10.366-29.504 21.53c-6.911 11.164-9.303 23.125-7.177 35.884l39.871 232.845-169.052 164.267c-9.569 9.569-14.619 20.733-15.151 33.491s3.19 24.454 11.164 35.086c7.974 10.632 18.872 17.012 32.694 19.138l232.845 33.491 103.664 210.517c6.379 12.759 15.682 21.264 27.91 25.517s24.454 4.253 36.681 0c12.227-4.253 21.53-12.759 27.91-25.517l103.664-210.517 232.845-33.491c13.822-2.126 24.72-8.506 32.694-19.138s11.695-22.328 11.164-35.086c-0.532-12.759-5.582-23.922-15.151-33.491zM888.38 550.916l-259.957 38.276-116.423 234.44v-591.682l232.845-122.802-44.655 258.362 188.19 183.405z" />
<glyph unicode="&#xe955;" glyph-name="Email" d="M858.667 746.667h-693.333c-22.222 0-41.111-7.778-56.667-23.333s-23.333-34.444-23.333-56.667v-480c0-22.222 7.778-41.111 23.333-56.667s34.444-23.333 56.667-23.333h693.333c22.222 0 41.111 7.778 56.667 23.333s23.333 34.444 23.333 56.667v480c0 22.222-7.778 41.111-23.333 56.667s-34.444 23.333-56.667 23.333zM165.333 693.333h693.333c7.778 0 14.167-2.5 19.167-7.5s7.5-11.389 7.5-19.167v-68.333c-38.889-33.333-122.778-101.111-251.667-203.333l-16.667-13.333c-22.222-18.889-39.444-32.222-51.667-40-21.111-14.444-38.889-21.667-53.333-21.667s-32.222 7.222-53.333 21.667c-13.333 7.778-31.111 21.111-53.333 40l-15 13.333c-128.889 102.222-212.778 170-251.667 203.333v68.333c0 7.778 2.5 14.167 7.5 19.167s11.389 7.5 19.167 7.5zM858.667 160h-693.333c-7.778 0-14.167 2.5-19.167 7.5s-7.5 11.389-7.5 19.167v341.667c38.889-31.111 111.667-89.444 218.333-175l16.667-13.333c25.556-22.222 46.667-38.333 63.333-48.333 27.778-16.667 52.778-25 75-25s47.222 8.333 75 25c15.556 10 36.667 26.111 63.333 48.333l16.667 13.333c106.667 85.556 179.444 143.889 218.333 175v-341.667c0-7.778-2.5-14.167-7.5-19.167s-11.389-7.5-19.167-7.5z" />
<glyph unicode="&#xe956;" glyph-name="FAQ" d="M513.413 874.667c-62.345 0-116.897-12.778-163.656-38.333s-87.951-64.444-123.577-116.667c-11.133-17.778-15.030-37.222-11.69-58.333s13.36-37.778 30.059-50l70.139-53.333c17.813-13.333 37.574-18.611 59.284-15.833s39.244 12.5 52.604 29.167c17.813 23.333 31.451 38.056 40.914 44.167s21.431 9.167 35.904 9.167c8.906 0 18.091-2.778 27.554-8.333s14.195-12.222 14.195-20c0-7.778-4.453-14.444-13.36-20-5.567-3.333-16.7-8.889-33.399-16.667-26.719-11.111-46.759-20.556-60.119-28.333-22.266-14.444-39.522-31.667-51.769-51.667-15.586-24.444-23.38-53.889-23.38-88.333v-23.333c0-13.333 3.062-25.556 9.185-36.667s14.195-20.556 24.214-28.333c-17.813-14.444-31.729-32.222-41.749-53.333s-15.030-43.889-15.030-68.333c0-44.444 15.586-82.222 46.759-113.333s69.025-46.667 113.558-46.667c44.532 0 82.385 15.556 113.558 46.667s46.759 68.889 46.759 113.333c0 24.444-5.010 47.222-15.030 68.333s-23.936 38.889-41.749 53.333c10.020 7.778 18.091 17.222 24.214 28.333s9.185 23.333 9.185 36.667v8.333c5.567 3.333 15.586 9.444 30.059 18.333 26.719 15.556 47.316 28.889 61.789 40 24.493 20 43.419 42.222 56.779 66.667 16.7 31.111 25.049 66.667 25.049 106.667 0 48.889-14.473 94.444-43.419 136.667-27.833 40-64.85 71.667-111.053 95s-93.796 35-142.782 35zM500.053 74.667c-28.946 0-53.995 10.556-75.148 31.667s-31.729 46.111-31.729 75c0 28.889 10.576 53.889 31.729 75s46.202 31.667 75.148 31.667c28.946 0 53.996-10.556 75.148-31.667s31.729-46.111 31.729-75c0-28.889-10.576-53.889-31.729-75s-46.202-31.667-75.148-31.667zM583.552 384.667v-16.667c0-7.778-2.505-14.167-7.515-19.167s-11.411-7.5-19.205-7.5h-113.558c-7.793 0-14.195 2.5-19.205 7.5s-7.515 11.389-7.515 19.167v23.333c0 34.444 10.576 61.667 31.729 81.667 13.36 11.111 36.183 23.889 68.469 38.333 27.833 11.111 46.759 20.556 56.779 28.333 16.7 14.444 25.049 32.778 25.049 55 0 24.444-10.576 45-31.729 61.667-18.926 14.444-40.914 21.667-65.964 21.667s-46.481-6.111-64.294-18.333c-13.36-10-30.616-28.333-51.769-55-4.453-5.556-10.298-8.889-17.535-10s-14.195 0.556-20.875 5l-70.138 53.333c-5.567 4.444-8.906 10.278-10.020 17.5s0.557 13.611 5.010 19.167c28.946 43.333 62.345 75.556 100.198 96.667 40.079 23.333 87.395 35 141.947 35 40.079 0 79.045-9.444 116.897-28.333s67.912-43.889 90.178-75c24.493-34.444 36.739-71.111 36.739-110 0-43.333-13.36-80-40.079-110-14.473-17.778-40.079-37.222-76.818-58.333-20.040-11.111-33.399-19.444-40.079-25-11.133-10-16.7-20-16.7-30z" />
<glyph unicode="&#xe957;" glyph-name="Info" d="M512 819.613c66.523 0 128.459-16.631 185.806-49.892s102.652-78.28 135.914-135.054c33.262-56.774 49.892-118.996 49.892-186.667s-16.631-129.892-49.892-186.667c-33.262-56.774-78.28-101.792-135.054-135.054s-118.996-49.892-186.667-49.892c-67.67 0-129.892 16.631-186.667 49.892s-101.792 78.28-135.054 135.054c-33.262 56.774-49.892 118.996-49.892 186.667s16.631 129.892 49.892 186.667c33.262 56.774 78.28 101.792 135.054 135.054s118.996 49.892 186.667 49.892zM512 874.667c-76.846 0-147.957-19.211-213.333-57.634s-117.276-90.323-155.699-155.699c-38.423-65.376-57.634-136.487-57.634-213.333s19.211-147.957 57.634-213.333c38.423-65.376 90.323-117.276 155.699-155.699s136.487-57.634 213.333-57.634c76.846 0 147.957 19.211 213.333 57.634s117.276 90.323 155.699 155.699c38.423 65.376 57.634 136.487 57.634 213.333s-19.211 147.957-57.634 213.333c-38.423 65.376-90.323 117.276-155.699 155.699s-136.487 57.634-213.333 57.634zM450.065 282.839c-5.735 0-10.609-2.007-14.624-6.022s-6.022-8.889-6.022-14.624v-13.763c0-5.735 2.007-10.609 6.022-14.624s8.889-6.021 14.624-6.021h123.871c5.735 0 10.609 2.007 14.624 6.021s6.022 8.889 6.022 14.624v13.763c0 5.735-2.007 10.609-6.022 14.624s-8.889 6.022-14.624 6.022h-20.645v240.86c0 5.735-2.007 10.609-6.021 14.624s-8.889 6.022-14.624 6.022h-82.581c-5.735 0-10.609-2.007-14.624-6.022s-6.022-8.889-6.022-14.624v-13.763c0-5.735 2.007-10.609 6.022-14.624s8.889-6.022 14.624-6.022h20.645v-206.452h-20.645zM512 695.742c-14.91 0-27.814-5.448-38.71-16.344s-16.344-23.799-16.344-38.71c0-14.91 5.448-27.814 16.344-38.71s23.799-16.344 38.71-16.344c14.91 0 27.814 5.448 38.71 16.344s16.344 23.799 16.344 38.71c0 14.91-5.448 27.814-16.344 38.71s-23.799 16.344-38.71 16.344z" />
<glyph unicode="&#xe958;" glyph-name="Order" d="M824.264-21.333h-624.527c-19.692 0-36.571 7.239-50.637 21.717s-21.099 31.852-21.099 52.121v790.99c0 20.269 7.033 37.643 21.099 52.121s30.945 21.717 50.637 21.717h624.527c19.692 0 36.571-7.239 50.637-21.717s21.099-31.852 21.099-52.121v-790.99c0-20.269-7.033-37.643-21.099-52.121s-30.945-21.717-50.637-21.717zM199.736 868.108c-6.564 0-12.19-2.413-16.879-7.239s-7.033-10.617-7.033-17.374v-790.99c0-6.756 2.344-12.548 7.033-17.374s10.315-7.239 16.879-7.239h624.527c6.564 0 12.19 2.413 16.879 7.239s7.033 10.617 7.033 17.374v790.99c0 6.756-2.344 12.548-7.033 17.374s-10.315 7.239-16.879 7.239h-624.527zM632.029 719.948h-336.176c-6.564 0-12.19 2.413-16.879 7.239s-7.033 10.617-7.033 17.374c0 6.756 2.344 12.548 7.033 17.374s10.315 7.239 16.879 7.239h336.176c6.564 0 12.19-2.413 16.879-7.239s7.033-10.617 7.033-17.374c0-6.756-2.344-12.548-7.033-17.374s-10.315-7.239-16.879-7.239zM728.147 621.014h-432.293c-6.564 0-12.19 2.413-16.879 7.239s-7.033 10.617-7.033 17.374c0 6.756 2.344 12.548 7.033 17.374s10.315 7.239 16.879 7.239h432.293c6.564 0 12.19-2.413 16.879-7.239s7.033-10.617 7.033-17.374c0-6.756-2.344-12.548-7.033-17.374s-10.315-7.239-16.879-7.239zM728.147 522.080h-432.293c-6.564 0-12.19 2.413-16.879 7.239s-7.033 10.617-7.033 17.374c0 6.756 2.344 12.548 7.033 17.374s10.315 7.239 16.879 7.239h432.293c6.564 0 12.19-2.413 16.879-7.239s7.033-10.617 7.033-17.374c0-6.756-2.344-12.548-7.033-17.374s-10.315-7.239-16.879-7.239zM535.912 423.146h-240.059c-6.564 0-12.19 2.413-16.879 7.239s-7.033 10.617-7.033 17.374c0 7.078 2.344 13.030 7.033 17.856s10.315 7.239 16.879 7.239h240.059c6.564 0 12.19-2.413 16.879-7.239s7.033-10.778 7.033-17.856c0-6.756-2.344-12.548-7.033-17.374s-10.315-7.239-16.879-7.239zM728.147 225.76h-432.293c-6.564 0-12.19 2.413-16.879 7.239s-7.033 10.617-7.033 17.374c0 6.756 2.344 12.548 7.033 17.374s10.315 7.239 16.879 7.239h432.293c6.564 0 12.19-2.413 16.879-7.239s7.033-10.617 7.033-17.374c0-6.756-2.344-12.548-7.033-17.374s-10.315-7.239-16.879-7.239zM632.029 126.826h-336.176c-6.564 0-12.19 2.413-16.879 7.239s-7.033 10.617-7.033 17.374c0 6.756 2.344 12.548 7.033 17.374s10.315 7.239 16.879 7.239h336.176c6.564 0 12.19-2.413 16.879-7.239s7.033-10.617 7.033-17.374c0-6.756-2.344-12.548-7.033-17.374s-10.315-7.239-16.879-7.239z" />
<glyph unicode="&#xe959;" glyph-name="Return" d="M918.022 874.667h-17.204c-5.735 0-10.609-2.007-14.624-6.022s-6.022-8.889-6.022-14.624v-190.968c-37.849 64.229-89.462 115.556-154.839 153.978s-135.914 57.634-211.613 57.634c-75.699 0-145.663-18.065-209.892-54.194s-115.556-85.161-153.978-147.097c-38.423-61.935-59.928-129.606-64.516-203.011 0-6.882 2.007-12.33 6.022-16.344s8.889-6.021 14.624-6.021h17.204c5.735 0 10.609 2.007 14.624 6.021s6.022 8.315 6.022 12.903c3.441 64.229 22.079 123.011 55.914 176.344s78.28 95.484 133.333 126.452c55.054 30.968 114.695 46.452 178.925 46.452 69.964 0 134.194-18.065 192.688-54.194s103.226-84.588 134.194-145.376h-196.129c-5.735 0-10.609-2.007-14.624-6.022s-6.021-8.889-6.021-14.624v-17.204c0-5.735 2.007-10.609 6.021-14.624s8.889-6.022 14.624-6.022h275.269c5.735 0 10.609 2.007 14.624 6.022s6.021 8.889 6.021 14.624v275.269c0 5.735-2.007 10.609-6.021 14.624s-8.889 6.022-14.624 6.022zM918.022 448h-17.204c-5.735 0-10.609-2.007-14.624-6.021s-6.022-8.315-6.022-12.903c-3.441-64.229-22.079-123.011-55.914-176.344s-78.28-95.484-133.333-126.452c-55.054-30.968-114.695-46.452-178.925-46.452-69.964 0-134.194 18.065-192.688 54.194s-103.226 84.588-134.194 145.376h196.129c5.735 0 10.609 2.007 14.624 6.022s6.022 8.889 6.022 14.624v17.204c0 5.735-2.007 10.609-6.022 14.624s-8.889 6.021-14.624 6.021h-275.269c-5.735 0-10.609-2.007-14.624-6.021s-6.022-8.889-6.022-14.624v-275.269c0-5.735 2.007-10.609 6.022-14.624s8.889-6.021 14.624-6.021h17.204c5.735 0 10.609 2.007 14.624 6.021s6.022 8.889 6.022 14.624v190.968c37.849-64.229 89.462-115.556 154.839-153.978s135.914-57.634 211.613-57.634c75.699 0 145.663 18.065 209.892 54.194s115.556 85.161 153.978 147.097c38.423 61.935 59.928 129.606 64.516 203.011 0 6.882-2.007 12.33-6.021 16.344s-8.889 6.021-14.624 6.021z" />
<glyph unicode="&#xe95a;" glyph-name="Ship" d="M946.228 874.667h-518.481c-21.603 0-39.966-7.881-55.089-23.644s-22.684-34.904-22.684-57.422v-81.067h-71.291c-21.603 0-39.966-7.881-55.089-23.644l-162.025-168.889c-15.122-15.763-22.684-34.904-22.684-57.422v-182.4h-19.443c-5.401 0-9.992-1.97-13.772-5.911s-5.671-8.726-5.671-14.356v-13.511c0-5.63 1.89-10.415 5.671-14.356s8.371-5.911 13.772-5.911h74.532c-2.16-9.007-3.241-18.015-3.241-27.022 0-37.156 12.692-68.963 38.076-95.422s55.899-39.689 91.544-39.689c35.646 0 66.16 13.23 91.544 39.689s38.076 58.267 38.076 95.422c0 9.007-1.080 18.015-3.241 27.022h317.57c-2.16-9.007-3.241-18.015-3.241-27.022 0-37.156 12.692-68.963 38.076-95.422s55.899-39.689 91.544-39.689c35.646 0 66.16 13.23 91.544 39.689s38.076 58.267 38.076 95.422c0 9.007-1.080 18.015-3.241 27.022h29.165c21.603 0 39.966 7.881 55.089 23.644s22.684 34.904 22.684 57.422v486.4c0 22.519-7.561 41.659-22.684 57.422s-33.485 23.644-55.089 23.644zM349.975 280.178h-25.924c-11.882 16.889-27.004 30.119-45.367 39.689s-37.806 14.356-58.329 14.356c-20.523 0-39.966-4.785-58.329-14.356s-33.485-22.8-45.367-39.689h-25.924v182.4c0 7.881 2.7 14.074 8.101 18.578l162.025 168.889c4.321 5.63 10.262 8.444 17.823 8.444h71.291v-378.311zM972.152 307.2c0-7.881-2.43-14.356-7.291-19.422s-11.072-7.6-18.633-7.6h-51.848c-11.882 16.889-27.004 30.119-45.367 39.689s-37.806 14.356-58.329 14.356c-20.523 0-39.966-4.785-58.329-14.356s-33.485-22.8-45.367-39.689h-285.165v513.422c0 7.881 2.43 14.356 7.291 19.422s11.072 7.6 18.633 7.6h518.481c7.561 0 13.772-2.533 18.633-7.6s7.291-11.541 7.291-19.422v-486.4zM158.785 459.2c-3.241-3.378-4.051-7.037-2.43-10.978s4.591-5.911 8.911-5.911h123.139c2.16 0 4.321 1.126 6.481 3.378s3.241 4.504 3.241 6.756v128.356c0 4.504-1.89 7.6-5.671 9.289s-7.291 0.844-10.532-2.533l-123.139-128.356zM790.684 280.178c21.603 0 39.966-7.881 55.089-23.644s22.684-34.904 22.684-57.422c0-22.519-7.561-41.659-22.684-57.422s-33.485-23.644-55.089-23.644c-21.603 0-39.966 7.881-55.089 23.644s-22.684 34.904-22.684 57.422c0 22.519 7.561 41.659 22.684 57.422s33.485 23.644 55.089 23.644zM220.354 280.178c21.603 0 39.966-7.881 55.089-23.644s22.684-34.904 22.684-57.422c0-22.519-7.561-41.659-22.684-57.422s-33.485-23.644-55.089-23.644c-21.603 0-39.966 7.881-55.089 23.644s-22.684 34.904-22.684 57.422c0 22.519 7.561 41.659 22.684 57.422s33.485 23.644 55.089 23.644z" />
<glyph unicode="&#xe95b;" d="M1024 448c0-282.77-229.23-512-512-512s-512 229.23-512 512c0 282.77 229.23 512 512 512s512-229.23 512-512z" />
<glyph unicode="&#xe95c;" d="M489.74 448h534.26c0 46.212-6.16 90.98-17.638 133.566h-516.622v-133.566z" />
<glyph unicode="&#xe95d;" d="M489.74 715.13h459.112c-31.342 51.144-71.416 96.35-118.14 133.566h-340.972v-133.566z" />
<glyph unicode="&#xe95e;" d="M512-64c120.498 0 231.252 41.648 318.712 111.304h-637.424c87.46-69.656 198.214-111.304 318.712-111.304z" />
<glyph unicode="&#xe95f;" d="M75.148 180.87h873.704c25.162 41.058 44.676 85.938 57.51 133.566h-988.724c12.834-47.628 32.348-92.508 57.51-133.566z" />
<glyph unicode="&#xe960;" d="M237.168 880.044h46.658l-43.4-31.53 16.578-51.018-43.398 31.53-43.398-31.53 14.32 44.074c-38.212-31.83-71.704-69.122-99.304-110.674h14.95l-27.626-20.070c-4.304-7.18-8.432-14.474-12.388-21.876l13.192-40.602-24.612 17.882c-6.118-12.962-11.714-26.216-16.744-39.746l14.534-44.736h53.644l-43.4-31.53 16.578-51.018-43.398 31.53-25.996-18.888c-2.602-20.916-3.958-42.22-3.958-63.842h512c0 282.768 0 316.104 0 512-101.144 0-195.43-29.34-274.832-79.956zM257.004 499.2l-43.398 31.53-43.398-31.53 16.578 51.018-43.4 31.53h53.644l16.576 51.018 16.576-51.018h53.644l-43.4-31.53 16.578-51.018zM240.426 699.366l16.578-51.018-43.398 31.53-43.398-31.53 16.578 51.018-43.4 31.53h53.644l16.576 51.018 16.576-51.018h53.644l-43.4-31.53zM440.656 499.2l-43.398 31.53-43.398-31.53 16.578 51.018-43.4 31.53h53.644l16.576 51.018 16.576-51.018h53.644l-43.4-31.53 16.578-51.018zM424.078 699.366l16.578-51.018-43.398 31.53-43.398-31.53 16.578 51.018-43.4 31.53h53.644l16.576 51.018 16.576-51.018h53.644l-43.4-31.53zM424.078 848.514l16.578-51.018-43.398 31.53-43.398-31.53 16.578 51.018-43.4 31.53h53.644l16.576 51.018 16.576-51.018h53.644l-43.4-31.53z" />
<glyph unicode="&#xe961;" d="M1024 448c0-282.77-229.23-512-512-512s-512 229.23-512 512c0 282.77 229.23 512 512 512s512-229.23 512-512z" />
<glyph unicode="&#xe962;" d="M512 692.87l55.256-170.058h178.81l-144.662-105.1 55.256-170.060-144.66 105.102-144.66-105.102 55.256 170.060-144.66 105.1h178.808z" />
<glyph unicode="&#xe963;" glyph-name="Delete" d="M581.056 448l224.432 224.432c3.453 4.604 5.179 9.783 5.179 15.538s-1.726 10.358-5.179 13.811l-39.707 39.707c-3.453 3.453-8.057 5.179-13.811 5.179s-10.934-1.726-15.538-5.179l-224.432-224.432-224.432 224.432c-4.604 3.453-9.783 5.179-15.538 5.179s-10.358-1.726-13.811-5.179l-39.707-39.707c-3.453-3.453-5.179-8.057-5.179-13.811s1.726-10.934 5.179-15.538l224.432-224.432-224.432-224.432c-3.453-4.604-5.179-9.783-5.179-15.538s1.726-10.358 5.179-13.811l39.707-39.707c3.453-3.453 8.057-5.179 13.811-5.179s10.934 1.726 15.538 5.179l224.432 224.432 224.432-224.432c4.604-3.453 9.783-5.179 15.538-5.179s10.358 1.726 13.811 5.179l39.707 39.707c3.453 3.453 5.179 8.057 5.179 13.811s-1.726 10.934-5.179 15.538l-224.432 224.432z" />
<glyph unicode="&#xe964;" glyph-name="Left" d="M389 463l196.667 193.333c3.333 3.333 7.778 5 13.333 5s10.556-1.667 15-5l11.667-13.333c4.444-3.333 6.667-7.778 6.667-13.333s-2.222-10.556-6.667-15l-170-166.667 170-166.667c3.333-4.444 5-9.444 5-15s-1.667-10-5-13.333l-11.667-11.667c-4.444-4.444-9.444-6.667-15-6.667s-10 2.222-13.333 6.667l-196.667 193.333c-3.333 3.333-5 7.778-5 13.333s1.667 10.556 5 15z" />
<glyph unicode="&#xe965;" glyph-name="Right" d="M627.333 434.667l-196.667-193.333c-3.333-4.444-7.778-6.667-13.333-6.667s-10.556 2.222-15 6.667l-11.667 11.667c-4.444 3.333-6.667 7.778-6.667 13.333s2.222 10.556 6.667 15l170 166.667-170 166.667c-3.333 4.444-5 9.444-5 15s1.667 10 5 13.333l11.667 13.333c4.444 3.333 9.444 5 15 5s10-1.667 13.333-5l196.667-193.333c3.333-4.444 5-9.444 5-15s-1.667-10.556-5-15v1.667z" />
<glyph unicode="&#xe966;" glyph-name="Down" d="M498.767 314.758l-193.43 196.765c-4.447 3.335-6.67 7.782-6.67 13.34s1.668 10.561 5.002 15.008l13.34 11.672c3.335 4.447 7.782 6.67 13.34 6.67s10.561-2.223 15.008-6.67l166.75-170.085 166.75 170.085c4.447 3.335 9.449 5.002 15.008 5.002s10.005-1.668 13.34-5.002l13.34-11.672c3.335-4.447 5.002-9.449 5.002-15.008s-1.668-10.005-5.002-13.34l-193.43-196.765c-4.447-3.335-9.449-5.002-15.008-5.002s-10.561 1.668-15.008 5.002h1.668z" />
<glyph unicode="&#xe967;" glyph-name="Up" d="M498.767 553.211l-193.43-196.765c-4.447-3.335-6.67-7.782-6.67-13.34s1.668-10.561 5.002-15.008l13.34-11.672c3.335-4.447 7.782-6.67 13.34-6.67s10.561 2.223 15.008 6.67l166.75 170.085 166.75-170.085c4.447-3.335 9.449-5.002 15.008-5.002s10.005 1.668 13.34 5.002l13.34 11.672c3.335 4.447 5.002 9.449 5.002 15.008s-1.668 10.005-5.002 13.34l-193.43 196.765c-4.447 3.335-9.449 5.002-15.008 5.002s-10.561-1.668-15.008-5.002h1.668z" />
<glyph unicode="&#xe968;" glyph-name="Start" d="M524 658.63c-3.556 2.593-7.333 3.889-11.333 3.889s-7.778-1.296-11.333-3.889l-198.667-191.852c-2.667-3.457-4-7.346-4-11.667s1.333-7.778 4-10.37l198.667-193.148c2.667-2.593 6.222-3.889 10.667-3.889s8.444 1.728 12 5.185l9.333 9.074c3.556 2.593 5.333 6.049 5.333 10.37s-1.778 8.21-5.333 11.667l-154.667 149.074h416c4.444 0 8.222 1.512 11.333 4.537s4.667 6.698 4.667 11.019v12.963c0 4.321-1.556 7.994-4.667 11.019s-6.889 4.537-11.333 4.537h-416l154.667 149.074c3.556 3.457 5.333 7.346 5.333 11.667s-1.778 7.778-5.333 10.37l-9.333 10.37zM213.333 688.444v-466.667c0-4.321 1.556-7.994 4.667-11.019s6.889-4.537 11.333-4.537h10.667c4.444 0 8.222 1.512 11.333 4.537s4.667 6.698 4.667 11.019v466.667c0 4.321-1.556 7.994-4.667 11.019s-6.889 4.537-11.333 4.537h-10.667c-4.444 0-8.222-1.512-11.333-4.537s-4.667-6.698-4.667-11.019z" />
<glyph unicode="&#xe969;" glyph-name="End" d="M500 658.63c3.556 2.593 7.333 3.889 11.333 3.889s7.778-1.296 11.333-3.889l198.667-191.852c2.667-3.457 4-7.346 4-11.667s-1.333-7.778-4-10.37l-198.667-193.148c-2.667-2.593-6.222-3.889-10.667-3.889s-8.444 1.728-12 5.185l-9.333 9.074c-3.556 2.593-5.333 6.049-5.333 10.37s1.778 8.21 5.333 11.667l154.667 149.074h-416c-4.444 0-8.222 1.512-11.333 4.537s-4.667 6.698-4.667 11.019v12.963c0 4.321 1.556 7.994 4.667 11.019s6.889 4.537 11.333 4.537h416l-154.667 149.074c-3.556 3.457-5.333 7.346-5.333 11.667s1.778 7.778 5.333 10.37l9.333 10.37zM810.667 688.444v-466.667c0-4.321-1.556-7.994-4.667-11.019s-6.889-4.537-11.333-4.537h-10.667c-4.444 0-8.222 1.512-11.333 4.537s-4.667 6.698-4.667 11.019v466.667c0 4.321 1.556 7.994 4.667 11.019s6.889 4.537 11.333 4.537h10.667c4.444 0 8.222-1.512 11.333-4.537s4.667-6.698 4.667-11.019z" />
<glyph unicode="&#xe96a;" glyph-name="Minus" d="M701.732 471.858h-379.465c-6.479 0-12.032-2.316-16.659-6.949s-6.941-10.192-6.941-16.678c0-6.795 2.314-12.508 6.941-17.141s10.181-6.949 16.659-6.949h379.465c6.479 0 12.032 2.316 16.659 6.949s6.941 10.346 6.941 17.141c0 6.486-2.314 12.045-6.941 16.678s-10.181 6.949-16.659 6.949z" />
<glyph unicode="&#xe96b;" glyph-name="Plus" d="M701.732 471.858h-166.132v165.849c0 6.486-2.314 12.045-6.941 16.678s-10.181 6.949-16.659 6.949c-6.479 0-12.032-2.316-16.659-6.949s-6.941-10.192-6.941-16.678v-165.849h-166.132c-6.479 0-12.032-2.316-16.659-6.949s-6.941-10.192-6.941-16.678c0-6.795 2.314-12.508 6.941-17.141s10.181-6.949 16.659-6.949h166.132v-165.849c0-6.486 2.314-12.045 6.941-16.678s10.181-6.949 16.659-6.949c6.479 0 12.032 2.316 16.659 6.949s6.941 10.192 6.941 16.678v165.849h166.132c6.479 0 12.032 2.316 16.659 6.949s6.941 10.346 6.941 17.141c0 6.486-2.314 12.045-6.941 16.678s-10.181 6.949-16.659 6.949z" />
<glyph unicode="&#xe96c;" glyph-name="Home" d="M975.345 387.438l-414.306 464.891c-6.416 7.446-13.826 13.030-22.228 16.753s-17.339 5.584-26.811 5.584c0 0 0 0 0 0-9.472 0-18.409-1.861-26.811-5.584s-15.811-9.307-22.228-16.753l-414.306-464.891c-4.278-4.964-6.264-10.703-5.958-17.218s2.903-11.944 7.791-16.287c2.139-2.172 4.583-3.8 7.333-4.886s5.5-1.629 8.249-1.629c3.361 0 6.569 0.698 9.624 2.094s5.652 3.335 7.791 5.817l99.91 112.151v-382.058c0-19.545 6.875-36.298 20.624-50.259s30.401-20.941 49.955-20.941h516.050c19.554 0 36.206 6.98 49.955 20.941s20.624 30.714 20.624 50.259v382.058l99.91-112.151c4.278-4.654 9.624-7.213 16.041-7.678s12.069 1.629 16.957 6.282c4.889 4.343 7.486 9.772 7.791 16.287s-1.68 12.254-5.958 17.218zM605.952 61.689h-187.904v214.529c0 6.515 2.292 12.099 6.875 16.753s10.083 6.98 16.499 6.98h141.157c6.416 0 11.916-2.327 16.499-6.98s6.875-10.238 6.875-16.753v-214.529zM793.398 85.422c0-6.515-2.292-12.099-6.875-16.753s-10.083-6.98-16.499-6.98h-117.326v214.529c0 19.545-6.875 36.298-20.624 50.259s-30.248 20.941-49.497 20.941h-141.157c-19.249 0-35.748-6.98-49.497-20.941s-20.624-30.714-20.624-50.259v-214.529h-117.326c-6.416 0-11.916 2.327-16.499 6.98s-6.875 10.238-6.875 16.753v434.643l267.191 300.62c2.139 2.172 4.354 3.8 6.645 4.886s4.812 1.629 7.562 1.629c2.75 0 5.27-0.543 7.562-1.629s4.507-2.715 6.645-4.886l267.191-300.62v-434.643z" />
<glyph unicode="&#xe96d;" glyph-name="Profile" d="M713.667 368c28.889 27.778 51.389 60.278 67.5 97.5s24.167 75.833 24.167 115.833c0 53.333-13.056 102.5-39.167 147.5s-61.667 80.556-106.667 106.667c-45 26.111-94.167 39.167-147.5 39.167s-102.5-13.056-147.5-39.167c-45-26.111-80.556-61.667-106.667-106.667s-39.167-94.167-39.167-147.5c0-40 8.056-78.611 24.167-115.833s38.611-69.722 67.5-97.5c-44.444 0-83.889-10.556-118.333-31.667-33.333-18.889-59.444-45-78.333-78.333s-28.333-68.889-28.333-106.667v-41.667c0-24.444 8.611-45.278 25.833-62.5s38.056-25.833 62.5-25.833h676.667c24.444 0 45.278 8.611 62.5 25.833s25.833 38.056 25.833 62.5v41.667c0 37.778-9.444 73.333-28.333 106.667s-44.444 59.444-76.667 78.333c-35.556 21.111-75.556 31.667-120 31.667zM272 581.333c0 43.333 10.833 83.333 32.5 120s50.833 65.833 87.5 87.5c36.667 21.667 76.667 32.5 120 32.5s83.333-10.833 120-32.5c36.667-21.667 65.833-50.833 87.5-87.5s32.5-76.667 32.5-120c0-43.333-10.833-83.333-32.5-120s-50.833-65.833-87.5-87.5c-36.667-21.667-76.667-32.5-120-32.5s-83.333 10.833-120 32.5c-36.667 21.667-65.833 50.833-87.5 87.5s-32.5 76.667-32.5 120zM885.333 109.667c0-10-3.333-18.333-10-25s-15-10-25-10h-676.667c-10 0-18.333 3.333-25 10s-10 15-10 25v41.667c0 45.556 15.833 84.167 47.5 115.833s70.278 47.5 115.833 47.5h88.333c38.889-17.778 79.444-26.667 121.667-26.667s82.778 8.889 121.667 26.667h88.333c45.556 0 84.167-15.833 115.833-47.5s47.5-70.278 47.5-115.833v-41.667z" />
<glyph unicode="&#xe96e;" glyph-name="Heart" d="M718.222 874.667c-66.37 0-135.111-33.379-206.222-100.138-71.111 66.759-139.852 100.138-206.222 100.138-80.593 0-144.593-23.972-192-71.917s-71.111-113.793-71.111-197.545c0-55.834 18.963-112.883 56.889-171.145 20.148-30.345 41.481-56.441 64-78.29l302.222-307.697c13.037-12.138 28.444-18.207 46.222-18.207s33.185 6.069 46.222 18.207l302.222 307.697c27.259 26.703 50.963 56.441 71.111 89.214 33.185 54.621 49.778 108.028 49.778 160.221 0 83.752-23.704 149.6-71.111 197.545s-111.407 71.917-192 71.917zM819.556 395.825l-302.222-305.876c-3.556-3.641-7.111-3.641-10.667 0l-304 307.697c-28.444 26.703-52.148 57.655-71.111 92.855-21.333 41.269-32 79.503-32 114.703 0 66.759 18.074 118.648 54.222 155.669s86.815 55.531 152 55.531c35.556 0 73.481-13.352 113.778-40.055 26.074-18.207 56.889-45.517 92.444-81.931l5.333 5.462c29.63 30.345 56.296 54.014 80 71.007 42.667 30.345 82.963 45.517 120.889 45.517 65.185 0 115.852-18.51 152-55.531s54.222-88.91 54.222-155.669c0-35.2-10.667-72.828-32-112.883-17.778-33.986-42.074-66.152-72.889-96.497z" />
<glyph unicode="&#xe96f;" glyph-name="HeartSolid" d="M718.222 874.667c-66.37 0-135.111-33.379-206.222-100.138-71.111 66.759-139.852 100.138-206.222 100.138-80.593 0-144.593-23.972-192-71.917s-71.111-113.793-71.111-197.545c0-55.834 18.963-112.883 56.889-171.145 20.148-30.345 41.481-56.441 64-78.29l302.222-307.697c13.037-12.138 28.444-18.207 46.222-18.207s33.185 6.069 46.222 18.207l302.222 307.697c27.259 26.703 50.963 56.441 71.111 89.214 33.185 54.621 49.778 108.028 49.778 160.221 0 83.752-23.704 149.6-71.111 197.545s-111.407 71.917-192 71.917z" />
<glyph unicode="&#xe970;" glyph-name="Rectangle" d="M384 576h256v-256h-256v256z" />
<glyph unicode="&#xe971;" glyph-name="Search" d="M975.833 33.667l-236.5 236.5c-4.889 4.889-10.389 7.333-16.5 7.333h-18.333c31.778 34.222 56.528 73.639 74.25 118.25s26.583 91.361 26.583 140.25c0 69.667-17.111 133.528-51.333 191.583s-80.361 104.194-138.417 138.417c-58.056 34.222-121.917 51.333-191.583 51.333s-133.528-17.111-191.583-51.333c-58.056-34.222-104.194-80.361-138.417-138.417s-51.333-121.917-51.333-191.583c0-69.667 17.111-133.528 51.333-191.583s80.361-104.194 138.417-138.417c58.056-34.222 121.917-51.333 191.583-51.333 48.889 0 95.639 8.861 140.25 26.583s84.028 42.472 118.25 74.25v-18.333c0-6.111 2.444-11 7.333-14.667l236.5-236.5c3.667-4.889 8.556-7.333 14.667-7.333s11.611 2.444 16.5 7.333l18.333 16.5c3.667 4.889 5.5 10.389 5.5 16.5s-1.833 11-5.5 14.667zM424 213.333c-58.667 0-112.75 14.361-162.25 43.083s-88.611 67.833-117.333 117.333c-28.722 49.5-43.083 103.583-43.083 162.25s14.361 112.75 43.083 162.25c28.722 49.5 67.833 88.611 117.333 117.333s103.583 43.083 162.25 43.083c58.667 0 112.75-14.361 162.25-43.083s88.611-67.833 117.333-117.333c28.722-49.5 43.083-103.583 43.083-162.25s-14.361-112.75-43.083-162.25c-28.722-49.5-67.833-88.611-117.333-117.333s-103.583-43.083-162.25-43.083z" />
<glyph unicode="&#xe972;" glyph-name="Zoom" d="M975.833 33.667l-236.5 236.5c-4.889 4.889-10.389 7.333-16.5 7.333h-18.333c31.778 34.222 56.528 73.639 74.25 118.25s26.583 91.361 26.583 140.25c0 69.667-17.111 133.528-51.333 191.583s-80.361 104.194-138.417 138.417c-58.056 34.222-121.917 51.333-191.583 51.333s-133.528-17.111-191.583-51.333c-58.056-34.222-104.194-80.361-138.417-138.417s-51.333-121.917-51.333-191.583c0-69.667 17.111-133.528 51.333-191.583s80.361-104.194 138.417-138.417c58.056-34.222 121.917-51.333 191.583-51.333 48.889 0 95.639 8.861 140.25 26.583s84.028 42.472 118.25 74.25v-18.333c0-6.111 2.444-11 7.333-14.667l236.5-236.5c3.667-4.889 8.556-7.333 14.667-7.333s11.611 2.444 16.5 7.333l18.333 16.5c3.667 4.889 5.5 10.389 5.5 16.5s-1.833 11-5.5 14.667zM424 213.333c-58.667 0-112.75 14.361-162.25 43.083s-88.611 67.833-117.333 117.333c-28.722 49.5-43.083 103.583-43.083 162.25s14.361 112.75 43.083 162.25c28.722 49.5 67.833 88.611 117.333 117.333s103.583 43.083 162.25 43.083c58.667 0 112.75-14.361 162.25-43.083s88.611-67.833 117.333-117.333c28.722-49.5 43.083-103.583 43.083-162.25s-14.361-112.75-43.083-162.25c-28.722-49.5-67.833-88.611-117.333-117.333s-103.583-43.083-162.25-43.083zM616.399 557.191h-166.132v165.849c0 6.486-2.314 12.045-6.941 16.678s-10.181 6.949-16.659 6.949c-6.479 0-12.032-2.316-16.659-6.949s-6.941-10.192-6.941-16.678v-165.849h-166.132c-6.479 0-12.032-2.316-16.659-6.949s-6.941-10.192-6.941-16.678c0-6.795 2.314-12.508 6.941-17.141s10.181-6.949 16.659-6.949h166.132v-165.849c0-6.486 2.314-12.045 6.941-16.678s10.181-6.949 16.659-6.949c6.479 0 12.032 2.316 16.659 6.949s6.941 10.192 6.941 16.678v165.849h166.132c6.479 0 12.032 2.316 16.659 6.949s6.941 10.346 6.941 17.141c0 6.486-2.314 12.045-6.941 16.678s-10.181 6.949-16.659 6.949z" />
<glyph unicode="&#xe973;" glyph-name="Write" d="M685.333 358.833l26.667 27.333c2.667 1.822 5.556 2.050 8.667 0.683s4.667-3.872 4.667-7.517v-224.133c0-18.222-6.222-33.711-18.667-46.467s-27.556-19.133-45.333-19.133h-469.333c-17.778 0-32.889 6.378-45.333 19.133s-18.667 28.244-18.667 46.467v481.067c0 18.222 6.222 33.711 18.667 46.467s27.556 19.133 45.333 19.133h389.333c3.556 0 6-1.594 7.333-4.783s0.667-6.15-2-8.883l-25.333-27.333c-1.778-1.822-4-2.733-6.667-2.733h-362.667c-6.222 0-11.333-2.050-15.333-6.15s-6-9.339-6-15.717v-481.067c0-6.378 2-11.617 6-15.717s9.111-6.15 15.333-6.15h469.333c6.222 0 11.333 2.050 15.333 6.15s6 9.339 6 15.717v196.8c0 2.733 0.889 5.011 2.667 6.833zM880 619.867l-417.333-427.767-133.333-15.033c-8.889-0.911-16.444 1.822-22.667 8.2s-8.889 14.122-8 23.233l14.667 136.667 417.333 427.767c10.667 10.933 23.778 16.4 39.333 16.4s28.667-5.467 39.333-16.4l70.667-72.433c10.667-10.933 16-24.372 16-40.317s-5.333-29.383-16-40.317zM754.667 552.9l-89.333 91.567-310.667-318.433-10.667-103.867 100 12.3 310.667 318.433zM849.333 670.433l-69.333 71.067c-2.667 2.733-6 4.1-10 4.1s-7.333-1.367-10-4.1l-64-65.6 89.333-91.567 64 65.6c2.667 2.733 4 6.15 4 10.25s-1.333 7.517-4 10.25z" />
<glyph unicode="&#xe974;" glyph-name="Edit" d="M133.828 256.71l-20.968-183.871c-1.075-12.903 2.688-23.656 11.29-32.258s19.355-12.366 32.258-11.29l183.871 20.968 567.742 567.742c20.43 20.43 30.645 44.892 30.645 73.387s-10.215 52.957-30.645 73.387l-59.677 59.677c-20.43 20.43-44.892 30.645-73.387 30.645s-52.957-10.215-73.387-30.645l-567.742-567.742zM316.086 98.645l-150-16.129 16.129 150 438.71 438.71 133.871-133.871-438.71-438.71zM872.538 655.097l-80.645-80.645-133.871 133.871 80.645 80.645c9.677 9.677 21.774 14.516 36.29 14.516s26.613-4.839 36.29-14.516l61.29-61.29c9.677-9.677 14.516-21.774 14.516-36.29s-4.839-26.613-14.516-36.29z" />
<glyph unicode="&#xe975;" glyph-name="Like" d="M913.667 398c16.667 22.222 25 49.722 25 82.5s-11.944 61.389-35.833 85.833c-23.889 24.444-52.5 36.667-85.833 36.667h-116.667l3.333 5c10 20 17.222 36.111 21.667 48.333 6.667 21.111 10 42.222 10 63.333 0 50-11.111 88.333-33.333 115s-57.222 40-105 40c-37.778 0-63.889-37.222-78.333-111.667-3.333-18.889-6.667-32.778-10-41.667-4.444-14.444-10-25-16.667-31.667-11.111-10-28.889-31.667-53.333-65-20-25.556-35-43.889-45-55-15.556-17.778-28.333-29.444-38.333-35-3.333-1.111-7.778-2.222-13.333-3.333-10 15.556-24.444 23.333-43.333 23.333h-160c-14.444 0-26.944-5.278-37.5-15.833s-15.833-23.056-15.833-37.5v-426.667c0-14.444 5.278-26.944 15.833-37.5s23.056-15.833 37.5-15.833h160c14.444 0 26.944 5.278 37.5 15.833s15.833 23.056 15.833 37.5v15c10 0 22.778-2.222 38.333-6.667 10-3.333 26.667-8.889 50-16.667 41.111-14.444 73.333-24.444 96.667-30 40-10 76.667-15 110-15h68.333c48.889 0 86.667 13.611 113.333 40.833s39.444 63.611 38.333 109.167c12.222 14.444 21.111 31.667 26.667 51.667s6.667 40 3.333 60c10 15.556 16.389 33.889 19.167 55s1.944 41.111-2.5 60zM138.667 74.667v426.667h160v-426.667h-160zM845.333 414.667c8.889-6.667 14.722-18.333 17.5-35s1.944-33.333-2.5-50c-4.444-16.667-12.778-27.778-25-33.333 11.111-17.778 13.611-37.5 7.5-59.167s-16.944-36.389-32.5-44.167c6.667-41.111 0.556-71.667-18.333-91.667-16.667-17.778-42.222-26.667-76.667-26.667h-68.333c-30 0-62.778 4.444-98.333 13.333-20 5.556-48.889 14.444-86.667 26.667-27.778 10-47.778 16.667-60 20-20 5.556-36.667 8.333-50 8.333v338.333c18.889 0 40 11.111 63.333 33.333 13.333 13.333 33.333 37.222 60 71.667 24.444 32.222 42.5 54.167 54.167 65.833s21.389 27.5 29.167 47.5c3.333 11.111 7.222 28.889 11.667 53.333 4.444 17.778 7.778 30.556 10 38.333 4.444 13.333 10 23.333 16.667 30 36.667 0 61.111-11.667 73.333-35 7.778-13.333 11.667-35.556 11.667-66.667 0-15.556-2.778-31.111-8.333-46.667-3.333-10-9.167-23.333-17.5-40s-14.167-29.444-17.5-38.333c-5.556-14.444-8.333-29.444-8.333-45h186.667c18.889 0 35-6.944 48.333-20.833s20-29.444 20-46.667c0-17.222-3.333-31.944-10-44.167s-16.667-20-30-23.333zM258.667 154.667c0 11.111-3.889 20.556-11.667 28.333s-17.222 11.667-28.333 11.667c-11.111 0-20.556-3.889-28.333-11.667s-11.667-17.222-11.667-28.333c0-11.111 3.889-20.556 11.667-28.333s17.222-11.667 28.333-11.667c11.111 0 20.556 3.889 28.333 11.667s11.667 17.222 11.667 28.333z" />
<glyph unicode="&#xe976;" glyph-name="phone" d="M125.329 834.573l168.314 38.329c12.221 3.333 23.886 1.944 34.996-4.166s19.442-14.721 24.997-25.83l76.658-179.979c4.444-11.11 5.277-22.22 2.5-33.33s-8.61-20.553-17.498-28.33l-89.99-73.325c28.886-57.771 66.104-109.432 111.654-154.982s97.211-82.768 154.982-111.654l73.325 89.99c7.777 8.888 17.22 14.721 28.33 17.498s22.22 1.944 33.33-2.5l179.979-76.658c11.11-5.555 19.72-13.887 25.83-24.997s7.499-22.775 4.166-34.996l-38.329-168.314c-3.333-11.11-9.721-20.553-19.164-28.33s-20.275-11.665-32.496-11.665c-137.762 0-265.525 34.44-383.289 103.321-115.542 67.77-206.643 158.871-273.302 273.302-69.992 118.875-104.988 247.749-104.988 386.622 0 11.11 3.888 21.386 11.665 30.83s17.22 15.831 28.33 19.164zM846.913 74.661l38.329 166.648-179.979 76.658-98.322-121.653c-86.657 39.995-156.093 86.101-208.309 138.317s-98.322 121.653-138.317 208.309l121.653 98.322-76.658 179.979-166.648-38.329c0-127.763 32.219-246.638 96.656-356.626 63.326-107.765 148.316-192.756 254.971-254.971 109.987-64.437 228.863-96.656 356.626-96.656z" />
<glyph unicode="&#xe977;" glyph-name="Reply" d="M213.778 481.63c-9.778 10.864-14.667 23.358-14.667 37.481s4.889 26.617 14.667 37.481l260.741 260.741c10.864 9.778 23.358 14.667 37.481 14.667s26.346-4.889 36.667-14.667c10.321-9.778 15.481-22.272 15.481-37.481v-118.963c121.679-3.259 214.568-21.728 278.667-55.407 92.346-47.802 138.519-127.654 138.519-239.556 0-51.062-12.494-98.864-37.481-143.407-23.901-41.284-57.58-78.222-101.037-110.815-13.037-8.691-26.889-11.407-41.556-8.148s-26.074 11.136-34.222 23.63c-8.148 12.494-10.049 26.346-5.704 41.556 15.21 54.321 19.556 95.605 13.037 123.852s-26.617 48.346-60.296 60.296c-31.506 11.951-81.481 19.012-149.926 21.185v-115.704c0-15.21-5.16-27.704-15.481-37.481s-22.543-14.667-36.667-14.667c-14.123 0-26.617 4.889-37.481 14.667l-260.741 260.741zM512 258.37v169.481c88-1.086 154.272-7.605 198.815-19.556 53.235-15.21 88.543-41.284 105.926-78.222 18.469-41.284 16.84-99.951-4.889-176 32.593 23.901 58.667 50.519 78.222 79.852 26.074 40.198 39.111 84.198 39.111 132 0 67.358-20.099 120.049-60.296 158.074-35.852 32.593-87.457 55.951-154.815 70.074-51.062 9.778-118.42 15.21-202.074 16.296v169.481l-260.741-260.741 260.741-260.741zM57.333 556.593l260.741 260.741c10.864 9.778 23.358 14.667 37.481 14.667s26.617-4.889 37.481-14.667l-298.222-298.222 298.222-298.222c-10.864-9.778-23.358-14.667-37.481-14.667s-26.617 4.889-37.481 14.667l-260.741 260.741c-9.778 10.864-14.667 23.358-14.667 37.481s4.889 26.617 14.667 37.481z" />
<glyph unicode="&#xe978;" glyph-name="Send" d="M823.42 826.004l-671.525-388.225c-10.992-5.996-18.237-14.989-21.735-26.981s-2.748-23.483 2.248-34.476c4.996-10.992 13.49-18.987 25.482-23.983l209.852-86.938v-152.892c0-14.989 4.996-26.981 14.989-35.975s21.984-12.991 35.975-11.992c13.99 0.999 25.482 6.995 34.476 17.987l89.936 110.922 190.365-79.444c13.99-5.996 27.73-4.996 41.221 2.998s21.735 19.486 24.733 34.476l95.932 625.058c1.999 12.991-0.749 24.483-8.244 34.476s-17.238 16.488-29.229 19.486c-11.992 2.998-23.483 1.499-34.476-4.497zM415.708 112.509v133.406l82.442-34.476-82.442-98.93zM751.471 158.976l-308.782 127.41 298.289 353.75c3.997 3.997 3.997 7.994 0 11.992s-7.994 3.997-11.992 0l-382.23-325.27-170.879 70.45 671.525 386.726-95.932-625.058z" />
<glyph unicode="&#xe979;" glyph-name="Share" d="M874.667 181.333c0-44.444-15.556-82.222-46.667-113.333s-68.889-46.667-113.333-46.667c-44.444 0-82.222 15.556-113.333 46.667s-46.667 68.889-46.667 113.333c0 21.111 3.889 41.667 11.667 61.667l-158.333 98.333c-15.556-16.667-33.611-29.722-54.167-39.167s-42.5-14.167-65.833-14.167c-44.444 0-82.222 15.556-113.333 46.667s-46.667 68.889-46.667 113.333c0 44.444 15.556 82.222 46.667 113.333s68.889 46.667 113.333 46.667c23.333 0 45.278-4.722 65.833-14.167s38.611-22.5 54.167-39.167l158.333 98.333c-7.778 20-11.667 40.556-11.667 61.667 0 44.444 15.556 82.222 46.667 113.333s68.889 46.667 113.333 46.667c44.444 0 82.222-15.556 113.333-46.667s46.667-68.889 46.667-113.333c0-44.444-15.556-82.222-46.667-113.333s-68.889-46.667-113.333-46.667c-23.333 0-45.278 4.722-65.833 14.167s-38.611 22.5-54.167 39.167l-158.333-98.333c7.778-20 11.667-40.556 11.667-61.667s-3.889-41.667-11.667-61.667l158.333-98.333c15.556 16.667 33.611 29.722 54.167 39.167s42.5 14.167 65.833 14.167c44.444 0 82.222-15.556 113.333-46.667s46.667-68.889 46.667-113.333zM714.667 821.333c-28.889 0-53.889-10.556-75-31.667s-31.667-46.111-31.667-75c0-28.889 10.556-53.889 31.667-75s46.111-31.667 75-31.667c28.889 0 53.889 10.556 75 31.667s31.667 46.111 31.667 75c0 28.889-10.556 53.889-31.667 75s-46.111 31.667-75 31.667zM288 554.667c-28.889 0-53.889-10.556-75-31.667s-31.667-46.111-31.667-75c0-28.889 10.556-53.889 31.667-75s46.111-31.667 75-31.667c28.889 0 53.889 10.556 75 31.667s31.667 46.111 31.667 75c0 28.889-10.556 53.889-31.667 75s-46.111 31.667-75 31.667zM714.667 288c-28.889 0-53.889-10.556-75-31.667s-31.667-46.111-31.667-75c0-28.889 10.556-53.889 31.667-75s46.111-31.667 75-31.667c28.889 0 53.889 10.556 75 31.667s31.667 46.111 31.667 75c0 28.889-10.556 53.889-31.667 75s-46.111 31.667-75 31.667z" />
<glyph unicode="&#xe97a;" glyph-name="Shield" d="M878 734.667l-320 133.333c-20 8.889-40 8.889-60 0l-320-133.333c-15.556-5.556-27.778-15-36.667-28.333s-13.333-28.333-13.333-45c0-104.444 18.889-202.778 56.667-295 33.333-82.222 79.444-153.889 138.333-215 53.333-56.667 111.667-97.778 175-123.333 20-8.889 40-8.889 60 0 55.556 22.222 108.889 58.333 160 108.333 61.111 60 110 130 146.667 210 42.222 95.556 63.333 200.556 63.333 315 0 16.667-4.444 31.667-13.333 45s-21.111 22.778-36.667 28.333zM538 76.333c-6.667-2.222-13.333-2.222-20 0-56.667 22.222-110 60.556-160 115-53.333 57.778-95 125-125 201.667-34.444 85.556-51.667 175-51.667 268.333 0 12.222 5.556 20.556 16.667 25l320 133.333c6.667 2.222 13.333 2.222 20 0l320-133.333c11.111-4.444 16.667-12.778 16.667-25 0-93.333-17.222-182.778-51.667-268.333-30-76.667-71.667-143.889-125-201.667-50-54.444-103.333-92.778-160-115zM779.667 576.333c3.333 3.333 5 7.778 5 13.333s-1.667 10.556-5 15l-15 13.333c-3.333 4.444-7.778 6.667-13.333 6.667s-10.556-2.222-15-6.667l-271.667-270-115 116.667c-3.333 3.333-7.778 5-13.333 5s-10.556-1.667-15-5l-13.333-15c-4.444-3.333-6.667-7.778-6.667-13.333s1.667-10.556 5-15l143.333-143.333c4.444-4.444 9.444-6.667 15-6.667s10 2.222 13.333 6.667l301.667 298.333z" />
</font>
</defs>
</svg>
