<svg xmlns="http://www.w3.org/2000/svg" width="176" height="80" viewBox="0 0 176 80">
    <defs>
        <clipPath id="clip-path">
            <path id="Rectangle_1664" fill="#fdf2ea" stroke="#707070" d="M0 0H176V80H0z"/>
        </clipPath>
        <style>
            .cls-4{fill:#b2daff}.cls-6{fill:#f5783f}
        </style>
    </defs>
    <g id="Mask_Group_17" clip-path="url(#clip-path)">
        <g id="Group" transform="translate(1.6 7.2)">
            <path id="Background" fill="#fdf2ea" d="M161.6 50.4a5.6 5.6 0 1 1 5.6 5.6 5.6 5.6 0 0 1-5.6-5.6zM112 56a5.613 5.613 0 0 1-1.2-.129 5.606 5.606 0 0 1-1.2.129H36.8a5.6 5.6 0 1 1 0-11.2H5.6a5.6 5.6 0 0 1 0-11.2h32a5.6 5.6 0 0 0 0-11.2h-20a5.6 5.6 0 1 1 0-11.2h32a5.6 5.6 0 1 1 0-11.2h45.6a5.6 5.6 0 0 1 0 11.2h51.2a5.6 5.6 0 0 1 0 11.2H164a5.6 5.6 0 1 1 0 11.2h-15.2a5.6 5.6 0 0 0 0 11.2h4.8a5.6 5.6 0 0 1 0 11.2z" transform="translate(0 5.064)"/>
            <g id="user" transform="translate(51.6)">
                <path id="Path" d="M12.84.815a1.672 1.672 0 0 0-2.293-.578A22.96 22.96 0 0 0 .047 14.49a1.672 1.672 0 1 0 3.251.781 19.6 19.6 0 0 1 8.964-12.164A1.672 1.672 0 0 0 12.84.815z" class="cls-4" transform="translate(17.657 37.24)"/>
                <path id="Path-2" d="M6.574 0a22.933 22.933 0 0 0-5.288.616 1.672 1.672 0 1 0 .772 3.253 19.578 19.578 0 0 1 4.516-.526 1.672 1.672 0 1 0 0-3.343z" class="cls-4" transform="translate(33.319 34.26)"/>
                <path id="Path-3" fill="#fff" d="M39.92 0a15.756 15.756 0 0 0-10.634 4.117l-.26.242-.143.136-.194-.03a14.712 14.712 0 0 0-10.13 26.972l.255.158.765.464-.855.261A26.465 26.465 0 0 0 0 57.6a1.272 1.272 0 0 0 1.156 1.266l.116.005h55.387l.116.2a14.117 14.117 0 1 0 14.8-20.939l-.389-.067-.087-.079a26.427 26.427 0 0 0-9.523-5.517l-.462-.146-.855-.261.765-.464A14.714 14.714 0 0 0 51.6 4.4l-.449.063-.194.03-.143-.136A15.762 15.762 0 0 0 39.92 0z"/>
                <path id="Shape" d="M69 66.128a14.127 14.127 0 0 1-12.225-7.062l-.115-.2H1.272l-.116-.006A1.264 1.264 0 0 1 0 57.595a26.46 26.46 0 0 1 18.723-25.276l.855-.261-.765-.464-.256-.158A14.711 14.711 0 0 1 26.42 4.29a14.829 14.829 0 0 1 2.268.175l.194.03.143-.136.261-.242a15.793 15.793 0 0 1 21.529.242l.143.135.194-.03.448-.064a14.893 14.893 0 0 1 1.82-.11 14.712 14.712 0 0 1 7.606 27.31l-.765.464.855.261.462.146a26.255 26.255 0 0 1 9.522 5.511l.087.078.39.067a14.119 14.119 0 0 1-2.579 28zm0-25.695a11.449 11.449 0 0 0-4.987 1.131 11.669 11.669 0 0 0-5.61 5.789 11.573 11.573 0 1 0 21.988 6.7 11.686 11.686 0 0 0 .184-2.047 11.589 11.589 0 0 0-10.663-11.533c-.345-.027-.635-.039-.912-.039zm-29.08-8.788a26.042 26.042 0 0 0-4.352.366 25.747 25.747 0 0 0-6.327 1.935A26 26 0 0 0 14.024 55.9l-.024.423h41.544l-.142-.508-.109-.412a14.094 14.094 0 0 1 4.393-14l.3-.259-.253-.3-.315-.365a26.247 26.247 0 0 0-8.818-6.532 25.762 25.762 0 0 0-6.326-1.935 26.046 26.046 0 0 0-4.354-.367zm-15.686 2.118l-1.608.258-.325.054a23.675 23.675 0 0 0-7.494 2.662A24.027 24.027 0 0 0 4.5 48.136 23.666 23.666 0 0 0 2.6 55.9l-.03.428h8.88l.022-.377.027-.416a28.486 28.486 0 0 1 11.429-20.798zm31.372 0l1.307.973.455.346a28.75 28.75 0 0 1 4.505 4.366l.209.252.288-.154.395-.2a13.991 13.991 0 0 1 3.344-1.156l.96-.2-.826-.528-.413-.258a23.623 23.623 0 0 0-8.614-3.181zm-2.659-26.94l.393.629.192.314a15.793 15.793 0 0 1 .179 15.807 15.945 15.945 0 0 1-5.522 5.734l-.628.387.666.315.325.148a12.058 12.058 0 0 0 4.868 1.017 12.169 12.169 0 0 0 .268-24.334l-.741-.017zm-26.055 0l-.742.016-.253.009a12.169 12.169 0 1 0 5.715 23.161l.666-.316-.628-.386-.261-.165A15.82 15.82 0 0 1 24.1 15.823a15.751 15.751 0 0 1 2.4-8.371zM39.92 2.544a13.19 13.19 0 0 0-7.528 2.347 13.366 13.366 0 0 0-4.991 6.5A13.292 13.292 0 0 0 39.92 29.1a13.447 13.447 0 0 0 1.864-.133A13.261 13.261 0 0 0 50.26 7.5a13.364 13.364 0 0 0-2.813-2.614 13.19 13.19 0 0 0-7.527-2.342z" class="cls-6"/>
                <path id="Path-4" d="M13.4 5.866H9.21V1.672a1.672 1.672 0 1 0-3.343 0v4.194H1.672a1.672 1.672 0 1 0 0 3.343h4.194V13.4a1.672 1.672 0 1 0 3.343 0V9.21H13.4a1.672 1.672 0 1 0 0-3.343z" class="cls-6" transform="translate(61.482 44.73)"/>
            </g>
        </g>
    </g>
</svg>
