<?xml version="1.0" ?>
<svg xmlns="http://www.w3.org/2000/svg" width="65.0" height="65.0" viewBox="0 0 65.0 65.0">
  <path d="M35.454,42.556L20.767,42.556A2.437,2.437 0,0 1,18.333 40.121L18.333,25.434A2.437,2.437 0,0 1,20.767 23h14.687a2.437,2.437 0,0 1,2.435 2.434v14.687a2.438,2.438 0,0 1,-2.435 2.435zM46.033,40.923a1.634,1.634 0,0 1,-0.93 -0.293l-5.581,-3.845L39.522,28.77l5.581,-3.85a1.64,1.64 0,0 1,0.93 -0.292,1.682 1.682,0 0,1 1.137,0.449 1.567,1.567 0,0 1,0.5 1.157v13.082a1.568,1.568 0,0 1,-0.5 1.158,1.682 1.682,0 0,1 -1.137,0.449z" fill="#000"/>
</svg>
