<?xml version="1.0" ?>
<svg xmlns="http://www.w3.org/2000/svg" width="32.0" height="32.0" viewBox="0 0 32.0 32.0">
  <g>
    <path d="M22.7,24.911h0.008A1.423,1.423 0,0 0,24.1 23.8l0.777,-3.373 0.015,-0.078a1.425,1.425 0,0 0,-0.846 -1.556l-3.638,-1.554 -0.09,-0.035a1.415,1.415 0,0 0,-0.469 -0.08,1.432 1.432,0 0,0 -1.11,0.522l-1.28,1.565 -0.152,-0.083 -0.19,-0.106A11.313,11.313 0,0 1,12.781 14.6L12.7,14.448l1.566,-1.28 0.062,-0.054A1.428,1.428 0,0 0,14.674 11.5L13.117,7.865 13.081,7.788a1.422,1.422 0,0 0,-1.6 -0.75L8.11,7.814l-0.078,0.02A1.417,1.417 0,0 0,7 9.208a15.717,15.717 0,0 0,9.593 14.47,15.606 15.606,0 0,0 6.107,1.233zM19.812,18.4l3.82,1.638 -0.825,3.579h-0.404A14.308,14.308 0,0 1,16.917 22.4,14.392 14.392,0 0,1 8.3,9.274v-0.167l3.579,-0.825L13.518,12.1 11.085,14.092l0.112,0.232a13.672,13.672 0,0 0,2.659 3.854,14.138 14.138,0 0,0 3.924,2.632l0.043,0.02 1.99,-2.433z" fill="#f5783f"/>
  </g>
</svg>
