<?xml version="1.0" ?>
<svg xmlns="http://www.w3.org/2000/svg" width="32.0" height="32.0" viewBox="0 0 32.0 32.0">
  <g>
    <path d="M13.383,27L6.954,27A1.954,1.954 0,0 1,5 25.153v-6.537a1.954,1.954 0,0 1,1.848 -1.951h6.535a1.954,1.954 0,0 1,1.952 1.847v6.537A1.954,1.954 0,0 1,13.491 27zM21.831,25.334a1.01,1.01 0,0 1,-1 -0.922L20.831,22.83h-1.499a1,1 0,0 1,-0.99 -0.837l-0.01,-0.085v-0.082a1.01,1.01 0,0 1,0.922 -1L20.831,20.826v-1.494a1,1 0,0 1,0.837 -0.99l0.085,-0.01h0.082a1.008,1.008 0,0 1,1 0.922L22.835,20.831h1.5a1,1 0,0 1,0.99 0.837l0.011,0.085v0.082a1.009,1.009 0,0 1,-0.922 1h-1.582v1.5a1,1 0,0 1,-0.837 0.99l-0.085,0.011zM25.045,15.334h-6.428a1.954,1.954 0,0 1,-1.952 -1.847L16.665,6.954A1.954,1.954 0,0 1,18.509 5L25.045,5A1.954,1.954 0,0 1,27 6.847v6.537a1.954,1.954 0,0 1,-1.847 1.951zM13.383,15.334L6.954,15.334A1.954,1.954 0,0 1,5 13.491L5,6.954A1.954,1.954 0,0 1,6.848 5h6.535a1.954,1.954 0,0 1,1.952 1.847v6.537a1.954,1.954 0,0 1,-1.848 1.951z" fill="#BDBDBE"/>
  </g>
</svg>
