<svg xmlns="http://www.w3.org/2000/svg" id="edit_40x40" width="28" height="28" viewBox="0 0 28 28">
    <defs>
        <clipPath id="clip-path">
            <path id="Rectangle_1791" d="M0 0H28V28H0z" class="cls-1"/>
        </clipPath>
        <style>
            .cls-1{fill:#fff}
        </style>
    </defs>
    <g id="Mask_Group_29" clip-path="url(#clip-path)">
        <path id="Union_106" d="M8.493 16.861a.761.761 0 0 1-.184-.755l.912-3a.762.762 0 0 1 .192-.318L13.6 8.6a2.289 2.289 0 0 1 3.236 3.239l-4.18 4.172a.75.75 0 0 1-.335.2l-3.08.853a.784.784 0 0 1-.2.028.764.764 0 0 1-.548-.231zm2.133-3.132l-.453 1.493 1.549-.429 2.81-2.8-1.08-1.08zm4.054-4.045l-.147.147 1.078 1.079.148-.147a.763.763 0 0 0-1.079-1.079zM3.052 17.092A3.056 3.056 0 0 1 0 14.039V3.052A3.056 3.056 0 0 1 3.052 0h9.382a3.056 3.056 0 0 1 3.053 3.052V5.3a.763.763 0 1 1-1.527 0V3.052a1.527 1.527 0 0 0-1.526-1.526H3.052a1.527 1.527 0 0 0-1.525 1.526v10.987a1.528 1.528 0 0 0 1.525 1.527H5.6a.763.763 0 1 1 0 1.526z" class="cls-1" transform="translate(5.127 5.127)"/>
    </g>
</svg>
