<svg id="icon_basic_new-friend" data-name="icon / basic / new-friend" xmlns="http://www.w3.org/2000/svg" xmlns:xlink="http://www.w3.org/1999/xlink" width="32" height="32" viewBox="0 0 32 32">
  <defs>
    <style>
      .cls-1 {
        fill: #959595;
      }

      .cls-2 {
        fill: #fdfaf8ee;
      }

      .cls-3 {
        clip-path: url(#clip-path);
      }

      .cls-4 {
        fill: #f5783f;
      }
    </style>
    <clipPath id="clip-path">
      <rect id="Rectangle_51" data-name="Rectangle 51" class="cls-1" width="16" height="16"/>
    </clipPath>
  </defs>
  <circle id="avtar" class="cls-2" cx="16" cy="16" r="16"/>
  <g id="icon" transform="translate(8 8)">
    <g id="Mask_Group_10" data-name="Mask Group 10" class="cls-3">
      <path id="users" class="cls-4" d="M2.012,36.024A1.341,1.341,0,1,0,.671,34.683,1.343,1.343,0,0,0,2.012,36.024Zm9.389,0a1.341,1.341,0,1,0-1.341-1.341A1.343,1.343,0,0,0,11.4,36.024Zm.671.671H10.731a1.337,1.337,0,0,0-.945.39,3.066,3.066,0,0,1,1.574,2.293h1.383a.67.67,0,0,0,.671-.671v-.671A1.343,1.343,0,0,0,12.072,36.695Zm-5.365,0a2.347,2.347,0,1,0-2.347-2.347A2.346,2.346,0,0,0,6.707,36.695Zm1.61.671H8.142a3.241,3.241,0,0,1-2.871,0H5.1A2.415,2.415,0,0,0,2.683,39.78v.6a1.006,1.006,0,0,0,1.006,1.006H9.725a1.006,1.006,0,0,0,1.006-1.006v-.6A2.415,2.415,0,0,0,8.316,37.365Zm-4.688-.281a1.337,1.337,0,0,0-.945-.39H1.341A1.343,1.343,0,0,0,0,38.036v.671a.67.67,0,0,0,.671.671H2.052a3.073,3.073,0,0,1,1.576-2.293Z" transform="translate(1.115 -28.873)"/>
    </g>
  </g>
</svg>
