<svg xmlns="http://www.w3.org/2000/svg" id="icon" width="20" height="20" viewBox="0 0 20 20">
    <defs>
        <clipPath id="clip-path">
            <path id="Rectangle_51" d="M0 0H20V20H0z" class="cls-1"/>
        </clipPath>
        <style>
            .cls-1{fill:#f5783f}
        </style>
    </defs>
    <g id="Mask_Group_10" clip-path="url(#clip-path)">
        <path id="bell" d="M11.442 9.435C10.939 8.894 10 8.081 10 5.417a4.112 4.112 0 0 0-3.335-4.041V.833A.833.833 0 1 0 5 .833v.543a4.112 4.112 0 0 0-3.332 4.041c0 2.664-.941 3.477-1.445 4.018A.814.814 0 0 0 0 10a.834.834 0 0 0 .836.833h9.994a.834.834 0 0 0 .836-.833.813.813 0 0 0-.224-.565zm-9.684.149a6.521 6.521 0 0 0 1.16-4.152v-.015a2.917 2.917 0 0 1 5.833 0v.015a6.52 6.52 0 0 0 1.16 4.152zm4.075 3.75A1.666 1.666 0 0 0 7.5 11.667H4.167a1.666 1.666 0 0 0 1.666 1.666z" class="cls-1" transform="translate(4.168 3.333)"/>
    </g>
</svg>
