<?xml version="1.0" ?>
<svg xmlns="http://www.w3.org/2000/svg" width="30.0" height="30.0" viewBox="0 0 30.0 30.0">
  <path d="M7.875,13.5h-3.75A1.125,1.125 0,0 0,3 14.625v11.25A1.125,1.125 0,0 0,4.125 27h3.75A1.125,1.125 0,0 0,9 25.875v-11.25A1.125,1.125 0,0 0,7.875 13.5zM6,25.125A1.125,1.125 0,1 1,7.125 24,1.125 1.125,0 0,1 6,25.125zM21,6.818c0,1.988 -1.217,3.1 -1.56,4.432h4.768A2.8,2.8 0,0 1,27 13.973a3.394,3.394 0,0 1,-0.911 2.306l-0.005,0.005a3.916,3.916 0,0 1,-0.436 3.725,3.707 3.707,0 0,1 -0.768,3.5 2.488,2.488 0,0 1,-0.288 2.092C23.634,26.981 21.263,27 19.258,27h-0.133a13.456,13.456 0,0 1,-5.6 -1.487,7.377 7.377,0 0,0 -2.468,-0.758 0.563,0.563 0,0 1,-0.552 -0.562L10.505,14.172a0.562,0.562 0,0 1,0.167 -0.4c1.857,-1.835 2.655,-3.778 4.177,-5.3a5.677,5.677 0,0 0,1.19 -2.761c0.204,-0.869 0.64,-2.711 1.586,-2.711C18.75,3 21,3.375 21,6.818z" fill="#f5783f"/>
</svg>
