<svg xmlns="http://www.w3.org/2000/svg" width="24" height="24" viewBox="0 0 24 24">
    <defs>
        <clipPath id="gdomrcyyra">
            <path fill="#fff" d="M0 0H24V24H0z"/>
        </clipPath>
    </defs>
    <g clip-path="url(#gdomrcyyra)">
        <path fill="#929394" d="M13.2 9.813L.746.073a.333.333 0 0 0-.469.052l-.208.26a.333.333 0 0 0 .052.469l12.458 9.74a.334.334 0 0 0 .469-.052l.208-.26a.333.333 0 0 0-.052-.469zM3.4 7.667a4.633 4.633 0 0 0 .862-2.3l-.947-.741a3.782 3.782 0 0 1-1.14 2.922A.651.651 0 0 0 2 8a.667.667 0 0 0 .669.667h5.822l-1.279-1zM6.663 2A2.333 2.333 0 0 1 9 4.333v.012a8.168 8.168 0 0 0 .058.953l1.24.97a5.434 5.434 0 0 1-.3-1.934A3.29 3.29 0 0 0 7.329 1.1V.667A.666.666 0 1 0 6 .667V1.1a3.408 3.408 0 0 0-1.44.682l.8.622A2.321 2.321 0 0 1 6.663 2zm0 8.667A1.333 1.333 0 0 0 8 9.333H5.33a1.333 1.333 0 0 0 1.333 1.334z" transform="translate(5.338 6.667)"/>
    </g>
</svg>
