<svg xmlns="http://www.w3.org/2000/svg" width="24" height="24" viewBox="0 0 24 24">
    <defs>
        <clipPath id="5d89k3awia">
            <path fill="#f5783f" d="M0 0H24V24H0z" transform="translate(.5)"/>
        </clipPath>
    </defs>
    <g clip-path="url(#5d89k3awia)" transform="translate(-.5)">
        <path fill="#f5783f" stroke="#f5783f" stroke-width="0.4px" d="M17 20.048a1.016 1.016 0 1 0 1.016 1.016A1.016 1.016 0 0 0 17 20.048zm.278-.871H16.7a.436.436 0 0 1-.435-.435v-.014c0-2.553 2.81-2.309 2.81-3.9 0-.726-.645-1.459-2.085-1.459a2.4 2.4 0 0 0-2.149 1.041.434.434 0 0 1-.59.086l-.477-.332a.435.435 0 0 1-.1-.623 3.808 3.808 0 0 1 3.311-1.624c1.9 0 3.536 1.08 3.536 2.911 0 2.446-2.81 2.317-2.81 3.9v.014a.436.436 0 0 1-.435.435zM17 9.161A7.839 7.839 0 1 1 9.161 17 7.84 7.84 0 0 1 17 9.161M17 8a9 9 0 1 0 9 9 9 9 0 0 0-9-9z" transform="translate(-4 -4.5)"/>
    </g>
</svg>
