<svg xmlns="http://www.w3.org/2000/svg" width="24" height="24" viewBox="0 0 24 24">
    <defs>
        <clipPath id="clip-path">
            <path id="Rectangle_51" d="M0 0H24V24H0z" class="cls-1"/>
        </clipPath>
        <style>
            .cls-1{fill:#bdbdbe}
        </style>
    </defs>
    <g id="Mask_Group_10" clip-path="url(#clip-path)">
        <path id="Path" d="M-21.961.046a.156.156 0 0 0-.175-.032l-.022.013-.028.025-.676.676a.156.156 0 0 0-.032.172l.013.022.019.022L-17.832 6l-5.03 5.054a.156.156 0 0 0-.032.174l.013.022.019.022.682.682a.156.156 0 0 0 .175.032l.022-.013.022-.019 5.845-5.844a.156.156 0 0 0 .032-.175l-.013-.022-.019-.022z" class="cls-1" transform="translate(31.908 6)"/>
    </g>
</svg>
