<svg xmlns="http://www.w3.org/2000/svg" width="24" height="24" viewBox="0 0 24 24">
    <defs>
        <clipPath id="clip-path">
            <path id="Rectangle_51" d="M0 0H24V24H0z" class="cls-1" transform="translate(.5)"/>
        </clipPath>
        <style>
            .cls-1{fill:#f5783f}
        </style>
    </defs>
    <g id="Mask_Group_10" clip-path="url(#clip-path)" transform="translate(-.5)">
        <path id="Union_111" d="M12187.357-7686.856a2.932 2.932 0 0 1 0-4.145c.66-.66 3.271-2.58 5.347-4.074a.588.588 0 0 0 .071-.892l-.306-.306a2.929 2.929 0 0 1 0-4.142l5.411-5.415a.588.588 0 0 1 .83 0l1.171 1.17a.59.59 0 0 1 .132.634l-.666 1.66 1.66-.663a.584.584 0 0 1 .634.13l4.686 4.686a.583.583 0 0 1 .174.416v6.445a1.762 1.762 0 0 1-1.8 1.759 1.782 1.782 0 0 1-1.715-1.782v-2.662l-2.068 2.069a2.942 2.942 0 0 1-4.146 0l-.306-.307a.584.584 0 0 0-.889.071c-1.493 2.073-3.417 4.687-4.077 5.347a2.918 2.918 0 0 1-2.071.855 2.92 2.92 0 0 1-2.072-.854zm5.938-12.731a1.766 1.766 0 0 0 0 2.488l.307.306a1.759 1.759 0 0 1-.214 2.669c-2.842 2.048-4.737 3.488-5.2 3.954a1.761 1.761 0 0 0 0 2.484 1.766 1.766 0 0 0 2.488 0c.467-.466 1.905-2.361 3.954-5.2a1.759 1.759 0 0 1 2.668-.215l.3.306a1.763 1.763 0 0 0 2.487 0l.078-.078-6.79-6.785zm9.445-.01a1.761 1.761 0 0 0 0 2.487l1.241 1.242a.577.577 0 0 1 .173.416v4.077a.6.6 0 0 0 .572.608.584.584 0 0 0 .6-.585v-6.2l-2.317-2.314zm-8.537-.9l6.787 6.79 1.75-1.749-.827-.831a2.922 2.922 0 0 1 0-4.142l.271-.272-1.1-1.1-2.572 1.027a.587.587 0 0 1-.762-.763l1.03-2.569-.487-.486zm-5.322 11.523a.586.586 0 0 1 .586-.585.584.584 0 0 1 .585.585.585.585 0 0 1-.585.589.586.586 0 0 1-.585-.584z" class="cls-1" transform="translate(-12184 7708)"/>
    </g>
</svg>
