<?xml version="1.0" ?>
<svg xmlns="http://www.w3.org/2000/svg" width="18.0" height="18.0" viewBox="0 0 18.0 18.0">
  <path d="M16.33,4.292a0.917,0.917 0,0 0,-0.52 0.163l-3.143,1.96v-1.67c0,-0.757 -0.665,-1.37 -1.484,-1.37h-8.95c-0.818,0 -1.483,0.613 -1.483,1.37v8.26c0,0.757 0.665,1.37 1.484,1.37h8.949c0.82,0 1.484,-0.613 1.484,-1.37v-1.67l3.142,1.957a0.903,0.903 0,0 0,0.521 0.163c0.476,0 0.92,-0.372 0.92,-0.902L17.25,5.194c0,-0.53 -0.444,-0.902 -0.92,-0.902zM11.292,7.27v5.697a0.187,0.187 0,0 1,-0.11 0.032L2.235,12.999a0.168,0.168 0,0 1,-0.109 -0.032L2.126,4.782a0.187,0.187 0,0 1,0.109 -0.032h8.949c0.057,0 0.091,0.017 0.109,0.032L11.293,7.27zM15.875,11.716l-3.208,-2L12.667,8.036l3.208,-2v5.68z" fill="#f5783f"/>
</svg>
