<?xml version="1.0" ?>
<svg xmlns="http://www.w3.org/2000/svg" width="50.0" height="50.0" viewBox="12.0 7.0 10.0 15.0">
  <path d="M15,15m-14.5,0a14.5,14.5 0,1 1,29 0a14.5,14.5 0,1 1,-29 0" fill="#00000000" stroke-width="1.0" stroke="@color/colorPrimary"/>
  <path d="M16.698,8h-5.174a1.525,1.525 0,0 0,-1.523 1.523v9.953A1.525,1.525 0,0 0,11.524 21h7.259a1.525,1.525 0,0 0,1.523 -1.523v-7.85zM16.981,9.724l1.6,1.6h-1.093a0.508,0.508 0,0 1,-0.508 -0.508zM19.292,19.477a0.508,0.508 0,0 1,-0.508 0.508h-7.26a0.508,0.508 0,0 1,-0.508 -0.508L11.016,9.523a0.508,0.508 0,0 1,0.508 -0.508h4.441v1.806a1.525,1.525 0,0 0,1.523 1.523h1.8z" fill="@color/colorPrimary"/>
</svg>
