<svg xmlns="http://www.w3.org/2000/svg" viewBox="0 0 20 18" width="20" height="18">
	<style>
		tspan { white-space:pre }
		.shp0 { fill: #f5783f } 
	</style>
	<g id="Layer">
		<path id="Layer" fill-rule="evenodd" class="shp0" d="M20 15.62C20 15.87 19.95 16.12 19.86 16.34C19.76 16.57 19.62 16.78 19.45 16.95C19.28 17.12 19.07 17.26 18.84 17.36C18.62 17.45 18.37 17.5 18.12 17.5L1.87 17.5C1.63 17.5 1.38 17.45 1.16 17.36C0.93 17.26 0.72 17.12 0.55 16.95C0.38 16.78 0.24 16.57 0.14 16.34C0.05 16.12 0 15.87 0 15.62L0 4.37C0 4.13 0.05 3.88 0.14 3.66C0.24 3.43 0.38 3.22 0.55 3.05C0.72 2.88 0.93 2.74 1.16 2.64C1.38 2.55 1.63 2.5 1.87 2.5L5.31 2.5L5.79 1.21C5.86 1.04 5.95 0.87 6.07 0.72C6.19 0.57 6.32 0.44 6.48 0.33C6.64 0.23 6.81 0.14 6.99 0.09C7.17 0.03 7.36 0 7.55 0L12.45 0C12.64 0 12.82 0.03 13.01 0.09C13.19 0.14 13.36 0.23 13.51 0.33C13.67 0.44 13.81 0.57 13.92 0.72C14.04 0.87 14.13 1.04 14.2 1.21L14.68 2.5L18.12 2.5C18.37 2.5 18.61 2.55 18.84 2.64C19.07 2.74 19.28 2.87 19.45 3.05C19.62 3.22 19.76 3.43 19.86 3.66C19.95 3.88 20 4.13 20 4.37L20 15.62ZM14.69 10C14.69 8.1 13.55 6.39 11.79 5.67C10.04 4.94 8.03 5.34 6.69 6.69C5.34 8.03 4.94 10.04 5.67 11.79C6.39 13.55 8.1 14.69 10 14.69C10.62 14.69 11.22 14.57 11.79 14.33C12.36 14.09 12.88 13.75 13.31 13.31C13.75 12.88 14.09 12.36 14.33 11.79C14.57 11.22 14.69 10.62 14.69 10ZM11.32 13.18C10.03 13.71 8.55 13.42 7.57 12.43C6.59 11.45 6.29 9.97 6.82 8.69C7.36 7.4 8.61 6.56 10 6.56C10.45 6.56 10.9 6.65 11.31 6.83C11.73 7 12.11 7.25 12.43 7.57C12.75 7.89 13 8.27 13.17 8.69C13.35 9.1 13.44 9.55 13.44 10C13.44 11.39 12.6 12.64 11.32 13.18Z" />
	</g>
</svg>