<?xml version="1.0" ?>
<svg xmlns="http://www.w3.org/2000/svg" width="32.0" height="32.0" viewBox="0 0 32.0 32.0">
  <g>
    <path d="M24.446,27.475a0.425,0.425 0,0 1,-0.256 -0.087l-3.69,-2.767h-5.6a2.855,2.855 0,0 1,-2.852 -2.852v-2.852h7.13a4.283,4.283 0,0 0,4.278 -4.278L23.456,11.787h2.852a2.855,2.855 0,0 1,2.852 2.852v7.13a2.855,2.855 0,0 1,-2.852 2.852h-1.428v2.419a0.436,0.436 0,0 1,-0.434 0.435zM6.777,20.341a0.435,0.435 0,0 1,-0.434 -0.434v-2.416A2.855,2.855 0,0 1,3.491 14.639L3.491,7.51A2.855,2.855 0,0 1,6.343 4.658h12.833a2.855,2.855 0,0 1,2.852 2.852v7.129a2.849,2.849 0,0 1,-2.844 2.848L10.723,17.487L7.034,20.258a0.426,0.426 0,0 1,-0.257 0.083z" fill="#BDBDBE"/>
  </g>
</svg>
