<?xml version="1.0" ?>
<svg xmlns="http://www.w3.org/2000/svg" width="32.0" height="32.0" viewBox="0 0 32.0 32.0">
  <g>
    <path d="M26.438,11.5A0.564,0.564 0,0 0,27 10.938L27,9.063a0.564,0.564 0,0 0,-0.562 -0.562L25.5,8.501L25.5,6.25A2.251,2.251 0,0 0,23.25 4h-15A2.251,2.251 0,0 0,6 6.25v19.5A2.251,2.251 0,0 0,8.25 28h15a2.251,2.251 0,0 0,2.25 -2.25L25.5,23.5h0.938a0.564,0.564 0,0 0,0.562 -0.562v-1.875a0.564,0.564 0,0 0,-0.562 -0.562L25.5,20.501v-3h0.938a0.564,0.564 0,0 0,0.562 -0.563v-1.875a0.564,0.564 0,0 0,-0.562 -0.562L25.5,14.501v-3zM15.75,10a3,3 0,1 1,-3 3,3 3,0 0,1 3,-3zM21,21.1a0.983,0.983 0,0 1,-1.05 0.9h-8.4a0.983,0.983 0,0 1,-1.05 -0.9v-0.9a2.952,2.952 0,0 1,3.15 -2.7h0.234a4.828,4.828 0,0 0,3.731 0h0.234A2.952,2.952 0,0 1,21 20.2z" fill="#BDBDBE"/>
  </g>
</svg>
