<?xml version="1.0" ?>
<svg xmlns="http://www.w3.org/2000/svg" width="24.0" height="24.0" viewBox="0 0 24.0 24.0">
  <g>
    <path d="M17.938,8.625h-1.688v1.125h1.125v10.125h-11.25v-10.125h1.125v-1.125h-1.687a0.562,0.562 0,0 0,-0.563 0.563v11.25a0.562,0.562 0,0 0,0.563 0.563h12.375a0.562,0.562 0,0 0,0.563 -0.562L18.501,9.187a0.562,0.562 0,0 0,-0.563 -0.562z" fill="#f5783f" stroke-width="0.4" stroke="#f5783f"/>
    <path d="M11.187,5.153v7.972h1.125L12.312,5.153l2.414,2.415 0.8,-0.8L11.75,3l-3.773,3.773 0.8,0.8z" fill="#ff00a8d6" stroke-width="0.4" stroke="#f5783f"/>
  </g>
</svg>
