<?xml version="1.0" ?>
<svg xmlns="http://www.w3.org/2000/svg" width="32.0" height="32.0" viewBox="5 5 24.0 24.0">
  <g>
    <path d="M22.3,15.4a2.25,2.25 0,1 0,-2.25 -2.25,2.25 2.25,0 0,0 2.25,2.25zM22.3,12.25a0.9,0.9 0,1 1,-0.9 0.9,0.9 0.9,0 0,1 0.9,-0.9zM9.7,15.4a2.25,2.25 0,1 0,-2.25 -2.25A2.25,2.25 0,0 0,9.7 15.4zM9.7,12.25a0.9,0.9 0,1 1,-0.9 0.9,0.9 0.9,0 0,1 0.9,-0.9zM20.85,18.182a3.207,3.207 0,0 0,-3.595 -1.173,4.289 4.289,0 0,1 -2.515,0 3.2,3.2 0,0 0,-3.595 1.173,3.223 3.223,0 0,0 -0.551,1.809v1.26a1.351,1.351 0,0 0,1.35 1.35h8.1a1.351,1.351 0,0 0,1.35 -1.35v-1.26a3.176,3.176 0,0 0,-0.546 -1.809zM20.05,21.251h-8.1v-1.26A1.9,1.9 0,0 1,13.79 18.1a5.656,5.656 0,0 0,4.422 0,1.894 1.894,0 0,1 1.84,1.89zM22.64,16.3h-0.675a2.355,2.355 0,0 0,-1.316 0.4,4.11 4.11,0 0,1 0.968,1.018 1.025,1.025 0,0 1,0.346 -0.07h0.675a1.016,1.016 0,0 1,1.013 1.013,0.675 0.675,0 1,0 1.35,0A2.362,2.362 0,0 0,22.64 16.3zM16,16.3a3.15,3.15 0,1 0,-3.15 -3.15A3.149,3.149 0,0 0,16 16.3zM16,11.35a1.8,1.8 0,1 1,-1.8 1.8,1.8 1.8,0 0,1 1.8,-1.8zM11.354,16.7a2.355,2.355 0,0 0,-1.316 -0.4h-0.675A2.366,2.366 0,0 0,7 18.664a0.675,0.675 0,1 0,1.35 0,1.016 1.016,0 0,1 1.013,-1.013h0.675a1,1 0,0 1,0.346 0.07,4.174 4.174,0 0,1 0.97,-1.021z" fill="#f5783f"/>
  </g>
</svg>
