<svg xmlns="http://www.w3.org/2000/svg" id="icon" width="20" height="20" viewBox="0 0 20 20">
    <defs>
        <clipPath id="clip-path">
            <path id="Rectangle_51" d="M0 0H20V20H0z" class="cls-1"/>
        </clipPath>
        <style>
            .cls-1{fill:#f5783f}
        </style>
    </defs>
    <g id="Mask_Group_10" clip-path="url(#clip-path)">
        <path id="eye-slash" d="M17.821 13.246L1 .1a.45.45 0 0 0-.63.068L.089.519a.45.45 0 0 0 .07.633L16.977 14.3a.45.45 0 0 0 .633-.07l.281-.351a.45.45 0 0 0-.07-.633zM8.337 4.119l3.791 2.964a3.136 3.136 0 0 0-3.791-2.964zm1.306 6.161L5.852 7.316a3.142 3.142 0 0 0 3.138 3.033 3.178 3.178 0 0 0 .653-.069zM8.99 3.149A7.651 7.651 0 0 1 15.682 7.2a8.03 8.03 0 0 1-1.237 1.693l1.061.83a9.385 9.385 0 0 0 1.487-2.113.91.91 0 0 0 0-.821 9.024 9.024 0 0 0-8-4.989 8.682 8.682 0 0 0-2.943.529l1.303 1.02a7.382 7.382 0 0 1 1.637-.2zm0 8.1A7.651 7.651 0 0 1 2.3 7.2a8.029 8.029 0 0 1 1.237-1.694l-1.061-.83A9.382 9.382 0 0 0 .989 6.789a.91.91 0 0 0 0 .821 9.02 9.02 0 0 0 8 4.989 8.717 8.717 0 0 0 2.943-.529l-1.305-1.02a7.4 7.4 0 0 1-1.637.199z" class="cls-1" transform="translate(1.01 3)"/>
    </g>
</svg>
