<svg xmlns="http://www.w3.org/2000/svg" id="icon" width="20" height="20" viewBox="0 0 20 20">
    <defs>
        <clipPath id="clip-path">
            <path id="Rectangle_51" d="M0 0H20V20H0z" class="cls-1"/>
        </clipPath>
        <style>
            .cls-1{fill:#f5783f}
        </style>
    </defs>
    <g id="Mask_Group_10" clip-path="url(#clip-path)">
        <path id="eye" d="M8 66.222a3.081 3.081 0 0 0-.868.139 1.539 1.539 0 0 1 .2.75 1.556 1.556 0 0 1-1.556 1.556 1.539 1.539 0 0 1-.75-.2A3.1 3.1 0 1 0 8 66.222zm7.9 2.706A8.909 8.909 0 0 0 8 64a8.911 8.911 0 0 0-7.9 4.928.9.9 0 0 0 0 .811A8.909 8.909 0 0 0 8 74.667a8.911 8.911 0 0 0 7.9-4.928.9.9 0 0 0 0-.811zM8 73.333a7.556 7.556 0 0 1-6.609-4 7.556 7.556 0 0 1 6.609-4 7.556 7.556 0 0 1 6.609 4 7.556 7.556 0 0 1-6.609 4z" class="cls-1" transform="translate(2 -59)"/>
    </g>
</svg>
