<svg xmlns="http://www.w3.org/2000/svg" id="icon" width="20" height="20" viewBox="0 0 20 20">
    <defs>
        <clipPath id="clip-path">
            <path id="Rectangle_51" d="M0 0H20V20H0z" class="cls-1"/>
        </clipPath>
        <style>
            .cls-1{fill:#f5783f}
        </style>
    </defs>
    <g id="Mask_Group_10" clip-path="url(#clip-path)">
        <path id="Path_993" d="M2.447 9.91L-.816 6.646a.625.625 0 0 1 .21-1.022 8.041 8.041 0 0 1 4.491-.563L4 5.084 7.938 1.73A3.49 3.49 0 0 1 8.257.048a2.887 2.887 0 0 1 .349-.59.625.625 0 0 1 .929-.05L13.83 3.7a.625.625 0 0 1-.053.931 2.874 2.874 0 0 1-.793.442 3.739 3.739 0 0 1-1.445.22L8.156 9.272l.018.108a8.529 8.529 0 0 1-.574 4.45.625.625 0 0 1-1.023.211l-3.246-3.248-3.248 3.248a.625.625 0 0 1-.884 0 .625.625 0 0 1 0-.884zm4.3 2.534a6.981 6.981 0 0 0 .19-2.873 2.972 2.972 0 0 0-.059-.3.625.625 0 0 1 .127-.571l3.789-4.454a.625.625 0 0 1 .575-.212l.069.008a2.7 2.7 0 0 0 .893-.066L9.268.907a2.224 2.224 0 0 0-.055.982.625.625 0 0 1-.213.578L4.557 6.248a.625.625 0 0 1-.617.112 2.311 2.311 0 0 0-.292-.071 6.265 6.265 0 0 0-2.871.184l3.2 3.2z" class="cls-1" transform="translate(3.083 3.276)"/>
    </g>
</svg>
