<?xml version="1.0" ?>
<svg xmlns="http://www.w3.org/2000/svg" width="24.0" height="24.0" viewBox="0 0 24.0 24.0">
  <g>
    <path stroke-width="0.5" stroke="#f5783f" d="M16.056,13.859l0.625,-0.625a0.186,0.186 0,0 1,0.319 0.132L17,18.5a1.5,1.5 0,0 1,-1.5 1.5h-11A1.5,1.5 0,0 1,3 18.5v-11A1.5,1.5 0,0 1,4.5 6h9.134a0.187,0.187 0,0 1,0.131 0.319l-0.625,0.625a0.193,0.193 0,0 1,-0.131 0.056L4.5,7a0.5,0.5 0,0 0,-0.5 0.5v11a0.5,0.5 0,0 0,0.5 0.5h11a0.5,0.5 0,0 0,0.5 -0.5L16,13.991a0.175,0.175 0,0 1,0.056 -0.132zM20.615,7.884L10.85,17.65 7.728,18A0.656,0.656 0,0 1,7 17.272l0.35,-3.122L17.116,4.384a1.313,1.313 0,0 1,1.856 0l1.644,1.644a1.313,1.313 0,0 1,0 1.856zM17.691,9.4l-2.085,-2.087 -7.3,7.3 -0.259,2.347 2.347,-0.26 7.3,-7.3zM19.91,6.738l-1.644,-1.647a0.311,0.311 0,0 0,-0.441 0L16.313,6.6 18.4,8.688l1.513,-1.513a0.311,0.311 0,0 0,0 -0.441z" fill="#f5783f"/>
  </g>
</svg>
