<svg xmlns="http://www.w3.org/2000/svg" id="icon" width="20" height="20" viewBox="0 0 20 20">
    <defs>
        <clipPath id="clip-path">
            <path id="Rectangle_51" d="M0 0H20V20H0z" class="cls-1"/>
        </clipPath>
        <style>
            .cls-1{fill:#f5783f}
        </style>
    </defs>
    <g id="Mask_Group_10" clip-path="url(#clip-path)">
        <path id="Union_94" d="M8.413 14.816L5.164 11.57l-3.246 3.246a.622.622 0 0 1-.441.184.625.625 0 0 1-.444-1.067l3.25-3.246-3.265-3.264a.622.622 0 0 1-.171-.565.629.629 0 0 1 .382-.458 9.037 9.037 0 0 1 2.994-.67l1.84 1.439h-.079a.616.616 0 0 1-.209-.036 1.844 1.844 0 0 0-.293-.072 5.06 5.06 0 0 0-.987-.091 7.015 7.015 0 0 0-1.885.274l3.2 3.2 2.769 2.77a7.023 7.023 0 0 0 .19-2.871c-.024-.156-.046-.257-.059-.3a.615.615 0 0 1 .126-.572l.069-.082 1.114.872a8.6 8.6 0 0 1-.584 4.339.621.621 0 0 1-1.021.211zm7.316-1.574L.157 1.067A.417.417 0 0 1 .092.481l.26-.324A.416.416 0 0 1 .938.092l15.573 12.175a.416.416 0 0 1 .064.586l-.26.324a.416.416 0 0 1-.586.065zm-3.51-5.814l-.985-.771 1.395-1.639a.628.628 0 0 1 .478-.221.47.47 0 0 1 .1.01h.012l.058.007c.082.007.166.01.25.01a2.722 2.722 0 0 0 .644-.074L11.1 1.682a2.211 2.211 0 0 0-.055.98.631.631 0 0 1-.212.579l-1.9 1.617-1-.786L9.771 2.5A3.541 3.541 0 0 1 10.09.822a2.948 2.948 0 0 1 .349-.589.629.629 0 0 1 .49-.233.617.617 0 0 1 .44.183l4.3 4.3a.624.624 0 0 1-.053.93 2.928 2.928 0 0 1-.8.442 3.756 3.756 0 0 1-1.293.223h-.148l-1.153 1.35z" class="cls-1" transform="translate(1.666 2.5)"/>
    </g>
</svg>
