<svg id="icon_basic_up" data-name="icon / basic /  up" xmlns="http://www.w3.org/2000/svg" width="24" height="24" viewBox="0 0 24 24">
  <defs>
    <style>
      .cls-1 {
        fill: #f5783f;
      }
    </style>
  </defs>
  <path id="Combined_Shape" data-name="Combined Shape" class="cls-1" d="M18.442,20.08l-.037-.022-.037-.032L9.977,11.634,1.586,20.025l-.037.032-.036.022a.262.262,0,0,1-.293-.054L.077,18.884l-.032-.037L.023,18.81a.262.262,0,0,1,.054-.293L8.5,10.055s0,0,0-.007L.077,1.585.045,1.548.023,1.512a.262.262,0,0,1,.054-.292L1.21.086,1.256.045,1.293.023a.261.261,0,0,1,.293.054L9.977,8.469,18.368.077a.261.261,0,0,1,.292-.054L18.7.045l.047.041,1.132,1.133a.261.261,0,0,1,.054.292l-.022.036-.032.037-8.423,8.463s0,0,0,.006l8.423,8.463a.263.263,0,0,1,.054.293l-.022.036-.032.037-1.142,1.142a.266.266,0,0,1-.188.078A.243.243,0,0,1,18.442,20.08Z" transform="translate(2 2)"/>
</svg>
