<svg xmlns="http://www.w3.org/2000/svg" id="icon" width="20" height="20" viewBox="0 0 20 20">
    <defs>
        <clipPath id="clip-path">
            <path id="Rectangle_51" d="M0 0H20V20H0z" class="cls-1"/>
        </clipPath>
        <style>
            .cls-1{fill:#f5783f}
        </style>
    </defs>
    <g id="Mask_Group_10" clip-path="url(#clip-path)">
        <path id="trash-alt" d="M8.375 13h.75a.375.375 0 0 0 .375-.375v-6.75a.375.375 0 0 0-.375-.375h-.75A.375.375 0 0 0 8 5.875v6.75a.375.375 0 0 0 .375.375zM13.5 2.5h-2.575L9.862.728A1.5 1.5 0 0 0 8.575 0h-3.15a1.5 1.5 0 0 0-1.287.728L3.075 2.5H.5A.5.5 0 0 0 0 3v.5a.5.5 0 0 0 .5.5H1v10.5A1.5 1.5 0 0 0 2.5 16h9a1.5 1.5 0 0 0 1.5-1.5V4h.5a.5.5 0 0 0 .5-.5V3a.5.5 0 0 0-.5-.5zm-8.13-.909a.188.188 0 0 1 .161-.091h2.938a.188.188 0 0 1 .161.091l.546.909H4.825zM11.5 14.5h-9V4h9zM4.875 13h.75A.375.375 0 0 0 6 12.625v-6.75a.375.375 0 0 0-.375-.375h-.75a.375.375 0 0 0-.375.375v6.75a.375.375 0 0 0 .375.375z" class="cls-1" transform="translate(3 2)"/>
    </g>
</svg>
