<svg xmlns="http://www.w3.org/2000/svg" id="icon" width="20" height="20" viewBox="0 0 20 20">
    <defs>
        <clipPath id="clip-path">
            <path id="Rectangle_51" d="M0 0H20V20H0z" class="cls-1"/>
        </clipPath>
        <style>
            .cls-1{fill:#f5783f}
        </style>
    </defs>
    <g id="Mask_Group_10" clip-path="url(#clip-path)">
        <path id="bell-slash" d="M16.506 12.266L.933.091a.417.417 0 0 0-.585.065L.087.481a.416.416 0 0 0 .065.586l15.573 12.175a.417.417 0 0 0 .586-.065l.26-.325a.416.416 0 0 0-.065-.586zM4.254 9.583A5.792 5.792 0 0 0 5.333 6.7l-1.185-.922A4.727 4.727 0 0 1 2.72 9.435.814.814 0 0 0 2.5 10a.834.834 0 0 0 .836.833h7.283l-1.6-1.25zM8.329 2.5a2.917 2.917 0 0 1 2.917 2.917v.015a10.21 10.21 0 0 0 .073 1.191l1.55 1.212a6.792 6.792 0 0 1-.373-2.418 4.112 4.112 0 0 0-3.334-4.041V.833a.833.833 0 1 0-1.662 0v.543a4.26 4.26 0 0 0-1.8.852l.994.777A2.9 2.9 0 0 1 8.329 2.5zm0 10.833A1.666 1.666 0 0 0 10 11.667H6.663a1.666 1.666 0 0 0 1.666 1.666z" class="cls-1" transform="translate(1.671 3.333)"/>
    </g>
</svg>
