<svg xmlns="http://www.w3.org/2000/svg" id="icon" width="20" height="20" viewBox="0 0 20 20">
    <defs>
        <clipPath id="clip-path">
            <path id="Rectangle_51" d="M0 0H20V20H0z" class="cls-1"/>
        </clipPath>
        <style>
            .cls-1{fill:#f5783f}
        </style>
    </defs>
    <g id="Mask_Group_10" clip-path="url(#clip-path)">
        <path id="comment" d="M7.435 32c-4.142 0-7.5 2.727-7.5 6.093a5.385 5.385 0 0 0 1.55 3.7 7.433 7.433 0 0 1-1.359 2.144.7.7 0 0 0 .513 1.186 7.108 7.108 0 0 0 4.075-1.356 9.047 9.047 0 0 0 2.721.419c4.142 0 7.5-2.727 7.5-6.093S11.577 32 7.435 32zm0 10.78a7.612 7.612 0 0 1-2.3-.354l-.665-.211-.571.4a6.3 6.3 0 0 1-1.684.849 7.347 7.347 0 0 0 .585-1.173l.311-.823-.6-.639a4.029 4.029 0 0 1-1.166-2.736c0-2.584 2.733-4.687 6.093-4.687s6.093 2.1 6.093 4.687-2.736 4.687-6.096 4.687z" class="cls-1" transform="translate(2.566 -28.667)"/>
    </g>
</svg>
