<?xml version="1.0" ?>
<svg xmlns="http://www.w3.org/2000/svg" width="24.0" height="24.0" viewBox="0 0 24.0 24.0">
  <path d="M15.283,5.667a0.571,0.571 0,0 0,-0.758 -0.044l-0.05,0.044 -0.758,0.758a0.571,0.571 0,0 0,-0.044 0.758l0.044,0.05 3.781,3.781H3.071a0.572,0.572 0,0 0,-0.568 0.51l-0.003,0.061v1.072c0,0.294 0.223,0.537 0.51,0.568l0.061,0.003h14.427l-3.78,3.781a0.571,0.571 0,0 0,-0.045 0.759l0.044,0.05 0.758,0.757a0.571,0.571 0,0 0,0.758 0.044l0.05,-0.044 6.05,-6.05a0.571,0.571 0,0 0,0.044 -0.758l-0.044,-0.05 -6.05,-6.05z" fill="#ffffffff"/>
</svg>
