<svg xmlns="http://www.w3.org/2000/svg" id="icon" width="20" height="20" viewBox="0 0 20 20">
    <defs>
        <clipPath id="clip-path">
            <path id="Rectangle_51" d="M0 0H20V20H0z" class="cls-1"/>
        </clipPath>
        <style>
            .cls-1{fill:#f5783f}
        </style>
    </defs>
    <g id="Mask_Group_10" clip-path="url(#clip-path)">
        <path id="Union_95" d="M.056 12.7a.712.712 0 0 1 .135-.762 7.637 7.637 0 0 0 1.361-2.144A5.368 5.368 0 0 1 0 6.094C0 2.733 3.364 0 7.5 0a9.445 9.445 0 0 1 1.233.082 3.278 3.278 0 0 0-.394 1.37 7.7 7.7 0 0 0-.839-.045c-3.358 0-6.092 2.1-6.092 4.686a4.042 4.042 0 0 0 1.164 2.736l.6.638-.31.823a7.35 7.35 0 0 1-.583 1.179 6.367 6.367 0 0 0 1.683-.851l.573-.4.664.21a7.571 7.571 0 0 0 2.3.354c3.36 0 6.093-2.1 6.093-4.686a3.738 3.738 0 0 0-.321-1.505 3.342 3.342 0 0 0 1.09-.96A5.1 5.1 0 0 1 15 6.094c0 3.36-3.365 6.094-7.5 6.094a9.091 9.091 0 0 1-2.72-.419A7.114 7.114 0 0 1 .7 13.124a.707.707 0 0 1-.644-.424zM10 1.666a1.666 1.666 0 1 1 1.666 1.668A1.665 1.665 0 0 1 10 1.666z" class="cls-1" transform="translate(2.501 3.333)"/>
    </g>
</svg>
