<svg xmlns="http://www.w3.org/2000/svg" width="24" height="24" viewBox="0 0 24 24">
    <defs>
        <clipPath id="clip-path">
            <path id="Rectangle_51" d="M0 0H24V24H0z" class="cls-1" transform="translate(.5)"/>
        </clipPath>
        <style>
            .cls-1{fill:#f5783f}
        </style>
    </defs>
    <g id="Mask_Group_10" clip-path="url(#clip-path)" transform="translate(-.5)">
        <path id="ios-globe" d="M57 48h-.03a9 9 0 0 0 0 18H57a9 9 0 1 0 0-18zm7.8 8.392h-3.364a17.036 17.036 0 0 0-.424-3.3 13.178 13.178 0 0 0 2.15-.908 7.75 7.75 0 0 1 1.631 4.2zm-8.4 0h-2.681A15.376 15.376 0 0 1 54.1 53.4a13.161 13.161 0 0 0 2.293.307zm0 1.211v2.678a13.217 13.217 0 0 0-2.293.307 15.374 15.374 0 0 1-.381-2.985zm1.211 0h2.652a15.285 15.285 0 0 1-.381 2.981 12.913 12.913 0 0 0-2.271-.3zm0-1.211V53.71a13.217 13.217 0 0 0 2.271-.3 15.33 15.33 0 0 1 .381 2.985zm4.733-5.1a12.018 12.018 0 0 1-1.644.671 8.932 8.932 0 0 0-1.154-2.363 7.828 7.828 0 0 1 2.79 1.692zm-2.786.982a12.175 12.175 0 0 1-1.947.26v-3.176a5.242 5.242 0 0 1 1.939 2.916zM56.4 49.341v3.188a11.965 11.965 0 0 1-1.968-.264 5.239 5.239 0 0 1 1.96-2.924zm-1.973.277a9 9 0 0 0-1.138 2.34 12.288 12.288 0 0 1-1.622-.666 7.711 7.711 0 0 1 2.753-1.674zm-3.586 2.574a12.917 12.917 0 0 0 2.128.9 16.349 16.349 0 0 0-.424 3.3h-3.338a7.71 7.71 0 0 1 1.626-4.2zM49.2 57.6h3.331a16.992 16.992 0 0 0 .424 3.3 13.7 13.7 0 0 0-2.128.9 7.751 7.751 0 0 1-1.627-4.2zm2.453 5.1a12.107 12.107 0 0 1 1.627-.666 9.034 9.034 0 0 0 1.138 2.345 7.9 7.9 0 0 1-2.763-1.679zm2.769-.978a12.027 12.027 0 0 1 1.968-.264v3.193a5.231 5.231 0 0 1-1.966-2.925zm3.18 2.911v-3.18a12.174 12.174 0 0 1 1.947.26 5.239 5.239 0 0 1-1.949 2.924zm1.947-.247a8.932 8.932 0 0 0 1.151-2.353 11.819 11.819 0 0 1 1.644.675 7.918 7.918 0 0 1-2.794 1.683zm3.613-2.586a13.178 13.178 0 0 0-2.15-.908 16.947 16.947 0 0 0 .424-3.292h3.357a7.716 7.716 0 0 1-1.631 4.2z" class="cls-1" transform="translate(-44.5 -45)"/>
    </g>
</svg>
