<?xml version="1.0" ?>
<svg xmlns="http://www.w3.org/2000/svg" width="36.0" height="36.0" viewBox="0 0 36.0 36.0">
  <g>
    <path d="M18.001,9c-5.523,0 -10,3.636 -10,8.124A7.18,7.18 0,0 0,10.066 22.057a9.911,9.911 0,0 1,-1.81 2.859,0.938 0.938,0 0,0 0.684,1.584 9.477,9.477 0,0 0,5.433 -1.808,12.063 12.063,0 0,0 3.628,0.559c5.523,0 10,-3.636 10,-8.124S23.524,9 18.001,9zM18.001,24a10.773,10.773 0,0 1,-3.25 -0.5l-0.594,-0.187 -0.508,0.359a8.428,8.428 0,0 1,-4.007 1.547A10.537,10.537 0,0 0,11.236 22.5l0.277,-0.73 -0.535,-0.57a5.9,5.9 0,0 1,-1.726 -4.074c0,-3.789 3.925,-6.874 8.749,-6.874s8.749,3.086 8.749,6.874S22.825,24 18.001,24z" fill="#f5783f" stroke-width="0.3" stroke="#f5783f"/>
  </g>
</svg>
