<?xml version="1.0" ?>
<svg xmlns="http://www.w3.org/2000/svg" width="65.0" height="65.0" viewBox="0 0 65.0 65.0">
  <path d="M29.431,49.501a0.552,0.552 0,1 1,0 -1.1h2.759v-2.791a8.833,8.833 0,0 1,-7.234 -4.648,6.482 6.482,0 0,1 -0.48,-1.081 8.768,8.768 0,0 1,-0.562 -3.072L23.914,33.501a0.552,0.552 0,1 1,1.1 0v3.31a7.7,7.7 0,0 0,0.325 2.206l0.173,0.585 0.266,0.536a7.718,7.718 0,0 0,14.684 -3.327L40.462,33.501a0.552,0.552 0,1 1,1.1 0v3.31a8.832,8.832 0,0 1,-8.276 8.8v2.79h2.759a0.552,0.552 0,0 1,0 1.1zM26.669,36.809L26.669,23.569a6.07,6.07 0,1 1,12.139 0v13.24a6.07,6.07 0,1 1,-12.139 0z" fill="#000"/>
</svg>
