<?xml version="1.0" ?>
<svg xmlns="http://www.w3.org/2000/svg" width="65.0" height="65.0" viewBox="0 0 65.0 65.0">
  <path d="M29.431,49.501a0.552,0.552 0,0 1,0 -1.1h2.758v-2.792a8.831,8.831 0,0 1,-7.233 -4.647L20.441,45.475a0.543,0.543 0,0 1,-0.39 0.162,0.545 0.545,0 0,1 -0.392,-0.162 0.552,0.552 0,0 1,0 -0.779l4.818,-4.815a8.723,8.723 0,0 1,-0.562 -3.071L23.915,33.501a0.552,0.552 0,0 1,1.1 0v3.311a7.75,7.75 0,0 0,0.322 2.2L44.49,19.868a0.552,0.552 0,1 1,0.779 0.782L25.78,40.136a7.718,7.718 0,0 0,14.685 -3.326L40.465,33.501a0.552,0.552 0,0 1,1.1 0v3.311a8.83,8.83 0,0 1,-8.274 8.8L33.291,48.401h2.759a0.552,0.552 0,0 1,0 1.1zM27.583,39.991l11.227,-11.229v8.048A6.063,6.063 0,0 1,27.583 39.991zM26.672,23.568a6.069,6.069 0,0 1,12.138 0v0.323L26.672,36.031z" fill="#fff"/>
</svg>
