<svg xmlns="http://www.w3.org/2000/svg" width="24" height="24" viewBox="0 0 24 24">
    <defs>
        <clipPath id="clip-path">
            <path id="Rectangle_51" d="M0 0H24V24H0z" class="cls-1" transform="translate(.5)"/>
        </clipPath>
        <style>
            .cls-1{fill:#f5783f}
        </style>
    </defs>
    <g id="Group_10" clip-path="url(#clip-path)" transform="translate(-.5)">
        <path id="Shape" d="M7.917 18.125h-.09l-.094-.006a2.188 2.188 0 0 1-1.995-2v-.075H10.1v.075l-.009.093a2.189 2.189 0 0 1-2.174 1.913zm6.872-3.437H.975A1.037 1.037 0 0 1 0 13.645a1.014 1.014 0 0 1 .281-.706l.012-.012c.23-.243.321-.34.356-.379l.114-.128c.111-.127.211-.252.306-.381a7.633 7.633 0 0 0 1.225-4.7v-.136A5.458 5.458 0 0 1 3.6 3.767a5.565 5.565 0 0 1 1.41-1.188 5.81 5.81 0 0 1 1.783-.689l.083-.017V.973a1.041 1.041 0 0 1 2.08.069v.831l.083.017.133.029a5.786 5.786 0 0 1 1.763.727 5.553 5.553 0 0 1 1.38 1.219 5.466 5.466 0 0 1 1.222 3.479v.2a7.453 7.453 0 0 0 1.224 4.492 6.225 6.225 0 0 0 .42.509l.023.025.345.367a1.012 1.012 0 0 1 .28.706 1.038 1.038 0 0 1-1.041 1.045zM7.917 3.229A4.119 4.119 0 0 0 3.8 7.344v.241a8.785 8.785 0 0 1-1.569 5.425l-.127.167H13.73l-.13-.167-.087-.117a7.09 7.09 0 0 1-1.073-2.229 11.565 11.565 0 0 1-.412-3.079v-.241a4.119 4.119 0 0 0-4.111-4.115z" class="cls-1" transform="translate(4.688 2.938)"/>
    </g>
</svg>
