<svg xmlns="http://www.w3.org/2000/svg" width="18" height="18" viewBox="0 0 18 18">
    <defs>
        <clipPath id="u2szjyuqha">
            <path fill="#fff" d="M0 0H18V18H0z"/>
        </clipPath>
    </defs>
    <g clip-path="url(#u2szjyuqha)">
        <path fill="#929394" d="M1.068 5.636L-.89 3.677a.375.375 0 0 1 .126-.613 4.824 4.824 0 0 1 2.695-.338L2 2.74 4.363.728a2.094 2.094 0 0 1 .191-1.009 1.732 1.732 0 0 1 .21-.354.375.375 0 0 1 .557-.03L7.9 1.911a.375.375 0 0 1-.032.559 1.724 1.724 0 0 1-.476.265 2.243 2.243 0 0 1-.867.132L4.493 5.253l.011.065a5.117 5.117 0 0 1-.344 2.67.375.375 0 0 1-.614.126L1.6 6.166-.35 8.114a.375.375 0 0 1-.53 0 .375.375 0 0 1 0-.53zm2.58 1.52a4.188 4.188 0 0 0 .114-1.724 1.783 1.783 0 0 0-.035-.181.375.375 0 0 1 .073-.344l2.277-2.673a.375.375 0 0 1 .345-.127h.041A1.618 1.618 0 0 0 7 2.072L5.161.234a1.334 1.334 0 0 0-.033.589A.375.375 0 0 1 5 1.17L2.334 3.438a.375.375 0 0 1-.37.067 1.386 1.386 0 0 0-.175-.043 3.759 3.759 0 0 0-1.723.11l1.921 1.921z" transform="translate(5.25 5.276)"/>
    </g>
</svg>
