<?xml version="1.0" ?>
<svg xmlns="http://www.w3.org/2000/svg" width="24.0" height="24.0" viewBox="0 0 24.0 24.0">
  <g>
    <path d="M12.155,16.626l-1.78,-1.78a0.331,0.331 0,0 1,0 -0.469l0.781,-0.777a0.332,0.332 0,0 1,0.469 0l0.765,0.765L19.653,7.1a0.331,0.331 0,0 1,0.469 0l0.778,0.778a0.331,0.331 0,0 1,0 0.469L12.624,16.626a0.331,0.331 0,0 1,-0.469 0zM6.781,16.626L3.1,12.941a0.331,0.331 0,0 1,0 -0.468l0.781,-0.781a0.332,0.332 0,0 1,0.469 0l2.666,2.669L14.279,7.1a0.331,0.331 0,0 1,0.469 0l0.781,0.781a0.331,0.331 0,0 1,0 0.469L7.25,16.626a0.331,0.331 0,0 1,-0.469 0z" fill="#f5783f"/>
  </g>
</svg>
