<svg xmlns="http://www.w3.org/2000/svg" width="24" height="24" viewBox="0 0 24 24">
    <defs>
        <clipPath id="clip-path">
            <path id="Rectangle_51" d="M0 0H24V24H0z" class="cls-1" transform="translate(.5)"/>
        </clipPath>
        <style>
            .cls-1{fill:#f5783f}
        </style>
    </defs>
    <g id="Group_10" clip-path="url(#clip-path)" transform="translate(-.5)">
        <path id="Shape" d="M12.031 18.333H1.719A1.721 1.721 0 0 1 0 16.615V4.01a1.721 1.721 0 0 1 1.719-1.718h3.172a1.9 1.9 0 0 1-.021-.286 2.005 2.005 0 0 1 4.011 0 1.9 1.9 0 0 1-.022.286h3.173A1.721 1.721 0 0 1 13.75 4.01v12.6a1.721 1.721 0 0 1-1.719 1.723zM1.719 3.438a.573.573 0 0 0-.573.573v12.6a.573.573 0 0 0 .573.573h10.312a.573.573 0 0 0 .573-.573V4.01a.573.573 0 0 0-.573-.573h-1.718v.716a.43.43 0 0 1-.43.43H3.867a.43.43 0 0 1-.429-.43v-.715zm5.156-2.292a.859.859 0 1 0 .859.859.86.86 0 0 0-.859-.859zM4.01 13.464a.859.859 0 1 1 .86-.864.86.86 0 0 1-.86.864zm6.016-.286h-4.01a.287.287 0 0 1-.286-.286v-.573a.287.287 0 0 1 .286-.287h4.01a.287.287 0 0 1 .286.287v.573a.287.287 0 0 1-.286.285zm0-3.438H6.091l1.156-1.146h2.779a.287.287 0 0 1 .286.286v.573a.287.287 0 0 1-.286.287zm-5.642 0a.172.172 0 0 1-.13-.057l-1.329-1.34a.192.192 0 0 1 0-.272l.455-.451a.193.193 0 0 1 .272 0l.738.749 1.7-1.69a.192.192 0 0 1 .272 0l.451.455a.193.193 0 0 1 0 .272l-2.3 2.277a.189.189 0 0 1-.129.056z" class="cls-1" transform="translate(5.5 3)"/>
    </g>
</svg>
