<svg xmlns="http://www.w3.org/2000/svg" width="24" height="24" viewBox="0 0 24 24">
    <defs>
        <clipPath id="clip-path">
            <path id="Rectangle_51" d="M0 0H24V24H0z" class="cls-1" transform="translate(.5)"/>
        </clipPath>
        <style>
            .cls-1{fill:#f5783f}
        </style>
    </defs>
    <g id="Mask_Group_10" clip-path="url(#clip-path)" transform="translate(-.5)">
        <path id="Shape" d="M9 18A9 9 0 0 1 5.5.707a9 9 0 0 1 7 16.586A8.944 8.944 0 0 1 9 18zm-1.517-4.609l-2.4 2.4a7.845 7.845 0 0 0 7.835 0l-2.4-2.4a4.664 4.664 0 0 1-3.035 0zm5.36-1.781a4.659 4.659 0 0 1-1.232 1.232l2.282 2.282a7.9 7.9 0 0 0 1.232-1.232zm-7.685 0l-2.283 2.283a7.9 7.9 0 0 0 1.232 1.232l2.282-2.282a4.66 4.66 0 0 1-1.232-1.232zm10.634-6.528l-2.4 2.4a4.67 4.67 0 0 1 0 3.035l2.4 2.4a7.856 7.856 0 0 0 0-7.835zm-13.583 0a7.856 7.856 0 0 0 0 7.835l2.4-2.4a4.67 4.67 0 0 1 0-3.035l-2.4-2.4zM9 5.516A3.484 3.484 0 1 0 12.484 9 3.488 3.488 0 0 0 9 5.516zm4.893-2.641l-2.282 2.282a4.66 4.66 0 0 1 1.232 1.232l2.282-2.282a7.9 7.9 0 0 0-1.232-1.232zm-9.786 0a7.9 7.9 0 0 0-1.232 1.232l2.282 2.282a4.66 4.66 0 0 1 1.232-1.232L4.107 2.875zM9 4.355a4.637 4.637 0 0 1 1.517.254l2.4-2.4a7.845 7.845 0 0 0-7.835 0l2.4 2.4A4.64 4.64 0 0 1 9 4.355z" class="cls-1" transform="translate(3.5 3)"/>
    </g>
</svg>
